<svg xmlns="http://www.w3.org/2000/svg" width="3000" height="1636"><path fill="#C6FF3A" d="M1590 815c4.61 4.03 9.06 8.23 13.45 12.5 1.29 1.25 2.6 2.48 3.91 3.71 21.63 20.59 35.07 49.12 47.82 75.61a949 949 0 0 0 2.2 4.56c.36.75.72 1.5 1.1 2.28A557 557 0 0 0 1680 954c.57.98 1.15 1.97 1.74 2.98 10.91 18.66 23.41 35.71 37.02 52.48 1.67 2.07 3.3 4.18 4.93 6.29 5.27 6.81 10.76 13.44 16.35 19.99 4.53 5.31 8.9 10.69 13.12 16.24 2.72 3.59 5.52 7.11 8.35 10.61 30.74 37.94 45.39 82.46 41.02 131.35-3.1 28.33-13.2 54.19-31.53 76.06-.56.72-1.11 1.43-1.69 2.17-18.05 22.12-45.95 33.94-73.67 37.23-19.8 1.79-38.99-.02-58.39-4.02-1.06-.22-2.11-.43-3.2-.64-21.76-4.72-42.44-13.48-63-21.83-5.74-2.33-11.48-4.65-17.23-6.96-.62-.26-1.24-.51-1.88-.76-9.03-3.64-18.07-7.22-27.15-10.71-1.04-.4-2.07-.8-3.14-1.21-32.04-12.27-64.54-18.27-98.81-18.62-1.58-.02-3.16-.04-4.73-.07-31.28-.52-62.91 5.67-93.78 10.14-16.43 2.38-32.84 4.57-49.38 6.07-.68.06-1.36.12-2.06.18-38.72 3.47-79.27-1.35-110.64-26.35q-2.655-2.28-5.25-4.62c-.83-.75-1.66-1.5-2.52-2.27-21.91-20.8-34.85-49.22-39.48-78.73-.19-1.23-.39-2.46-.59-3.72-4.91-41.89 7.78-83.2 33.59-116.28.72-.94 1.43-1.87 2.17-2.84 8.22-10.44 17.69-19.74 28.09-27.99 2.92-2.31 5.77-4.7 8.62-7.11 6.87-5.73 13.96-11.15 21.09-16.56a987 987 0 0 0 29.31-23.09c2.33-1.91 4.68-3.79 7.03-5.66 1.57-1.25 3.13-2.5 4.69-3.75.87-.69 1.74-1.38 2.63-2.1 6.39-5.15 12.49-10.56 18.49-16.16 1.47-1.36 2.96-2.71 4.45-4.06 7.36-6.68 14.47-13.57 21.49-20.61 1.76-1.77 3.54-3.54 5.31-5.31 5.2-5.19 10.33-10.39 15.11-15.99 2.69-3.13 5.56-6.09 8.4-9.08 4.84-5.15 9.42-10.41 13.84-15.94 3.18-3.84 6.57-7.48 9.98-11.12 2.66-2.84 5.24-5.71 7.74-8.69 11.3-13.04 25.35-23.53 39.79-32.8 1.52-.98 3.02-1.98 4.52-2.98 58.14-36.77 137.9-25.06 189.25 17.84m-166.13-462.58c8.23 6.42 15 13.34 20.96 21.91 1.15 1.64 2.33 3.26 3.51 4.88 12.42 17.39 22.28 37.42 28.66 57.79.29.91.58 1.82.88 2.75C1492.3 485.5 1498.55 538.5 1489 586c-.09.44-.09.44-.52 2.66-6.51 32.35-19.9 61.34-41.48 86.34-.73.89-1.46 1.78-2.22 2.7-15.83 18.52-41.07 34.61-65.65 37.14-26.19 2.01-51.72-8.56-71.45-25.36-25.8-22.67-38.25-51.21-48.68-83.48l-1.06-3.27c-2.77-9.08-4.36-18.2-5.75-27.57-.38-2.53-.77-5.05-1.17-7.57-9.25-60.27-.98-127.11 35.17-177.65 1.26-1.66 2.53-3.3 3.81-4.94.56-.75 1.13-1.51 1.71-2.29 16.63-21.7 38.38-43.44 66.04-49.29 25.2-3.24 46.17 3.86 66.12 19m352.712 52.674c6.45 6.05 11 13.32 15.42 20.91.54.93 1.09 1.86 1.65 2.82 8.14 15.11 12.01 32.21 16.16 48.74a705 705 0 0 1 4.19 17.44c.23.98.46 1.96.69 2.96 1.9 9.37 1.61 18.93 1.57 28.44-.01 3 0 5.99.01 8.98.02 17.16-1 34.2-4.4 51.05-.21 1.06-.42 2.12-.63 3.22-3.81 18.62-8.04 38.13-16.24 55.35a645 645 0 0 0-1.12 2.4c-18.53 39.43-47.29 84.57-90.17 100.44-20.57 6.94-40.19 7.04-60.71.16-.34-.12-.34-.12-2.06-.68-26.97-9.18-48.34-29.7-60.97-54.94-17.1-36.47-20.71-81.06-12.97-120.38.25-1.35.51-2.69.76-4.04 10.19-53.15 30.28-106.81 68.6-146.28 1.14-1.17 2.27-2.35 3.4-3.54 36.16-38.08 93.59-48.1 136.82-13.05M1155.5 589.125c.32.24.32.24 1.96 1.45 4.56 3.47 8.57 7.3 12.54 11.43.4.4.4.4 2.44 2.43.84.85 1.69 1.69 2.56 2.57.56.52 1.12 1.05 1.7 1.59 11.08 10.61 19.6 23.21 27.3 36.41.37.62.74 1.24 1.12 1.88 5.66 9.67 9.97 19.86 14.13 30.24.13.31.13.31.76 1.89 5.56 13.92 10.32 27.75 13.18 42.49.25 1.29.51 2.58.77 3.92 2.2 11.47 3.52 22.91 4.04 34.58.03.71.07 1.43.1 2.17 1.61 41.19-8.13 86.64-36.74 117.58-14.46 14.9-34.59 23.95-55.26 24.77-28.43.41-57.63-11.08-79.1-29.52-1.14-.95-2.27-1.89-3.41-2.83-16.32-13.57-27.7-29.5-37.59-48.17-.32-.61-.64-1.21-.98-1.84-25.44-48.63-34-113.59-17.85-166.55 10.38-32.8 25.27-64.55 56.83-81.61 32.61-15.67 63.92-5.32 91.5 15.12m812.464 95.307c25.79 19.97 36.32 48.91 40.41 80.46 4.72 40.72-3.71 81.87-20.37 119.11-.37.83-.73 1.66-1.11 2.52-5.23 11.92-11.48 22.78-18.89 33.48-.72 1.04-1.43 2.08-2.16 3.15-3.89 5.51-8.12 10.57-12.71 15.52-1.87 2.04-3.63 4.13-5.38 6.27-17.02 19.39-43.81 35.87-68.75 42.06-1.01.25-2.02.51-3.06.77-8.48 2-16.49 2.74-25.19 2.67-.63-.01-.63-.01-3.83-.03-22.49-.38-43.6-7.43-60.17-23.04-23.26-24.75-28.59-57.01-27.89-89.83 1.14-30.53 9.59-59.9 21.51-87.79.27-.63.53-1.26.81-1.91 5.23-12.25 11.45-23.89 19.07-34.84.45-.66.91-1.32 1.38-2.01 4.99-7.07 10.59-13.56 16.37-19.99.92-1.05 1.85-2.1 2.78-3.15 33.8-37.98 98.24-79.1 147.18-43.42"/></svg>