<?xml version="1.0" encoding="utf-8"?>
<!DOCTYPE svg PUBLIC "-//W3C//DTD SVG 1.0//EN" "http://www.w3.org/TR/2001/REC-SVG-20010904/DTD/svg10.dtd">
<svg version="1.0" xmlns="http://www.w3.org/2000/svg" width="218px" height="155px" viewBox="0 0 218 155" preserveAspectRatio="xMidYMid meet">
 <g fill="#ffffff">
  <path d="M170.22 142.17 c-1.43 -0.23 -2.10 -0.47 -3.59 -1.24 -1.60 -0.82 -3.28 -2.46 -3.98 -3.87 -0.30 -0.59 -1.56 -4.27 -2.81 -8.16 -1.24 -3.89 -2.69 -8.39 -3.21 -10 l-0.95 -2.90 -1.38 1.92 c-2.49 3.53 -3.78 4.50 -6.94 5.25 -0.84 0.20 -2.13 0.52 -2.87 0.70 -1.65 0.43 -5.58 0.91 -7.28 0.91 -2.51 0 -4.50 -0.84 -6.10 -2.55 -0.74 -0.81 -1.33 -1.79 -2.49 -4.14 -1.63 -3.24 -2.28 -4.14 -3.19 -4.32 -0.52 -0.11 -13.70 -0.82 -19.85 -1.09 -5.31 -0.23 -5.47 -0.27 -14.63 -3.73 l-5.41 -2.03 -0.93 1.42 c-2.65 4.02 -4.97 6.44 -7.17 7.51 -0.74 0.36 -2.55 1.06 -4.03 1.58 -3.57 1.25 -4.39 1.63 -5.27 2.42 -0.59 0.54 -0.70 0.72 -0.56 0.99 0.23 0.45 0.23 1.49 0 1.34 -0.20 -0.13 -0.23 0.16 -0.07 0.75 0.07 0.23 0.18 0.38 0.25 0.32 0.30 -0.18 0.59 1.56 0.48 3.01 -0.25 3.69 -2.64 7.31 -5.79 8.84 -2.38 1.15 -7.26 1.81 -12.03 1.65 -2.04 -0.07 -2.67 -0.18 -3.66 -0.54 -1.24 -0.47 -2.56 -1.33 -3.44 -2.26 l-0.52 -0.54 -1.81 0.86 c-2.04 0.97 -6.19 2.49 -8.30 3.05 -1.81 0.47 -5.15 0.50 -6.45 0.05 -1.86 -0.63 -3.37 -1.97 -6.35 -5.67 -1.94 -2.42 -2.62 -3.66 -2.98 -5.34 -0.25 -1.22 -0.20 -2.49 0.13 -2.49 0.07 0 0.20 -0.30 0.25 -0.66 0.27 -1.65 0.59 -2.58 2.60 -7.40 1.17 -2.81 2.94 -7.17 3.94 -9.68 1 -2.51 2.03 -4.93 2.28 -5.36 0.97 -1.67 2.64 -3.08 7.85 -6.74 1.38 -0.95 2.56 -1.79 2.64 -1.86 0.07 -0.05 0.70 -2.01 1.38 -4.34 0.68 -2.31 1.38 -4.55 1.54 -4.97 0.29 -0.68 0.29 -0.79 0.04 -1.17 -0.18 -0.27 -0.22 -0.52 -0.11 -0.68 0.32 -0.52 0.13 -0.86 -1.22 -1.97 -0.77 -0.63 -2.87 -2.64 -4.68 -4.45 -3.76 -3.78 -12.62 -13.18 -13.55 -14.38 -1.27 -1.63 -1.77 -3.98 -1.13 -5.36 0.14 -0.34 0.34 -0.91 0.39 -1.25 0.23 -1.17 1.02 -2.55 2.04 -3.57 2.44 -2.42 5.86 -2.98 9.32 -1.47 0.65 0.29 4.34 2.04 8.18 3.93 7.94 3.87 14.06 6.72 16.67 7.82 1.74 0.72 1.85 0.74 3.85 0.74 1.79 0 2.58 -0.11 6.19 -0.90 2.28 -0.48 3.98 -0.91 3.82 -0.95 -0.39 -0.07 -0.43 -0.57 -0.05 -0.57 0.18 0 0.04 -0.29 -0.43 -0.91 -0.75 -0.99 -0.99 -1.56 -1.43 -3.57 l-0.30 -1.34 -3.94 -0.11 c-4.23 -0.11 -5.23 -0.30 -6.92 -1.29 -1.02 -0.59 -2.33 -2.01 -2.90 -3.14 -0.88 -1.74 -1.15 -4.27 -0.50 -4.91 0.13 -0.13 0.22 -0.43 0.22 -0.68 0 -0.65 0.61 -2.38 1.17 -3.32 0.61 -1.04 2.22 -2.47 3.42 -3.05 1.85 -0.88 2.87 -0.99 9.45 -0.99 l6.04 0 0 -0.66 c0 -1.63 0.84 -3.55 2.21 -5.02 0.84 -0.91 2.83 -1.94 4.23 -2.21 0.57 -0.11 5.43 -0.18 12.05 -0.18 10.92 0 11.08 0 11.28 -0.36 0.11 -0.20 0.18 -0.63 0.16 -0.95 -0.07 -0.93 0 -1.60 0.16 -1.49 0.09 0.05 0.25 -0.52 0.36 -1.25 0.38 -2.40 1.52 -4.20 3.51 -5.49 0.59 -0.38 1.47 -0.81 1.97 -0.95 0.50 -0.16 3.94 -0.72 7.64 -1.25 3.69 -0.56 8.07 -1.20 9.72 -1.45 l3.01 -0.48 0.81 -1.31 c2.08 -3.32 5.49 -4.82 8.96 -3.93 0.57 0.16 4.36 1.88 8.41 3.84 8.18 3.96 9.99 4.75 17.68 7.80 3.17 1.24 5.74 2.37 6.38 2.80 1.24 0.81 5.58 5.18 6.83 6.87 1.08 1.49 1.63 2.60 2.03 4.12 0.18 0.75 0.34 1.13 0.39 0.93 0.09 -0.47 0.47 1.15 0.54 2.33 l0.05 0.90 5.81 3.01 c3.21 1.65 6.42 3.37 7.15 3.82 2.46 1.54 4.18 3.75 4.79 6.13 0.18 0.66 0.41 1.45 0.54 1.74 0.90 2.03 0.25 4.03 -3.59 11.38 -3.23 6.15 -4.21 7.46 -8.28 10.88 -2.24 1.86 -2.65 2.42 -2.12 2.81 0.29 0.20 0.29 0.25 0.05 0.48 -0.23 0.22 0.16 0.47 3.12 1.90 3.30 1.61 3.44 1.72 4.97 3.24 1.70 1.69 2.58 3.07 3.28 5.15 0.22 0.70 0.54 1.36 0.72 1.47 0.18 0.16 0.27 0.43 0.23 0.81 -0.04 0.32 0.14 1.27 0.39 2.12 0.23 0.84 0.48 1.67 0.52 1.85 0.05 0.16 0.16 0.27 0.25 0.22 0.09 -0.05 0.23 0.16 0.34 0.48 0.70 2.37 0.91 3.28 0.84 3.50 -0.05 0.14 -0.04 0.22 0.04 0.16 0.09 -0.05 0.36 0.54 0.61 1.29 0.29 0.86 0.39 1.42 0.29 1.49 -0.11 0.07 0 0.70 0.29 1.67 0.27 0.86 0.54 1.52 0.63 1.47 0.07 -0.05 0.27 0.34 0.43 0.84 0.16 0.52 0.47 1.45 0.66 2.10 0.22 0.65 0.41 1.45 0.41 1.83 0.02 0.36 0.11 0.61 0.20 0.56 0.09 -0.07 0.11 0.11 0.04 0.38 -0.07 0.32 -0.05 0.45 0.07 0.38 0.29 -0.18 0.54 0.66 0.29 0.97 -0.16 0.22 -0.14 0.23 0.05 0.11 0.20 -0.11 0.23 -0.05 0.14 0.30 -0.13 0.50 0.18 1.63 0.39 1.49 0.22 -0.13 0.81 1.99 0.65 2.24 -0.11 0.16 -0.07 0.20 0.09 0.09 0.18 -0.11 0.22 -0.05 0.14 0.23 -0.07 0.25 -0.04 0.36 0.09 0.27 0.11 -0.07 0.14 0.04 0.07 0.32 -0.07 0.25 0.11 1.17 0.41 2.22 0.29 0.99 0.57 2.12 0.65 2.51 0.09 0.54 0.16 0.63 0.25 0.38 0.09 -0.25 0.18 -0.02 0.36 0.75 0.82 3.93 -1.72 8.77 -5.74 10.86 -1.24 0.65 -4.84 1.83 -11.47 3.76 -2.22 0.65 -5.56 1.63 -7.44 2.19 -1.86 0.56 -3.80 1.13 -4.30 1.27 -3.82 1.09 -6.49 1.45 -8.61 1.13z m4.84 -8.95 c1.09 -0.32 5.56 -1.67 9.95 -2.98 4.39 -1.31 8.91 -2.64 10.04 -2.96 1.13 -0.32 2.33 -0.75 2.67 -0.95 0.70 -0.43 1.63 -1.79 1.63 -2.42 0 -0.23 -1.24 -4.45 -2.76 -9.34 -3.33 -10.74 -5.13 -16.55 -6.47 -21.08 -0.59 -1.97 -1.22 -3.69 -1.49 -4.09 -0.52 -0.77 -1.25 -1.24 -3.44 -2.21 -0.84 -0.36 -3.16 -1.45 -5.15 -2.40 l-3.60 -1.76 -0.11 -1.04 c-0.34 -3.08 -0.93 -4.79 -2.10 -5.92 -0.52 -0.50 -0.70 -0.82 -0.70 -1.24 0 -0.52 0.13 -0.65 1.49 -1.47 2.85 -1.76 8.19 -6.06 9.97 -8.07 0.88 -0.99 1.54 -2.19 5.72 -10.31 l0.81 -1.54 -0.41 -0.66 c-0.57 -0.95 -1.51 -1.49 -9.29 -5.41 -3.82 -1.94 -7.40 -3.80 -7.96 -4.16 l-1.04 -0.65 0 -3.14 c0 -1.72 -0.09 -3.46 -0.20 -3.85 -0.16 -0.56 -0.74 -1.27 -2.74 -3.28 -1.38 -1.42 -2.72 -2.67 -2.98 -2.81 -0.25 -0.13 -3.23 -1.31 -6.63 -2.65 -6.79 -2.65 -9.09 -3.68 -17.05 -7.67 -2.96 -1.47 -5.40 -2.67 -5.45 -2.67 -0.04 0 -0.04 1.42 0.04 3.17 l0.11 3.16 -1.06 -0.09 c-0.59 -0.05 -2.06 -0.43 -3.28 -0.84 -1.97 -0.65 -2.28 -0.72 -2.98 -0.56 -1.27 0.29 -12.08 2.10 -15.42 2.60 -3.50 0.52 -3.76 0.65 -3.12 1.56 0.70 0.97 5.83 7.10 10.47 12.50 l1.52 1.77 1.31 0.16 1.29 0.14 0.05 0.63 c0.04 0.54 -0.18 1.02 -1.42 2.96 -2.26 3.62 -2.55 3.94 -4.09 4.84 -0.75 0.43 -2.46 1.56 -3.78 2.49 -3.19 2.24 -5.47 3.59 -9.61 5.67 -5.06 2.55 -10.04 4.12 -23.47 7.44 -14.65 3.62 -23.54 5.47 -26.35 5.47 -2.56 0 -3.21 -0.25 -15.15 -6.10 -12.46 -6.10 -13.70 -6.67 -13.43 -6.29 0.47 0.65 6.69 7.28 9.66 10.29 4.11 4.20 5.58 5.36 9.82 7.73 l1.83 1.02 0 0.70 c0 0.56 -0.34 1.31 -1.49 3.39 -1.24 2.19 -1.58 3.01 -2.01 4.61 -0.59 2.29 -2.71 9.05 -3.44 11.06 -0.50 1.33 -0.57 1.43 -1.95 2.47 -0.77 0.61 -2.81 2.03 -4.52 3.16 -1.70 1.13 -3.32 2.33 -3.57 2.65 -0.41 0.52 -6.13 14.22 -7.78 18.63 l-0.54 1.43 1.24 1.25 c0.66 0.70 1.58 1.69 2.01 2.17 1.34 1.52 0.99 1.52 5.07 0.20 2.51 -0.81 3.75 -1.29 4.02 -1.58 0.38 -0.39 0.38 -0.45 0.11 -1.58 -0.14 -0.66 -0.23 -1.70 -0.20 -2.44 0.07 -1.42 0.66 -2.78 3.48 -8 l1.52 -2.81 1.02 -0.38 c2.33 -0.88 7.39 -2.33 8.07 -2.33 l0.75 0 0 0.74 c0 0.41 -0.47 2.12 -1.09 3.98 -1.04 3.14 -2.13 7.08 -2.78 10.06 -0.36 1.67 -0.20 2.44 0.70 3.46 0.93 1.06 1.34 1.15 4.20 0.95 4.05 -0.29 4.61 -0.45 5.49 -1.63 0.34 -0.47 0.34 -0.50 0.04 -1.43 -0.18 -0.54 -0.56 -1.43 -0.82 -1.99 -0.84 -1.69 -0.77 -2.10 1.15 -6.19 l1.67 -3.55 1.17 -0.57 c0.63 -0.32 3.37 -1.52 6.06 -2.65 4.25 -1.77 5.04 -2.17 5.72 -2.81 0.77 -0.77 2.99 -3.71 5.92 -7.85 1.77 -2.49 1.88 -2.56 3.41 -2.08 4.70 1.49 11.69 3.80 15.18 5.04 l4.30 1.51 3.85 0.20 c7.44 0.36 25.21 1.27 27.25 1.40 l2.06 0.13 0.05 0.72 c0.04 0.65 -0.05 0.84 -1.04 1.95 -0.59 0.68 -1.08 1.31 -1.08 1.36 0 0.07 0.68 0.93 1.51 1.92 1.27 1.54 1.51 1.92 1.63 2.67 0.29 1.97 0.38 1.99 4.55 1.24 1.90 -0.34 3.59 -0.63 3.78 -0.63 0.18 0 0.57 -0.22 0.88 -0.47 0.54 -0.45 4.32 -5.74 4.70 -6.58 0.18 -0.39 0.11 -0.63 -0.57 -1.86 -0.41 -0.77 -0.95 -1.69 -1.18 -2.03 -0.59 -0.90 -0.57 -2.12 0.05 -2.71 0.74 -0.66 1.13 -1.76 1.25 -3.42 0.22 -2.65 -0.34 -4.66 -1.58 -5.81 -2.22 -2.08 -6.04 -3.68 -11.56 -4.84 -0.74 -0.14 -0.59 -0.90 1.22 -6.45 0.95 -2.94 1.33 -3.60 3.87 -7.03 2.10 -2.83 2.85 -3.60 4 -4.12 1.83 -0.81 3.50 -1.13 6.51 -1.24 l2.81 -0.11 0 0.65 c0 0.56 -0.14 0.79 -0.91 1.51 -0.50 0.47 -1.02 1.08 -1.17 1.34 -1.08 2.06 0.23 5.74 3.16 8.80 1.70 1.79 4.70 4.05 7.03 5.31 2.37 1.24 2.53 0.63 -2.42 9.20 -0.95 1.65 -1.77 3.21 -1.85 3.44 -0.07 0.30 0.20 1.38 0.79 3.19 0.50 1.51 1.56 4.84 2.37 7.40 0.81 2.56 2.10 6.69 2.87 9.14 2.22 7.05 3.33 10.63 3.85 12.37 0.41 1.38 0.59 1.72 1.27 2.37 0.72 0.70 1.69 1.17 2.13 1.06 0.11 -0.04 1.08 -0.32 2.15 -0.63z m-76.26 -80.98 c0.16 -0.20 0.18 -0.36 0.04 -0.57 -0.16 -0.29 -1.15 -0.30 -11.24 -0.36 -7.42 -0.02 -11.17 0.02 -11.42 0.14 -0.43 0.23 -0.45 0.65 -0.02 0.88 0.20 0.13 4.18 0.18 11.35 0.20 9.88 0 11.08 -0.04 11.29 -0.29z m-14.52 -7.96 l0.43 -0.36 -0.43 -0.36 c-0.41 -0.36 -0.68 -0.36 -11.29 -0.36 -9.56 0 -10.92 0.04 -11.28 0.29 -0.47 0.32 -0.50 0.70 -0.07 0.95 0.20 0.13 4.16 0.18 11.26 0.20 10.70 0 10.97 0 11.38 -0.36z m23.79 0.07 c0.48 -0.34 0.50 -0.72 0.05 -0.97 -0.23 -0.11 -3.23 -0.18 -8.50 -0.18 -7.89 0 -8.18 0.02 -8.57 0.36 l-0.43 0.36 0.43 0.36 c0.39 0.34 0.68 0.36 8.52 0.36 7.03 0 8.14 -0.04 8.50 -0.29z m2.98 -7.96 c0.52 -0.20 0.63 -0.79 0.18 -0.97 -0.16 -0.05 -6.87 -0.11 -14.93 -0.11 -11.15 0 -14.70 0.05 -14.86 0.22 -0.34 0.34 -0.25 0.68 0.20 0.86 0.56 0.22 28.83 0.23 29.42 0z"/>
  <path d="M29.38 126.30 c-0.32 -0.70 -0.79 -1.36 -1.17 -1.63 -0.54 -0.43 -0.61 -0.56 -0.61 -1.33 l0 -0.88 2.92 -3.01 c1.61 -1.65 4.28 -4.46 5.95 -6.24 3.19 -3.42 3.64 -3.73 4.41 -3.03 0.63 0.57 0.41 1.20 -1.72 5.18 -1.15 2.10 -2.28 4.34 -2.55 4.97 -0.43 1.08 -0.45 1.24 -0.34 3.28 l0.13 2.17 -1.13 0.39 c-1.90 0.65 -4.28 1.29 -4.82 1.29 -0.47 0 -0.57 -0.13 -1.08 -1.17z"/>
  <path d="M141.65 113.27 c-0.07 -0.23 -0.29 -0.84 -0.47 -1.34 -0.20 -0.52 -0.39 -0.95 -0.45 -0.95 -0.05 0 -0.34 0.25 -0.63 0.54 -0.38 0.39 -0.68 0.54 -1.11 0.54 -0.74 0 -0.95 -0.45 -0.95 -1.86 0 -0.81 0.05 -0.97 0.41 -1.13 0.22 -0.11 0.66 -0.41 1 -0.68 0.52 -0.45 0.57 -0.57 0.47 -1.15 -0.22 -1.11 -1 -3.42 -1.17 -3.42 -0.22 0 -3.35 -1.92 -7.71 -4.70 -5.92 -3.76 -5.56 -3.50 -5.56 -4.28 l0 -0.70 3.82 0 c3.89 0 7.71 0.29 10.70 0.81 2.76 0.47 2.76 0.47 3.32 1.85 0.66 1.67 1.36 2.87 2.89 4.98 0.72 0.99 1.70 2.47 2.21 3.30 1.31 2.13 1.27 2.42 -0.41 4.93 -1.97 2.92 -2.33 3.28 -3.50 3.50 -0.52 0.11 -1.36 0.18 -1.85 0.18 -0.74 0 -0.90 -0.05 -1.02 -0.39z"/>
  <path d="M57.37 107.75 c0 -0.56 0.13 -0.90 0.47 -1.33 0.95 -1.13 7.74 -8.50 9.56 -10.36 2.17 -2.24 2.40 -2.31 4.07 -1.38 1.63 0.93 1.60 0.99 -3.16 5.63 -6.11 5.99 -8.55 7.94 -10.11 8.10 l-0.82 0.11 0 -0.77z"/>
  <path d="M172.36 93.22 c-0.22 -0.07 -0.56 -0.38 -0.79 -0.66 -0.57 -0.72 -0.45 -2.37 0.22 -3.05 0.91 -0.90 3.12 -0.72 3.64 0.30 0.34 0.66 0.34 2.03 0 2.67 -0.39 0.79 -2.01 1.17 -3.07 0.74z"/>
  <path d="M122.98 91.45 c0 -0.29 0.36 -1.69 0.81 -3.10 0.45 -1.42 1.06 -3.48 1.34 -4.61 0.30 -1.13 0.65 -2.12 0.77 -2.21 0.22 -0.14 6.83 -2.76 9.14 -3.64 0.66 -0.25 1.52 -0.45 1.92 -0.45 0.66 0 0.72 0.04 0.72 0.48 0 0.84 -1.95 6.38 -2.71 7.67 -0.39 0.68 -1.42 2.19 -2.26 3.35 -1.43 1.95 -1.60 2.12 -2.13 2.12 -0.32 0 -0.65 -0.07 -0.70 -0.18 -0.05 -0.09 0.02 -0.18 0.18 -0.18 0.16 0 0.25 -0.07 0.18 -0.16 -0.05 -0.11 0.32 -0.93 0.82 -1.85 2.22 -3.96 4.25 -7.87 4.05 -7.80 -0.13 0.05 -1.67 0.74 -3.44 1.52 -1.77 0.77 -3.32 1.45 -3.44 1.49 -0.13 0.04 -1 1.61 -1.94 3.48 -0.95 1.88 -1.86 3.57 -2.03 3.75 -0.29 0.32 -0.29 0.34 0.02 0.23 0.22 -0.09 0.30 -0.02 0.30 0.23 0 0.30 -0.13 0.36 -0.81 0.36 -0.77 0 -0.81 -0.02 -0.81 -0.52z"/>
  <path d="M164.04 84.74 c-5.13 -2.94 -8.07 -5.79 -8.96 -8.71 -0.43 -1.36 -0.48 -3.68 -0.11 -4.59 0.34 -0.81 1.49 -1.52 2.44 -1.52 0.63 0 0.72 0.05 0.72 0.41 0 0.63 0.30 0.82 0.95 0.65 0.32 -0.09 0.88 -0.16 1.27 -0.16 l0.70 0 -0.11 0.88 c-0.09 0.70 -0.04 0.93 0.22 1.17 0.29 0.25 0.36 0.25 0.97 -0.07 0.86 -0.47 1.74 -0.45 3.17 0.07 1.11 0.41 1.17 0.45 1.22 1.06 0.04 0.41 -0.11 0.95 -0.41 1.56 -0.27 0.52 -0.43 0.99 -0.36 1.04 0.05 0.05 0.61 -0.39 1.22 -1 0.91 -0.90 1.24 -1.11 1.70 -1.11 0.30 0 0.57 0.07 0.57 0.16 0 0.09 0.07 0.38 0.18 0.63 l0.18 0.47 0.93 -0.36 c1.52 -0.57 1.94 -0.50 2.69 0.50 0.34 0.47 0.75 1.04 0.91 1.29 0.36 0.56 0.88 3.35 0.81 4.25 -0.05 0.59 -0.13 0.68 -0.56 0.74 -0.29 0.04 -1.02 -0.16 -1.65 -0.41 -0.86 -0.38 -1.29 -0.47 -1.77 -0.38 -0.93 0.18 -2.22 1.33 -3.24 2.85 -0.86 1.33 -0.91 1.36 -1.61 1.38 -0.52 0 -1.08 -0.22 -2.06 -0.77z"/>
  <path d="M168.70 71.59 c0 -0.39 0.20 -1 0.43 -1.43 l0.45 -0.75 -1.43 0.70 c-0.93 0.48 -1.65 0.72 -2.13 0.72 -0.72 0 -0.72 0 -0.72 -0.66 0.02 -0.81 0.47 -1.36 2.67 -3.35 2.03 -1.81 2.42 -2.40 0.90 -1.34 -1.43 1 -4.37 2.74 -5.61 3.32 -0.50 0.23 -1.25 0.43 -1.67 0.43 l-0.77 0 0 -0.93 c0 -0.75 0.14 -1.20 0.82 -2.46 0.74 -1.36 0.84 -1.67 0.81 -2.53 -0.04 -0.82 0.07 -1.18 0.61 -2.21 l0.65 -1.22 -1.13 0.57 c-0.63 0.30 -1.56 0.84 -2.10 1.18 -1.15 0.74 -2.22 0.79 -2.31 0.11 -0.04 -0.30 0.05 -0.47 0.38 -0.57 0.39 -0.14 2.35 -2.17 2.22 -2.29 -0.13 -0.13 -2.42 0.70 -2.89 1.04 -0.29 0.22 -0.47 0.27 -0.39 0.14 0.07 -0.14 0 -0.09 -0.14 0.09 -0.38 0.47 -0.54 0.27 -0.39 -0.48 0.14 -0.74 1.94 -3.01 3.71 -4.70 1.40 -1.33 4.95 -4.07 6.62 -5.11 l0.99 -0.63 4.30 0.02 c3.53 0.02 4.66 0.09 6.36 0.41 3.10 0.56 3.12 0.57 3.19 1.25 0.04 0.34 -0.11 0.99 -0.30 1.47 -0.45 1 -0.47 1.61 -0.13 2.28 0.14 0.27 1.11 1.77 2.15 3.33 1.74 2.62 1.90 2.92 1.90 3.69 0 0.81 -0.05 0.90 -1.29 2.12 -2.03 1.97 -4.80 4.16 -7.94 6.26 -2.13 1.43 -2.99 1.85 -3.78 1.85 l-0.66 0 0.09 -0.81 0.11 -0.81 -1.08 0.99 c-0.91 0.84 -1.17 0.99 -1.77 0.99 -0.68 0 -0.70 0 -0.70 -0.66z"/>
  <path d="M148.53 59.18 c-0.20 -0.34 -7.35 -5.99 -7.67 -6.08 -0.25 -0.07 -0.30 -0.23 -0.27 -0.74 0.05 -0.65 0.05 -0.65 1.22 -0.86 1.88 -0.36 6.27 -0.47 10.04 -0.25 1.92 0.11 4.61 0.25 5.97 0.32 l2.46 0.11 0 0.57 c0 0.41 -0.20 0.81 -0.74 1.42 -0.39 0.45 -0.81 0.82 -0.90 0.82 -0.11 0 -1.65 0.88 -3.44 1.95 -1.79 1.06 -3.68 2.15 -4.20 2.42 -0.93 0.47 -2.26 0.63 -2.47 0.30z"/>
  <path d="M185.52 54.30 l-1.40 -0.54 0 -0.88 c0 -0.61 0.07 -0.90 0.29 -0.97 0.86 -0.32 3.82 0.14 4.88 0.79 0.48 0.30 0.57 0.47 0.57 1.04 0 0.97 -0.23 1.11 -1.69 1.11 -0.99 -0.02 -1.60 -0.14 -2.65 -0.56z"/>
  <path d="M159.81 45.32 c-0.20 -0.39 -0.27 -0.88 -0.22 -1.69 0.09 -1.54 0.41 -1.86 1.77 -1.86 0.91 0 1.09 0.05 1.34 0.45 0.56 0.86 0.54 2.81 -0.04 3.41 -0.20 0.18 -0.63 0.27 -1.42 0.27 -1.11 0 -1.17 -0.02 -1.45 -0.57z"/>
  <path d="M165.35 41.45 c-0.70 -0.56 -1.74 -1.29 -2.31 -1.63 -1.06 -0.65 -2.96 -1.17 -3.57 -0.97 -0.20 0.05 -1.08 0.54 -1.95 1.06 -1.86 1.13 -2.47 1.33 -4.09 1.33 l-1.22 0 0 -0.61 c0 -0.50 0.25 -0.91 1.36 -2.26 0.99 -1.17 1.52 -1.67 1.88 -1.74 0.29 -0.05 0.52 -0.16 0.52 -0.23 0 -0.16 -0.45 -0.36 -0.84 -0.36 -0.45 0 -0.93 -0.75 -0.95 -1.47 l0 -0.65 1.27 -0.22 c0.70 -0.13 1.83 -0.18 2.51 -0.14 1.18 0.07 1.24 0.05 1.24 -0.34 0 -0.36 0.09 -0.41 0.63 -0.41 0.50 0 0.63 -0.07 0.63 -0.36 0 -0.30 0.13 -0.36 0.86 -0.36 0.68 0 1.02 0.13 1.74 0.63 0.50 0.34 1.47 1.02 2.15 1.51 1.83 1.25 1.77 1.17 1.65 3.33 -0.09 1.58 -0.05 1.88 0.16 1.88 0.20 0 0.25 0.29 0.27 1.31 0.02 0.82 0.07 1.13 0.14 0.84 0.11 -0.39 0.14 -0.41 0.25 -0.13 0.29 0.74 0.16 1.02 -0.45 1 -0.45 0 -0.93 -0.27 -1.88 -1.02z"/>
 </g>
 <g fill="#c1c1c1">
  <path d="M169.69 143.44 c-3.28 -0.81 -5.83 -2.76 -7.15 -5.49 -0.34 -0.68 -1.43 -3.84 -2.44 -6.99 -3.82 -11.99 -4.23 -13.18 -4.57 -13.18 -0.13 0 -0.77 0.77 -1.45 1.72 -2.92 4.14 -4.55 4.97 -12.17 6.26 -5.31 0.90 -7.89 0.41 -10.27 -1.88 -1.24 -1.20 -1.85 -2.15 -3.24 -5.07 -0.68 -1.40 -1.42 -2.72 -1.67 -2.96 -0.59 -0.54 -1.65 -0.68 -6.60 -0.93 -2.22 -0.11 -4.43 -0.22 -4.93 -0.27 -0.48 -0.05 -2.90 -0.16 -5.38 -0.27 -4.98 -0.22 -7.94 -0.45 -9.41 -0.74 -1.18 -0.25 -6.81 -2.24 -11.13 -3.94 -1.76 -0.70 -3.33 -1.24 -3.51 -1.20 -0.16 0.04 -0.56 0.39 -0.86 0.81 -0.29 0.39 -1.11 1.52 -1.83 2.49 -1.54 2.13 -3.73 4.41 -4.77 4.95 -1.49 0.79 -3.48 1.61 -5.99 2.49 -3.53 1.22 -4.46 1.76 -4.57 2.65 l-0.05 0.47 -0.41 -0.63 c-0.57 -0.90 -0.50 -1.25 0.38 -1.90 0.84 -0.61 1.15 -0.75 5.15 -2.17 1.52 -0.54 3.35 -1.27 4.03 -1.63 1.65 -0.86 3.69 -2.96 5.84 -5.99 0.90 -1.25 1.81 -2.42 2.01 -2.56 0.61 -0.43 1.77 -0.32 3.30 0.29 0.77 0.30 1.81 0.70 2.29 0.88 0.50 0.18 2.28 0.84 3.94 1.49 4.71 1.79 6.78 2.40 8.78 2.62 0.99 0.11 5.06 0.36 9.05 0.56 14.50 0.72 14.77 0.75 15.53 1.45 0.23 0.23 0.93 1.42 1.52 2.65 1.99 4.14 3.21 5.74 5.13 6.70 1.99 1.02 3.39 1.09 7.42 0.39 6.01 -1.06 7.67 -1.70 9.63 -3.75 0.68 -0.74 1.67 -1.94 2.15 -2.67 1.25 -1.85 1.38 -1.95 2.26 -1.88 l0.74 0.05 0.68 1.97 c0.38 1.09 1.77 5.40 3.12 9.59 2.53 7.94 3.23 9.68 4.61 11.24 1.54 1.76 4.57 3.26 6.87 3.42 1.94 0.13 2.87 -0.11 13.50 -3.28 1.83 -0.56 5.50 -1.63 8.18 -2.42 7.19 -2.12 8.26 -2.60 10.49 -4.82 2.28 -2.28 3.62 -5.58 3.55 -8.64 -0.02 -0.68 0 -1.29 0.05 -1.34 0.05 -0.04 0.23 0.61 0.41 1.45 0.29 1.33 0.30 1.76 0.13 3.05 -0.41 3.17 -1.97 5.83 -4.55 7.76 -1.56 1.18 -3.26 1.92 -6.69 2.90 -1.77 0.50 -3.94 1.15 -4.84 1.42 -0.88 0.29 -2.06 0.63 -2.60 0.79 -0.54 0.16 -2.24 0.66 -3.76 1.13 -11.46 3.46 -12.84 3.71 -15.87 2.96z"/>
  <path d="M27.25 139.06 c-1.52 -0.43 -2.90 -1.38 -4.73 -3.24 -4.82 -4.95 -6.40 -8.05 -5.74 -11.38 0.18 -0.90 0.36 -0.65 0.57 0.84 0.30 1.95 1.47 4.34 3.17 6.42 0.38 0.48 1.63 1.83 2.78 2.98 2.22 2.22 3.08 2.80 5 3.23 0.74 0.16 1.24 0.16 2.19 0 1.72 -0.30 5.58 -1.60 8.89 -3.01 3.53 -1.49 3.71 -1.49 5.77 0.07 2.92 2.21 5.23 2.55 11.65 1.72 4.59 -0.59 7.64 -2.60 9.47 -6.24 1.11 -2.21 1.34 -3.07 1.42 -5.22 0.04 -1.08 0.07 -2.01 0.09 -2.06 0.05 -0.43 0.54 1.60 0.63 2.69 0.36 4.32 -2.64 9.25 -6.65 10.92 -2.28 0.95 -5.81 1.45 -10.11 1.45 -3.71 0 -5.23 -0.47 -7.53 -2.31 -0.63 -0.50 -1.24 -0.91 -1.38 -0.91 -0.13 0 -0.82 0.29 -1.54 0.61 -1.63 0.79 -4 1.69 -7.14 2.74 -2.08 0.68 -2.67 0.81 -4.21 0.88 -1.13 0.05 -2.10 -0.02 -2.60 -0.16z"/>
  <path d="M205.97 117.19 c-0.05 -0.25 -0.13 -0.48 -0.16 -0.52 -0.02 -0.04 -0.05 -0.18 -0.09 -0.32 -0.04 -0.14 -0.22 -0.74 -0.43 -1.29 -0.20 -0.57 -0.29 -1.08 -0.22 -1.11 0.16 -0.11 1.17 3.10 1.02 3.26 -0.05 0.05 -0.13 0.04 -0.13 -0.02z"/>
  <path d="M138.62 112.87 c-0.22 -0.65 -0.39 -1.36 -0.39 -1.61 0 -0.57 0.45 -0.63 0.59 -0.07 0.11 0.36 0.18 0.32 1.13 -0.57 l1.04 -0.99 0.32 0.72 c0.18 0.39 0.47 1.15 0.63 1.69 0.20 0.61 0.43 1 0.65 1.06 0.18 0.04 0.30 0.22 0.27 0.38 -0.07 0.32 -1.04 0.52 -2.74 0.54 l-1.08 0.02 -0.41 -1.15z"/>
  <path d="M204.54 112.50 c-0.02 -0.05 -0.04 -0.16 -0.05 -0.25 0 -0.09 -0.07 -0.23 -0.14 -0.30 -0.09 -0.07 -0.14 -0.34 -0.14 -0.59 0 -0.65 0.32 -0.25 0.45 0.57 0.07 0.36 0.07 0.66 0.02 0.66 -0.05 0 -0.13 -0.04 -0.13 -0.09z"/>
  <path d="M204 110.70 c-0.07 -0.23 -0.11 -0.38 -0.22 -0.63 -0.36 -0.86 -1.49 -5.04 -1.40 -5.11 0.07 -0.04 0.27 0.36 0.43 0.86 0.16 0.52 0.45 1.45 0.66 2.10 0.20 0.65 0.41 1.33 0.45 1.52 0.25 1.08 0.29 1.34 0.20 1.34 -0.05 0 -0.13 -0.04 -0.13 -0.09z"/>
  <path d="M201.15 101.40 c-0.14 -0.38 -0.52 -1.72 -0.61 -2.17 -0.04 -0.09 -0.30 -1 -0.63 -2.03 -0.32 -1.02 -0.56 -1.99 -0.52 -2.15 0.04 -0.16 0.25 0.30 0.48 1.04 0.22 0.74 0.66 2.15 0.97 3.14 0.30 0.99 0.61 1.97 0.68 2.21 0.18 0.54 -0.16 0.50 -0.38 -0.04z"/>
  <path d="M198.03 90.93 c-0.05 -0.09 -0.13 -0.38 -0.18 -0.65 -0.07 -0.38 -0.04 -0.45 0.13 -0.30 0.13 0.09 0.23 0.38 0.27 0.63 0.04 0.47 -0.05 0.59 -0.22 0.32z"/>
  <path d="M38.90 81.03 c-0.45 -0.45 -1.83 -1.79 -3.05 -2.98 -5.72 -5.56 -14.68 -15.04 -15.90 -16.82 -1.29 -1.86 -1.70 -3.68 -1.31 -5.58 l0.23 -1.08 0.23 1.43 c0.38 2.56 1.33 4.09 4.68 7.64 1.25 1.34 3.46 3.68 4.88 5.20 3.03 3.23 8.28 8.50 10.31 10.33 l1.40 1.27 -0.22 0.65 c-0.11 0.36 -0.27 0.66 -0.32 0.70 -0.07 0.02 -0.48 -0.32 -0.93 -0.77z"/>
  <path d="M185.25 78.20 c-0.11 -0.07 -0.25 -0.32 -0.32 -0.57 -0.13 -0.50 0.43 -1.09 3.50 -3.76 2.01 -1.76 2.46 -2.26 3.89 -4.39 1.15 -1.70 4.63 -8.26 6.02 -11.33 0.84 -1.81 1.36 -3.75 1.40 -5.04 l0 -0.66 0.29 0.72 c0.20 0.52 0.23 1.13 0.18 2.24 -0.09 1.42 -0.23 1.95 -1.18 4.37 -0.75 1.88 -4.77 9.41 -5.99 11.17 -0.95 1.40 -3.08 3.59 -5.41 5.52 -0.79 0.66 -1.51 1.36 -1.60 1.54 -0.18 0.36 -0.41 0.43 -0.77 0.20z"/>
  <path d="M142 65.85 c-1.15 -4.59 -3.07 -12.91 -3.07 -13.30 0 -0.43 0.09 -0.54 0.56 -0.63 0.77 -0.14 1.97 -0.11 2.40 0.07 0.32 0.14 0.32 0.16 -0.11 0.16 -0.65 0.02 -0.77 0.22 -0.27 0.47 0.45 0.23 2.72 2.03 5.92 4.64 l1.95 1.60 0.97 -0.48 c0.52 -0.25 2.44 -1.34 4.25 -2.44 1.83 -1.08 3.37 -1.97 3.44 -1.97 0.07 0 0.29 -0.13 0.47 -0.30 0.30 -0.27 0.32 -0.27 0.32 0.25 0 0.38 -0.54 1.34 -1.92 3.39 -1.04 1.56 -1.99 2.90 -2.10 2.98 -0.11 0.07 -0.47 0.14 -0.81 0.14 -0.82 0 -3.69 0.99 -4.77 1.65 -1.09 0.66 -2.83 2.01 -4.41 3.41 -1.02 0.91 -1.27 1.04 -1.92 1.04 -0.70 0 -0.75 -0.04 -0.91 -0.66z"/>
  <path d="M68.34 58.12 c-0.30 -0.59 -0.68 -1.56 -0.82 -2.17 -0.14 -0.61 -0.34 -1.22 -0.45 -1.34 -0.14 -0.16 -1.09 -0.27 -3.39 -0.34 -4.64 -0.16 -6.44 -0.70 -8.48 -2.58 -1.86 -1.74 -2.76 -3.73 -2.74 -6.06 0.02 -2.49 0.30 -2.81 0.61 -0.72 0.16 1.09 0.39 1.92 0.82 2.76 1.33 2.62 2.81 3.94 5.36 4.79 1.27 0.43 1.77 0.48 4.66 0.56 3.80 0.09 4.03 0.13 4.03 0.59 0 1.24 1.61 4.27 2.62 4.93 0.47 0.30 0.48 0.34 0.16 0.47 -0.20 0.07 -0.68 0.14 -1.09 0.14 -0.72 0.02 -0.75 0 -1.29 -1.02z"/>
  <path d="M166.42 37.25 c-0.09 -0.72 -0.14 -1.34 -0.11 -1.38 0.02 -0.04 0.32 0 0.68 0.05 0.50 0.11 0.63 0.20 0.63 0.56 0 0.23 -0.07 0.48 -0.18 0.54 -0.09 0.05 -0.18 -0.02 -0.18 -0.18 0 -0.16 -0.07 -0.23 -0.18 -0.18 -0.09 0.05 -0.18 0.47 -0.18 0.90 0 1.29 -0.30 1.09 -0.48 -0.30z"/>
  <path d="M181.14 37.76 c-0.32 -0.23 -0.36 -0.43 -0.30 -1.74 0.02 -0.81 0.09 -1.51 0.13 -1.54 0.11 -0.11 0.45 1.54 0.52 2.60 0.04 0.50 0.05 0.93 0.05 0.93 -0.02 0 -0.20 -0.11 -0.39 -0.25z"/>
  <path d="M123.29 36.11 c-0.57 -0.74 -2.38 -2.92 -4 -4.82 -2.60 -3.07 -2.94 -3.55 -2.94 -4.12 0 -0.59 0.04 -0.63 0.57 -0.63 0.30 0 2.99 0.48 5.95 1.06 2.98 0.59 7.51 1.40 10.11 1.81 4.20 0.68 4.70 0.81 4.70 1.09 0 0.27 -0.14 0.34 -0.66 0.36 l-0.68 0.02 0.72 0.23 c0.39 0.14 0.61 0.25 0.47 0.25 -0.38 0.02 0.34 0.54 0.75 0.56 0.18 0 0.30 0.14 0.30 0.32 0 0.27 -1.22 0.79 -6.54 2.78 -3.60 1.34 -6.81 2.46 -7.14 2.46 -0.50 0 -0.70 -0.16 -1.61 -1.36z"/>
  <path d="M155.38 36.61 c-0.34 -0.36 -0.48 -0.68 -0.48 -1.13 0.02 -0.56 0.04 -0.59 0.27 -0.27 0.13 0.18 0.32 0.27 0.43 0.22 0.22 -0.14 1.63 0.72 1.63 0.97 0 0.11 -0.16 0.18 -0.36 0.18 -0.20 0 -0.36 0.13 -0.36 0.27 0 0.43 -0.61 0.30 -1.13 -0.23z"/>
  <path d="M102.92 26.05 c0.09 -0.68 0.14 -1.34 0.14 -1.47 0.04 -0.66 0.38 0.18 0.54 1.24 0.18 1.33 0.14 1.43 -0.41 1.43 -0.38 0 -0.39 -0.04 -0.27 -1.20z"/>
 </g>
 <g fill="#9c9c9b">
  <path d="M170.90 143.04 c-2.10 -0.27 -5.04 -1.74 -6.45 -3.23 -0.97 -1.04 -1.63 -2.40 -2.46 -5.04 -2.51 -8.10 -5.67 -17.52 -5.95 -17.80 -0.52 -0.50 -0.74 -0.34 -2.08 1.65 -0.48 0.74 -1.47 1.94 -2.15 2.67 -1.88 1.97 -3.41 2.60 -8.57 3.55 -5.49 1 -7.12 0.99 -9.45 -0.16 -1.92 -0.95 -2.76 -1.97 -4.70 -5.79 -0.90 -1.76 -1.83 -3.37 -2.06 -3.60 -0.75 -0.70 -1.02 -0.74 -15.53 -1.45 -8.89 -0.45 -10.38 -0.59 -12.55 -1.29 -1.70 -0.54 -5.92 -2.08 -9.95 -3.66 -3.24 -1.25 -3.23 -1.25 -3.73 -0.91 -0.23 0.16 -1.17 1.33 -2.08 2.60 -2.15 3.03 -4.20 5.13 -5.84 5.99 -0.68 0.36 -2.65 1.15 -4.36 1.76 -3.96 1.40 -4.11 1.47 -4.95 2.13 -0.81 0.65 -1.11 0.70 -1.24 0.18 -0.14 -0.56 0.97 -1.69 2.28 -2.29 0.59 -0.29 2.31 -0.93 3.78 -1.45 4.34 -1.51 5.09 -1.94 7.17 -4.02 1.11 -1.11 2.35 -2.64 3.26 -3.96 0.81 -1.18 1.58 -2.31 1.72 -2.49 0.23 -0.32 0.50 -0.23 6.60 2.04 9.23 3.46 9.14 3.44 14.50 3.68 6.15 0.27 19.33 0.99 19.85 1.09 0.91 0.18 1.56 1.08 3.19 4.32 1.79 3.62 2.81 4.89 4.63 5.79 1.83 0.90 2.94 1.02 6.10 0.65 1.51 -0.16 3.33 -0.47 4.07 -0.66 0.74 -0.18 2.03 -0.50 2.87 -0.70 3.21 -0.77 4.37 -1.65 7.10 -5.47 0.84 -1.18 1.65 -2.26 1.76 -2.38 0.25 -0.25 1.11 2.28 5.15 14.93 1 3.16 2.06 6.22 2.37 6.81 1.08 2.13 3.75 4.18 6.42 4.86 1.67 0.43 3.84 0.38 5.99 -0.18 2.01 -0.50 2.22 -0.57 6.99 -1.97 1.88 -0.56 5.22 -1.54 7.44 -2.19 6.17 -1.81 10.20 -3.12 11.33 -3.68 2.17 -1.09 4.36 -3.44 5.25 -5.65 0.48 -1.20 0.63 -1.36 0.63 -0.68 -0.02 0.75 -0.77 2.81 -1.43 3.84 -0.68 1.06 -2.55 2.85 -3.69 3.51 -1.42 0.82 -3.19 1.47 -8.21 2.94 -2.67 0.79 -6.19 1.83 -7.82 2.31 -11.96 3.57 -12.69 3.73 -15.18 3.41z"/>
  <path d="M26.87 138.17 c-1.60 -0.54 -2.28 -1.04 -4.39 -3.23 -2.64 -2.71 -3.46 -3.76 -4.48 -5.74 -0.47 -0.91 -0.82 -2.40 -0.61 -2.55 0.07 -0.04 0.43 0.50 0.77 1.22 1.11 2.19 5.40 7.21 7.03 8.23 1.79 1.11 4.36 1.36 6.97 0.68 2.35 -0.63 6.36 -2.12 8.66 -3.24 l2.21 -1.06 0.72 0.79 c2.40 2.60 5.20 3.32 11.08 2.81 4.66 -0.39 7.03 -1.13 9.04 -2.76 1.17 -0.97 2.64 -3.05 3.17 -4.55 0.59 -1.61 0.61 -1.63 0.70 -1.08 0.07 0.57 -0.50 2.47 -1.13 3.71 -0.65 1.29 -2.21 3.03 -3.37 3.78 -2.35 1.52 -4.98 2.15 -10.25 2.42 -3.91 0.20 -5.95 -0.30 -8.30 -2.06 -0.75 -0.57 -1.52 -1.09 -1.70 -1.15 -0.22 -0.07 -1.20 0.25 -2.69 0.88 -7.15 3.07 -10.67 3.82 -13.41 2.89z"/>
  <path d="M137.70 108.43 c-0.11 -1.02 -0.32 -2.24 -0.47 -2.72 -0.14 -0.48 -0.27 -1.25 -0.27 -1.72 0 -0.79 0.05 -0.88 0.54 -1.08 0.48 -0.20 0.65 -0.18 1.27 0.11 0.65 0.30 0.74 0.45 1.13 1.69 0.23 0.74 0.52 1.81 0.65 2.38 0.22 1.04 0.20 1.08 -0.27 1.56 -0.25 0.27 -0.75 0.65 -1.09 0.82 -0.34 0.18 -0.61 0.43 -0.61 0.56 0 0.13 -0.14 0.23 -0.34 0.23 -0.29 0 -0.36 -0.23 -0.54 -1.83z"/>
  <path d="M38.26 79.58 c-2.13 -1.95 -6.94 -6.78 -10.13 -10.20 -1.42 -1.52 -3.35 -3.59 -4.30 -4.57 -3.39 -3.55 -4.18 -4.66 -4.48 -6.27 -0.11 -0.65 -0.11 -0.68 0.13 -0.36 0.14 0.20 0.56 0.77 0.93 1.29 0.90 1.24 9.61 10.51 13.95 14.83 1.88 1.88 4.07 3.94 4.86 4.59 l1.45 1.15 -0.25 0.50 c-0.14 0.27 -0.32 0.50 -0.39 0.50 -0.09 0 -0.86 -0.66 -1.76 -1.45z"/>
  <path d="M184.98 77.72 c-0.34 -0.77 0.18 -1.51 2.42 -3.37 2.69 -2.26 4.57 -4.28 5.67 -6.10 1.65 -2.74 5.16 -9.66 6.20 -12.23 0.13 -0.30 0.16 -0.32 0.22 -0.05 0.14 0.61 -0.91 3.19 -3.21 7.73 -2.22 4.45 -3.80 7.10 -5.06 8.57 -0.30 0.36 -1.33 1.31 -2.26 2.13 -2.37 2.06 -3.76 3.44 -3.66 3.62 0.05 0.07 0.05 0.14 -0.02 0.14 -0.05 0 -0.20 -0.20 -0.30 -0.45z"/>
  <path d="M156.60 68.30 c-0.18 -0.59 -1.51 -1.58 -2.67 -1.99 -1.52 -0.54 -5.58 -0.68 -8.16 -0.27 -1.99 0.30 -2.89 0.36 -2.87 0.16 0.02 -0.30 4.32 -3.75 5.74 -4.63 1.17 -0.72 3.98 -1.70 4.89 -1.70 0.41 0 0.75 -0.13 1 -0.39 0.29 -0.30 0.36 -0.34 0.36 -0.11 0 0.16 0.57 0.79 1.29 1.40 1.83 1.58 1.99 1.83 1.90 2.76 -0.09 0.70 -0.05 0.81 0.39 1.08 0.29 0.16 0.75 0.29 1.06 0.29 0.52 0 0.56 0.05 0.56 0.63 0 0.59 -0.04 0.63 -0.56 0.63 -0.48 0 -0.54 -0.04 -0.34 -0.27 0.18 -0.22 0.16 -0.27 -0.13 -0.27 -0.57 0 -1.94 1.74 -1.74 2.22 0.09 0.23 0.16 0.25 0.36 0.09 0.20 -0.16 0.25 -0.11 0.25 0.27 0 0.41 -0.07 0.47 -0.61 0.47 -0.47 0 -0.65 -0.09 -0.74 -0.36z"/>
  <path d="M69.31 58.39 c-0.57 -0.75 -1.17 -2.08 -1.18 -2.60 0 -0.54 0.27 -0.36 0.66 0.45 0.16 0.36 0.74 1.11 1.27 1.69 l0.97 1.06 -0.63 0 c-0.52 0 -0.74 -0.13 -1.09 -0.59z"/>
  <path d="M67.52 53.84 c-0.07 -0.09 -1.76 -0.20 -3.75 -0.27 -3.01 -0.09 -3.84 -0.18 -4.88 -0.50 -1.51 -0.48 -3.08 -1.40 -3.82 -2.24 -1.09 -1.22 -2.10 -3.42 -1.97 -4.27 0.04 -0.29 0.20 -0.09 0.63 0.81 0.65 1.38 1.92 2.83 3.07 3.50 1.69 0.99 2.69 1.18 6.94 1.29 l3.93 0.11 0.14 0.70 c0.14 0.68 0 1.15 -0.29 0.88z"/>
 </g>
 <g fill="#b4e730">
  <path d="M171.35 132.47 c-0.18 -0.11 -0.54 -0.91 -0.88 -2.01 -0.50 -1.69 -3.93 -12.59 -6.47 -20.65 -2.67 -8.44 -3.19 -10.29 -3.19 -11.24 0 -1.04 0.05 -1.15 4.14 -8.07 l1.79 -3.01 0.68 0 c0.38 0 0.79 0.11 0.91 0.25 0.11 0.14 0.61 0.52 1.09 0.84 l0.88 0.56 -0.04 1.29 c-0.07 1.61 0.34 2.47 1.54 3.30 0.97 0.65 1.94 0.75 2.76 0.32 1.25 -0.66 2.28 -2.37 1.99 -3.37 -0.39 -1.47 -1.95 -2.83 -3.24 -2.83 -0.38 0 -0.99 0.13 -1.34 0.27 -0.70 0.29 -1.95 0.36 -2.06 0.11 -0.02 -0.09 -0.48 -0.48 -0.99 -0.90 -0.77 -0.61 -0.95 -0.84 -0.95 -1.29 0 -0.75 0.59 -1.83 1.60 -2.87 0.81 -0.82 0.90 -0.88 1.79 -0.88 1.08 0 1.81 0.29 9.07 3.64 5.92 2.72 6.90 3.23 7.30 3.64 0.16 0.20 0.79 1.95 1.40 3.93 0.61 1.97 1.58 5.13 2.15 6.99 0.57 1.88 1.17 3.82 1.31 4.30 0.14 0.50 1.49 4.84 2.98 9.68 1.49 4.82 2.71 9.04 2.71 9.38 0 0.81 -0.43 1.56 -1.02 1.79 -0.52 0.22 -7.33 2.26 -16.82 5.06 -3.05 0.90 -5.79 1.70 -6.08 1.81 -0.68 0.22 -2.62 0.20 -3.01 -0.04z m8.39 -13.82 c0.14 -0.23 0.59 -12.44 0.47 -12.91 -0.09 -0.38 -0.48 -0.43 -0.68 -0.11 -0.22 0.34 -0.57 12.55 -0.39 12.93 0.18 0.36 0.43 0.39 0.61 0.09z m-3.69 -1.76 c0 -0.34 -0.82 -0.68 -2.81 -1.17 l-2.03 -0.48 0 -0.61 c0 -0.48 0.29 -1 1.34 -2.42 0.74 -0.99 1.29 -1.88 1.24 -1.99 -0.05 -0.09 -0.18 -0.11 -0.25 -0.02 -0.32 0.32 -3.76 4.98 -3.76 5.09 0 0.20 0.91 0.52 3.24 1.13 2.40 0.65 3.03 0.74 3.03 0.47z m11.72 -4.89 c0.95 -1.25 1.72 -2.40 1.72 -2.55 0 -0.38 -0.56 -0.63 -3.32 -1.45 -1.52 -0.47 -2.58 -0.70 -2.67 -0.59 -0.38 0.36 0.29 0.61 3.98 1.60 0.72 0.18 0.75 0.23 0.75 0.84 0 0.50 -0.25 1 -1.27 2.40 -0.70 0.97 -1.20 1.85 -1.15 1.95 0.07 0.11 0.14 0.18 0.18 0.14 0.04 -0.04 0.82 -1.09 1.77 -2.35z"/>
  <path d="M132.29 73 c-4.86 -4.95 -7.42 -7.74 -12.67 -13.89 -4.77 -5.58 -4.66 -5.13 -1.83 -7.26 1.67 -1.25 2.08 -1.47 2.65 -1.47 0.84 0 0.50 -0.34 7.39 7.53 5.77 6.60 7.33 8.35 10.43 11.76 1.95 2.15 2.29 2.64 2.29 3.12 0 0.43 -0.34 1.08 -1.36 2.53 -2.04 2.90 -1.67 3.03 -6.90 -2.31z"/>
 </g>
 <g fill="#757575">
  <path d="M71.35 96.33 c0 -0.05 0.13 -0.20 0.30 -0.32 0.25 -0.18 0.14 -0.29 -0.81 -0.82 -0.72 -0.38 -1.11 -0.72 -1.11 -0.91 0 -0.29 0.18 -0.32 1.31 -0.32 0.70 0 1.99 0.13 2.87 0.30 l1.56 0.29 0 0.59 c0 0.84 -0.95 1.29 -2.76 1.31 -0.75 0 -1.36 -0.04 -1.36 -0.11z"/>
  <path d="M159.38 65.70 c0.20 -0.23 0.13 -0.27 -0.39 -0.27 -0.63 0 -2.12 -0.88 -2.12 -1.25 0 -0.09 0.18 -0.32 0.39 -0.52 0.32 -0.30 0.34 -0.41 0.14 -0.65 -0.20 -0.25 -0.13 -0.27 0.65 -0.25 0.48 0 1.24 -0.11 1.67 -0.27 0.43 -0.16 1.13 -0.29 1.56 -0.29 0.77 0 0.79 0.02 0.79 0.59 0 0.45 -0.20 0.79 -0.90 1.52 -0.50 0.54 -0.90 1.11 -0.90 1.31 0 0.27 -0.13 0.34 -0.56 0.34 -0.48 0 -0.54 -0.04 -0.34 -0.27z"/>
 </g>
 <g fill="#525251">
  <path d="M28.25 121.96 c-0.23 -1.43 -0.54 -0.59 5.04 -13.73 1.34 -3.14 1.67 -3.76 2.10 -3.98 0.59 -0.32 1.72 -0.36 1.72 -0.07 0 0.27 2.80 4.52 3.23 4.91 0.20 0.18 0.36 0.43 0.36 0.54 0 0.13 0.13 0.32 0.27 0.45 0.14 0.13 0.27 0.50 0.27 0.82 0 0.50 -0.07 0.61 -0.38 0.61 -0.25 0 -0.34 -0.09 -0.29 -0.25 0.05 -0.14 -0.04 -0.38 -0.20 -0.52 -0.29 -0.25 -0.57 0.02 -3.33 2.98 -3.14 3.37 -8.48 8.91 -8.61 8.91 -0.04 0 -0.11 -0.30 -0.18 -0.66z"/>
  <path d="M74.76 96.72 c-1.63 -0.13 -2.98 -0.23 -2.99 -0.25 -0.04 -0.02 -0.05 -0.13 -0.05 -0.25 0 -0.30 1.08 -0.65 1.52 -0.48 0.23 0.07 0.63 -0.02 1.08 -0.25 0.72 -0.38 0.72 -0.38 0.22 -0.43 -0.27 -0.04 -0.45 -0.14 -0.39 -0.23 0.16 -0.25 1.81 -0.20 2.92 0.13 0.57 0.14 1.45 0.39 1.97 0.54 0.90 0.25 0.93 0.29 0.93 0.88 l0 0.63 -1.11 -0.02 c-0.63 -0.02 -2.46 -0.13 -4.09 -0.25z"/>
  <path d="M86.14 79.49 c-1.27 -0.34 -4.63 -1.24 -7.44 -1.97 -2.81 -0.75 -8.32 -2.24 -12.24 -3.32 -3.94 -1.08 -7.28 -1.95 -7.42 -1.95 -0.20 0 -0.23 -0.18 -0.20 -0.75 l0.05 -0.74 3.59 -0.70 c6.02 -1.17 13.89 -2.98 24.11 -5.52 8.34 -2.08 14.75 -3.96 18.09 -5.31 0.91 -0.36 1.83 -0.61 2.29 -0.61 0.75 0 0.77 0.02 0.77 0.59 -0.02 0.50 -0.23 0.75 -1.90 2.19 -3.44 2.94 -10.06 9.97 -12.84 13.63 -1.08 1.43 -2.96 4.30 -3.10 4.75 -0.16 0.52 -0.99 0.45 -3.76 -0.29z"/>
  <path d="M161.74 51.52 c0.05 -0.63 0.16 -0.77 1.08 -1.40 l1.04 -0.72 2.51 -0.07 c2.17 -0.07 2.51 -0.04 2.51 0.20 0 0.14 -0.11 0.30 -0.23 0.36 -0.14 0.05 -0.72 0.39 -1.31 0.77 -1.04 0.68 -2.67 1.17 -4.79 1.43 l-0.86 0.13 0.05 -0.70z"/>
 </g>
 <g fill="#474746">
  <path d="M40.25 110.43 c-0.18 -0.20 -0.25 -0.36 -0.18 -0.36 0.09 0 -0.05 -0.22 -0.30 -0.48 -0.59 -0.63 -3.19 -4.61 -3.19 -4.88 0 -0.25 -0.04 -0.25 -0.65 0.07 -0.48 0.25 -0.52 0.25 -0.57 -0.11 -0.04 -0.22 0.04 -0.48 0.18 -0.61 0.13 -0.13 1.42 -0.84 2.85 -1.60 2.10 -1.09 2.76 -1.36 3.41 -1.36 0.43 0 2.60 0.39 4.82 0.90 5.27 1.15 8.77 1.79 9.88 1.79 l0.88 0 0 0.68 0 0.70 -2.99 0.93 c-5.13 1.61 -12.85 4.18 -13.34 4.43 -0.43 0.22 -0.52 0.20 -0.79 -0.11z"/>
  <path d="M136.79 104.43 c0 -0.14 -0.11 -0.27 -0.22 -0.27 -0.13 0 -2.49 -0.13 -5.25 -0.27 -13.36 -0.68 -19.49 -1 -20.83 -1.09 l-1.49 -0.11 0 -0.59 0 -0.61 2.31 -0.72 c1.27 -0.41 2.47 -0.74 2.65 -0.74 0.18 0 0.41 -0.07 0.50 -0.16 0.27 -0.23 3.68 -1.27 10.79 -3.24 2.31 -0.65 2.21 -0.68 6.90 2.29 2.29 1.47 4.77 3.01 5.49 3.44 l1.31 0.77 -0.68 0.23 c-0.38 0.14 -0.72 0.25 -0.75 0.25 -0.04 0 -0.02 0.25 0.02 0.54 0.07 0.47 0.02 0.54 -0.34 0.54 -0.25 0 -0.41 -0.11 -0.41 -0.27z"/>
 </g>
 <g fill="#3d3c3c">
  <path d="M175.60 48.23 c-0.59 -0.09 -2.35 -0.20 -3.89 -0.27 l-2.83 -0.14 0 -0.82 c0 -0.45 0.13 -1.04 0.25 -1.31 0.25 -0.47 0.23 -0.50 -0.09 -0.50 -0.20 0 -0.52 -0.09 -0.72 -0.18 -0.50 -0.27 -0.45 -2.03 0.11 -4.34 0.54 -2.24 0.54 -2.26 0.05 -2.33 -0.34 -0.04 -0.41 -0.18 -0.47 -0.77 -0.09 -1.33 -0.18 -1.52 -0.74 -1.52 -0.29 0 -0.75 -0.18 -1.04 -0.41 -1.29 -1.08 -4.50 -2.99 -4.98 -2.99 -0.18 0 -0.27 0.16 -0.27 0.47 0 0.45 -0.04 0.47 -0.63 0.36 -0.68 -0.13 -0.77 0 -0.43 0.65 0.18 0.34 0.16 0.36 -0.30 0.25 -0.29 -0.07 -0.68 -0.27 -0.86 -0.43 -0.25 -0.23 -0.36 -0.25 -0.41 -0.07 -0.05 0.11 -0.38 0.22 -0.74 0.22 -0.74 0 -2.90 0.36 -2.90 0.48 0 0.04 0.22 0.36 0.47 0.70 l0.47 0.61 -0.72 0 c-0.48 0 -1.36 -0.30 -2.83 -1 -4.20 -1.97 -7.73 -3.30 -8.80 -3.30 -0.56 0 -0.59 -0.04 -0.59 -0.63 0 -0.57 -0.05 -0.63 -0.52 -0.63 -0.29 0 -1.31 -0.16 -2.28 -0.36 -0.99 -0.22 -4.16 -0.77 -7.06 -1.27 -2.90 -0.48 -7.21 -1.25 -9.56 -1.72 l-4.27 -0.81 0.05 -0.63 0.05 -0.63 5.65 -1.15 c3.10 -0.63 5.97 -1.15 6.35 -1.15 0.56 0 1.02 0.20 2.15 0.97 1.83 1.22 4.77 2.83 7.58 4.14 2.13 1 2.19 1.04 2.24 1.65 l0.05 0.63 0.68 -0.61 c0.65 -0.54 0.68 -0.63 0.50 -1.09 -0.11 -0.29 -0.20 -0.79 -0.20 -1.15 l0 -0.65 6.02 0.11 6.02 0.09 4.77 1.85 c3.26 1.24 5.02 2.01 5.50 2.40 0.39 0.32 1.70 1.54 2.92 2.71 l2.19 2.13 0 1.43 c-0.02 1.43 -0.23 4.18 -0.47 5.97 -0.11 0.88 -0.11 0.93 0.27 0.93 0.23 0 1.81 0.70 3.53 1.58 3.08 1.54 3.12 1.56 3.12 2.15 0 0.56 -0.04 0.57 -0.66 0.56 -0.38 -0.02 -1.17 -0.09 -1.76 -0.16z m-4.93 -3.71 c0 -0.45 0 -0.47 -0.36 -0.14 -0.20 0.18 -0.36 0.39 -0.36 0.48 0 0.07 0.16 0.14 0.36 0.14 0.27 0 0.36 -0.13 0.36 -0.48z"/>
 </g>
 <g fill="#313030">
  <path d="M103.08 101.34 c0 -0.25 0.20 -0.90 0.45 -1.42 0.99 -2.08 7.06 -17.68 9.79 -25.10 l0.61 -1.65 3.14 -2.71 c2.78 -2.40 3.21 -2.71 3.78 -2.71 l0.65 0 0.86 3.73 c1.70 7.28 2.01 10.36 1.42 13.86 -0.39 2.28 -1.47 6.47 -1.74 6.74 -0.13 0.11 -2.44 1.38 -5.15 2.83 -2.71 1.45 -6.63 3.59 -8.71 4.77 -2.90 1.63 -3.94 2.13 -4.45 2.13 -0.57 0 -0.65 -0.05 -0.65 -0.48z"/>
  <path d="M59.14 100 c-0.30 -0.43 -2.26 -3.32 -4.34 -6.42 -2.08 -3.10 -4.21 -6.24 -4.73 -6.97 -1.27 -1.77 -1.27 -2.21 -0.04 -4.39 0.86 -1.51 3.51 -5.45 4.70 -6.96 0.43 -0.57 0.63 -0.68 1.17 -0.68 0.77 0 2.35 1.02 9.72 6.33 4.18 2.99 4.57 3.33 4.63 3.85 0.05 0.61 -0.95 2.46 -5.74 10.43 -3.12 5.20 -3.39 5.56 -4.18 5.56 -0.54 0 -0.72 -0.13 -1.18 -0.75z"/>
  <path d="M96.90 81.73 c-0.48 -0.09 -2.35 -0.45 -4.14 -0.79 -1.77 -0.34 -3.41 -0.63 -3.62 -0.63 -0.30 0 -0.39 -0.11 -0.39 -0.45 0 -0.30 0.07 -0.41 0.25 -0.34 0.16 0.05 0.30 -0.05 0.38 -0.27 0.14 -0.47 2.01 -3.32 3.10 -4.77 2.72 -3.60 8.78 -10.06 12.37 -13.19 1.15 -1.02 2.19 -1.92 2.28 -2.01 0.18 -0.18 -0.41 -0.11 -1.08 0.14 -0.32 0.11 -0.32 0.09 0.05 -0.23 0.22 -0.20 0.39 -0.45 0.39 -0.56 0 -0.34 4.23 -2.35 4.93 -2.35 0.57 0 0.63 0.04 0.63 0.56 0 0.75 -1.09 4.37 -3.44 11.37 -1.08 3.26 -2.28 6.92 -2.65 8.14 l-0.68 2.24 -2.99 1.67 c-3.23 1.79 -3.35 1.83 -5.38 1.47z"/>
  <path d="M169.24 45.48 c-0.25 -0.11 -0.48 -0.25 -0.54 -0.32 -0.05 -0.05 -0.30 -0.16 -0.57 -0.23 -0.45 -0.11 -0.50 -0.20 -0.50 -0.90 0 -1.02 0.14 -1.36 0.56 -1.36 0.29 0 0.34 0.14 0.34 0.81 0 0.63 0.07 0.84 0.38 0.99 0.43 0.23 0.74 0.07 0.34 -0.18 -0.23 -0.14 -0.23 -0.18 0.02 -0.18 0.16 0 0.43 -0.16 0.61 -0.36 0.18 -0.20 0.39 -0.30 0.47 -0.25 0.09 0.05 0.16 -0.13 0.16 -0.41 0.02 -1.42 0.61 -1.81 0.77 -0.48 0.04 0.45 0.25 0.99 0.45 1.20 0.41 0.47 0.74 1.56 0.36 1.25 -0.13 -0.09 -0.38 -0.23 -0.56 -0.29 -0.29 -0.11 -0.29 -0.09 -0.02 0.32 0.16 0.25 0.22 0.45 0.14 0.47 -0.09 0 -0.56 0.04 -1.06 0.07 -0.48 0.04 -1.09 -0.04 -1.34 -0.14z"/>
 </g>
 <g fill="#1f1e1f">
  <path d="M98.21 97.04 c-1.04 -1.76 -2.83 -4.84 -3.96 -6.87 -1.13 -2.03 -2.78 -4.98 -3.69 -6.58 -1.06 -1.88 -1.63 -3.10 -1.63 -3.46 0 -0.63 -0.09 -0.63 3.39 0.07 4.37 0.91 6.49 1.22 6.76 0.99 0.14 -0.13 0.29 -0.18 0.32 -0.14 0.14 0.16 1.90 17.03 1.90 18.32 0 0.84 0 0.84 -0.59 0.84 -0.57 0 -0.65 -0.09 -2.49 -3.17z"/>
  <path d="M145.43 49.57 l0.05 -0.70 2.81 -1.04 c5.36 -1.99 5.67 -2.01 8.50 -0.47 2.04 1.09 2.04 1.09 2.04 1.76 l0 0.66 -1.92 0.13 c-1.08 0.05 -4.11 0.16 -6.74 0.23 l-4.80 0.11 0.05 -0.68z"/>
  <path d="M141.09 47.11 c0 -0.23 0.20 -2.38 0.45 -4.80 0.23 -2.42 0.52 -5.59 0.63 -7.08 0.11 -1.47 0.23 -3.19 0.29 -3.80 l0.11 -1.13 0.63 0 c0.63 0 0.65 0 0.32 0.36 -0.32 0.36 -0.30 0.36 0.30 0.36 1.09 0 4.59 1.31 8.82 3.30 1.17 0.56 2.22 1 2.35 1 0.13 0 0.32 0.13 0.45 0.27 0.25 0.30 0.18 0.45 -1.61 2.98 -1.63 2.31 -2.10 2.81 -3.23 3.53 -0.54 0.36 -2.65 1.70 -4.68 3.03 -2.74 1.76 -3.85 2.38 -4.27 2.38 -0.47 0 -0.56 -0.07 -0.56 -0.39z"/>
  <path d="M142.27 29.69 c0.18 -0.14 0.30 -0.30 0.25 -0.36 -0.05 -0.05 -1.18 -0.61 -2.51 -1.24 -2.98 -1.42 -5.38 -2.72 -7.28 -4 -0.79 -0.54 -1.61 -0.97 -1.83 -0.97 -0.27 0 -0.39 -0.11 -0.39 -0.32 0 -0.25 0.23 -0.38 1.04 -0.54 0.57 -0.13 1.29 -0.22 1.60 -0.22 0.79 0 5.32 2.37 7.58 3.96 1.04 0.74 2.21 1.52 2.56 1.77 0.56 0.38 0.66 0.56 0.66 1.11 0 0.79 -0.34 1.04 -1.36 1.04 -0.63 0 -0.65 -0.02 -0.32 -0.25z"/>
 </g>
 <g fill="#000000">
  <path d="M171.60 134.26 c-0.32 -0.09 -0.93 -0.52 -1.36 -0.93 -0.68 -0.65 -0.86 -0.99 -1.27 -2.37 -0.52 -1.74 -1.63 -5.32 -3.85 -12.37 -0.77 -2.46 -2.08 -6.58 -2.87 -9.14 -0.81 -2.56 -1.90 -6.02 -2.46 -7.71 -0.91 -2.81 -0.97 -3.08 -0.77 -3.73 0.11 -0.39 0.99 -2.04 1.92 -3.69 2.96 -5.11 4 -6.97 4 -7.12 0 -0.09 -0.72 -0.54 -1.58 -0.99 -2.33 -1.25 -5.32 -3.51 -7.03 -5.31 -2.31 -2.42 -3.59 -5.15 -3.59 -7.60 0 -1.61 0.29 -2.29 1.45 -3.46 0.57 -0.59 1.06 -1.09 1.06 -1.15 0 -0.22 -4.70 0.16 -5.92 0.48 -3.01 0.77 -3.62 1.24 -6.33 4.89 -2.49 3.33 -2.90 4.09 -3.78 6.74 -1.08 3.28 -1.72 5.47 -1.65 5.54 0.04 0.04 0.91 0.27 1.94 0.50 5.40 1.22 9.79 3.50 10.90 5.67 0.54 1.02 0.77 2.89 0.66 5.11 -0.11 2.21 -0.43 3.23 -1.27 4 -0.57 0.54 -0.59 0.84 -0.04 1.63 0.65 0.97 2.08 3.75 2.08 4.05 0 0.45 -0.50 1.29 -2.55 4.23 -1.97 2.85 -2.76 3.73 -3.37 3.73 -0.20 0 -1.90 0.29 -3.78 0.63 -1.90 0.34 -3.73 0.63 -4.05 0.63 -0.88 0 -1.42 -0.61 -1.58 -1.77 -0.11 -0.86 -0.29 -1.15 -1.74 -2.85 -2.03 -2.42 -2.03 -2.26 0.09 -4.77 0.38 -0.45 0.65 -0.88 0.59 -0.97 -0.05 -0.09 -1.09 -0.22 -2.29 -0.27 -6.79 -0.38 -20.17 -1.06 -25.15 -1.29 l-5.74 -0.29 -4.30 -1.51 c-3.55 -1.24 -7.60 -2.60 -15.10 -5.02 l-0.75 -0.25 -0.88 1.20 c-0.48 0.66 -1.47 2.04 -2.19 3.08 -1.88 2.69 -3.80 5.18 -4.61 5.97 -0.57 0.54 -1.67 1.08 -5.63 2.72 -2.71 1.13 -5.43 2.33 -6.06 2.65 l-1.17 0.57 -1.67 3.55 c-0.91 1.95 -1.67 3.68 -1.67 3.82 0 0.14 0.23 0.72 0.52 1.29 0.82 1.65 1.29 3.35 1.08 3.94 -0.23 0.61 -0.82 1.25 -1.45 1.58 -0.50 0.27 -2.55 0.52 -5.74 0.70 -2.29 0.14 -2.92 -0.02 -3.78 -0.97 -0.84 -0.93 -1.09 -1.77 -0.97 -3.23 0.16 -1.74 1.56 -7.15 2.90 -11.17 0.65 -1.94 1.17 -3.60 1.17 -3.71 0 -0.11 -0.09 -0.20 -0.22 -0.20 -0.27 0 -6.22 1.85 -7.53 2.33 l-1 0.38 -1.34 2.46 c-1.94 3.51 -3.50 6.78 -3.64 7.53 -0.09 0.41 -0.02 1.24 0.20 2.19 0.39 1.88 0.39 2.10 -0.13 2.64 -0.47 0.50 -7.21 2.74 -8.26 2.74 -0.57 0 -0.79 -0.13 -1.60 -1.02 -0.52 -0.56 -1.58 -1.69 -2.33 -2.49 -0.77 -0.82 -1.40 -1.56 -1.40 -1.67 0 -0.74 7.85 -19.94 8.48 -20.72 0.27 -0.32 1.86 -1.52 3.57 -2.65 1.70 -1.13 3.75 -2.55 4.52 -3.16 1.38 -1.04 1.45 -1.15 1.95 -2.47 0.74 -2.01 2.85 -8.77 3.44 -11.06 0.43 -1.60 0.77 -2.42 2.01 -4.61 0.82 -1.49 1.49 -2.76 1.49 -2.85 0 -0.09 -0.82 -0.63 -1.83 -1.18 -3.91 -2.19 -5.16 -3.12 -8.28 -6.17 -2.13 -2.06 -9.16 -9.52 -11.98 -12.71 -1.06 -1.18 -1.45 -1.81 -1.13 -1.81 0.16 0 6.96 3.26 16.22 7.80 11.62 5.67 12.82 6.19 14.79 6.19 4.02 0 33.20 -6.94 43.10 -10.25 4.55 -1.52 10.85 -4.84 15.79 -8.32 1.33 -0.93 3.03 -2.06 3.78 -2.49 0.95 -0.54 1.58 -1.06 2.01 -1.65 1.08 -1.47 3.53 -5.47 3.44 -5.61 -0.04 -0.07 -0.65 -0.18 -1.33 -0.25 l-1.25 -0.13 -1.58 -1.83 c-0.86 -1 -2.01 -2.35 -2.55 -2.98 -3.07 -3.55 -7.94 -9.50 -8.21 -10 -0.29 -0.56 -0.29 -0.65 -0.05 -1.09 0.34 -0.57 0.20 -0.54 5.74 -1.40 2.31 -0.34 6.27 -1 8.78 -1.45 6.44 -1.13 5.74 -1.11 8.28 -0.27 1.22 0.39 2.47 0.77 2.80 0.84 l0.57 0.13 -0.02 -1.42 c0 -0.77 -0.07 -2.08 -0.13 -2.92 -0.14 -1.81 -0.09 -2.33 0.23 -2.33 0.14 0 2.85 1.31 6.04 2.89 8.46 4.23 10.51 5.15 17.35 7.82 3.41 1.34 6.38 2.53 6.63 2.65 0.25 0.14 1.60 1.40 2.98 2.81 2.01 2.01 2.58 2.72 2.74 3.28 0.11 0.39 0.20 2.13 0.20 3.85 l0 3.14 1.04 0.65 c0.56 0.36 4.14 2.22 7.96 4.16 7.73 3.91 8.71 4.48 9.27 5.38 0.63 1.02 0.50 1.69 -0.79 4.12 -0.65 1.20 -1.88 3.60 -2.76 5.32 -1.85 3.62 -2.40 4.30 -5.65 7.06 -2.76 2.33 -5 4.02 -6.88 5.18 l-1.49 0.91 0.72 0.72 c1.20 1.22 1.76 2.83 2.10 5.92 l0.11 1.04 3.60 1.76 c1.99 0.95 4.30 2.04 5.15 2.40 2.19 0.97 2.92 1.43 3.44 2.21 0.27 0.39 0.90 2.12 1.49 4.09 1.38 4.61 3.91 12.85 6.92 22.55 1.36 4.41 2.49 8.21 2.49 8.43 0 0.66 -0.88 2.26 -1.54 2.74 -0.36 0.29 -1.56 0.74 -3.07 1.17 -1.36 0.39 -5.93 1.76 -10.18 3.03 -4.23 1.25 -8.68 2.58 -9.88 2.94 -2.24 0.66 -2.80 0.74 -3.80 0.45z m2.22 -2.29 c0.29 -0.11 3.03 -0.91 6.08 -1.81 9.48 -2.80 16.30 -4.84 16.82 -5.06 0.27 -0.11 0.63 -0.43 0.77 -0.72 0.29 -0.57 0.30 -0.56 -3.96 -14.31 -0.72 -2.31 -1.88 -6.11 -2.60 -8.43 -3.05 -9.99 -3.46 -11.22 -3.73 -11.55 -0.39 -0.41 -1.38 -0.91 -7.30 -3.64 -6.13 -2.83 -8.03 -3.64 -8.53 -3.64 -0.50 0 -1.97 1.47 -2.47 2.49 l-0.38 0.72 0.86 0.66 c0.47 0.38 0.93 0.79 1.06 0.93 0.18 0.22 0.34 0.20 1.08 -0.07 2.01 -0.77 4.02 -0.18 5.07 1.49 1.02 1.61 0.82 3.50 -0.50 4.75 -0.81 0.77 -1.17 0.97 -2.12 1.13 -0.95 0.14 -1.97 -0.13 -2.89 -0.79 -1 -0.74 -1.40 -1.61 -1.40 -3.21 l-0.02 -1.29 -0.70 -0.48 c-0.39 -0.25 -0.91 -0.63 -1.15 -0.84 l-0.41 -0.38 -0.30 0.43 c-1.06 1.54 -5.75 9.84 -5.75 10.18 0 0.41 1.02 3.82 3.19 10.72 2.55 8.07 5.97 18.97 6.47 20.65 0.34 1.09 0.70 1.90 0.88 2.01 0.39 0.23 1.27 0.25 1.94 0.04z m-140.01 -6.04 l1.99 -0.63 -0.09 -2.19 c-0.09 -2.67 -0.07 -2.76 2.92 -8.32 2.03 -3.73 2.08 -3.85 1.77 -4.21 -0.29 -0.29 -0.29 -0.38 -0.07 -0.52 0.29 -0.18 8.68 -2.96 13.50 -4.48 1.65 -0.52 2.99 -1 2.99 -1.09 0 -0.07 -0.39 -0.14 -0.88 -0.14 -1.11 0 -4.59 -0.65 -10.06 -1.83 l-4.20 -0.93 -2.72 1.42 c-1.49 0.77 -2.92 1.58 -3.16 1.77 -0.30 0.25 -0.95 1.56 -1.94 3.87 -0.81 1.92 -2.31 5.49 -3.35 7.92 -1.56 3.69 -1.83 4.50 -1.67 4.80 0.14 0.27 0.13 0.48 -0.09 0.88 -0.14 0.29 -0.34 0.59 -0.45 0.65 -0.36 0.22 -0.16 0.77 0.43 1.24 0.38 0.27 0.84 0.93 1.17 1.61 l0.54 1.17 0.68 -0.18 c0.38 -0.11 1.58 -0.47 2.67 -0.81z m108.89 -12.78 c2.21 -0.34 2.24 -0.36 2.83 -1.04 0.77 -0.88 3.26 -4.57 3.26 -4.82 0 -0.30 -1.70 -3.01 -3.12 -4.98 -1.52 -2.12 -2.22 -3.32 -2.89 -4.98 -0.41 -1.02 -0.57 -1.24 -1.04 -1.38 -0.95 -0.30 -3.84 -0.75 -6.58 -1 -3.07 -0.30 -9.20 -0.36 -9.11 -0.09 0.04 0.11 0.90 0.75 1.94 1.43 1.90 1.27 2.19 1.56 0.90 0.90 -0.88 -0.45 -1.49 -0.45 -3.10 0 -7.12 1.97 -10.52 3.01 -10.79 3.24 -0.09 0.09 -0.32 0.16 -0.50 0.16 -0.18 0 -1.40 0.34 -2.69 0.75 l-2.37 0.77 1.43 0.13 c0.79 0.07 4.75 0.30 8.78 0.52 4.05 0.20 9.54 0.48 12.19 0.61 2.67 0.14 4.97 0.27 5.13 0.27 0.43 0 0.99 1.99 1.33 4.66 0.14 1.24 0.48 2.90 0.75 3.73 0.57 1.72 0.29 1.63 3.64 1.13z m-82.66 -6.42 c1.85 -1.33 3.42 -2.74 7.67 -6.92 l3.98 -3.93 1.13 0.11 c2.22 0.22 6.47 0.47 6.56 0.39 0.07 -0.07 -0.47 -0.25 -2.87 -0.90 -2.99 -0.81 -6.24 -1.24 -6.24 -0.82 0 0.09 -0.11 0.13 -0.23 0.07 -0.13 -0.04 -1.06 0.77 -2.12 1.85 -1.81 1.88 -8.61 9.25 -9.56 10.38 -1.02 1.25 -0.25 1.13 1.67 -0.23z m47.60 -7.57 c2.08 -1.18 6.01 -3.32 8.71 -4.77 2.71 -1.45 5.02 -2.72 5.15 -2.83 0.27 -0.27 1.34 -4.46 1.74 -6.74 0.39 -2.28 0.36 -3.78 -0.14 -6.65 -0.47 -2.76 -2.08 -9.86 -2.24 -9.86 -0.05 0 -1.52 1.22 -3.24 2.71 l-3.14 2.71 -0.61 1.65 c-2.71 7.39 -8.84 23.13 -9.77 25.06 -0.23 0.47 -0.38 0.86 -0.32 0.86 0.04 0 1.77 -0.97 3.87 -2.13z m-46.18 -0.43 c0.88 -1.29 3.60 -5.84 6.63 -11.06 1.52 -2.58 1.61 -2.80 1.33 -3.07 -0.41 -0.39 -9.93 -7.19 -11.92 -8.50 -1.56 -1.04 -1.58 -1.04 -1.92 -0.70 -1.09 1.13 -5.92 8.57 -5.92 9.14 0 0.11 0.43 0.79 0.95 1.52 0.52 0.74 2.65 3.87 4.73 6.97 4.55 6.79 4.86 7.21 5.07 7.08 0.11 -0.07 0.57 -0.70 1.04 -1.40z m38.85 -4.02 c-0.39 -3.91 -1.24 -11.87 -1.40 -13.03 -0.04 -0.29 0.54 -0.68 2.90 -1.99 l2.92 -1.63 0.68 -2.24 c0.38 -1.22 1.52 -4.77 2.58 -7.87 1.95 -5.86 3.55 -10.97 3.42 -11.08 -0.04 -0.04 -1.17 0.50 -2.55 1.18 -3.07 1.56 -4.41 2.10 -8.34 3.33 -4.39 1.38 -6.97 2.10 -13.41 3.69 -10.20 2.55 -18.07 4.36 -24.09 5.52 -2.01 0.39 -3.62 0.79 -3.66 0.90 -0.04 0.13 0.05 0.22 0.20 0.22 0.14 0 3.05 0.75 6.44 1.69 7.89 2.17 15.33 4.16 19.42 5.20 3.53 0.91 4.03 1.08 4.03 1.36 0 0.11 0.74 1.49 1.63 3.10 0.91 1.60 2.56 4.55 3.69 6.58 2.78 4.97 5.86 10.09 5.93 9.88 0.04 -0.09 -0.14 -2.26 -0.41 -4.80z m73.75 -2.04 c0.56 -0.20 1.09 -0.93 1.09 -1.51 0 -0.59 -0.54 -1.31 -1.13 -1.51 -1.02 -0.34 -1.99 0.25 -2.21 1.34 -0.11 0.59 0.41 1.42 1.08 1.69 0.50 0.22 0.50 0.22 1.17 -0.02z m-47.22 -1.60 c1.69 -0.20 3.21 -0.39 3.42 -0.45 0.39 -0.09 3.05 -3.62 4.20 -5.58 0.39 -0.68 1.15 -2.56 1.69 -4.16 l0.99 -2.94 -0.47 0.13 c-0.47 0.11 -8.03 3.05 -9.61 3.71 -0.63 0.27 -0.88 0.48 -0.95 0.84 -0.32 1.40 -0.88 3.39 -1.45 5.22 -0.36 1.13 -0.75 2.40 -0.88 2.83 -0.13 0.41 -0.18 0.75 -0.11 0.75 0.07 0 1.51 -0.16 3.17 -0.36z m40.34 -7.46 c1.06 -1.61 2.10 -2.51 3.26 -2.87 0.97 -0.29 1.51 -0.22 2.87 0.39 0.54 0.23 0.99 0.34 1.04 0.23 0.07 -0.09 -0.02 -0.86 -0.18 -1.74 -0.29 -1.52 -0.70 -2.38 -1.76 -3.66 l-0.39 -0.48 -1.29 0.47 c-1.47 0.52 -1.74 0.45 -1.94 -0.52 l-0.13 -0.54 -1.20 1.15 c-1.36 1.34 -1.72 1.52 -2.19 1.11 -0.47 -0.41 -0.43 -0.68 0.20 -2.03 0.30 -0.63 0.48 -1.20 0.41 -1.27 -0.07 -0.07 -0.66 -0.30 -1.29 -0.52 l-1.15 -0.41 -0.95 0.47 c-1.18 0.59 -1.33 0.57 -1.92 -0.04 -0.52 -0.54 -0.61 -1.08 -0.29 -1.69 0.18 -0.34 0.16 -0.36 -0.22 -0.25 -1.69 0.47 -2.49 0.29 -2.49 -0.54 0 -0.54 -0.20 -0.54 -1.09 0.04 -1.25 0.79 -1.56 2.37 -0.88 4.57 0.90 2.92 3.84 5.77 8.96 8.71 0.74 0.43 1.43 0.77 1.52 0.77 0.11 0 0.59 -0.63 1.08 -1.36z m-28.50 -8.86 l1.38 -1.97 -2.31 -2.56 c-3.12 -3.42 -4.66 -5.18 -10.45 -11.78 -5.61 -6.42 -6.62 -7.53 -6.85 -7.53 -0.20 0 -3.98 2.83 -4.05 3.05 -0.07 0.18 6.33 7.69 9.90 11.65 2.58 2.85 10.65 11.12 10.86 11.12 0.07 0 0.75 -0.90 1.52 -1.97z m32.11 -4.16 c0.68 -0.61 2.33 -2.24 3.66 -3.62 1.34 -1.36 2.53 -2.46 2.65 -2.42 0.25 0.09 -1.74 3.19 -3.42 5.36 -0.57 0.72 -1 1.34 -0.95 1.38 0.30 0.30 5.77 -3.39 9.07 -6.11 1.52 -1.27 3.41 -3.21 3.41 -3.51 0 -0.16 -0.93 -1.70 -2.06 -3.41 -1.13 -1.70 -2.15 -3.39 -2.26 -3.71 -0.23 -0.72 -0.11 -1.60 0.39 -2.72 0.20 -0.45 0.29 -0.86 0.22 -0.93 -0.27 -0.27 -3.87 -0.90 -6.20 -1.08 -1.31 -0.11 -3.33 -0.13 -4.52 -0.07 -1.18 0.05 -3.08 0.13 -4.23 0.16 -2.01 0.04 -2.12 0.05 -2.99 0.63 -1.04 0.66 -1.63 1.25 -1.02 1.02 0.90 -0.34 2.72 -0.66 3.46 -0.61 l0.81 0.05 -2.13 1.60 c-2.55 1.90 -5.54 4.88 -6.83 6.78 l-0.95 1.36 0.47 0.30 c0.25 0.16 0.63 0.25 0.84 0.20 0.22 -0.05 0.45 0.02 0.57 0.20 0.18 0.23 0.34 0.18 1.25 -0.39 1.08 -0.70 5.11 -2.65 5.22 -2.55 0.04 0.04 -0.43 0.93 -1.02 2.01 -1.27 2.28 -1.47 2.96 -0.90 2.96 0.20 0 0.38 0.04 0.38 0.07 0 0.05 -0.52 1.04 -1.17 2.21 -1.13 2.04 -1.42 2.92 -0.93 2.92 0.88 0 6.51 -3.39 9.29 -5.58 0.36 -0.29 0.79 -0.52 0.97 -0.52 0.25 0 0.20 0.18 -0.29 1.04 -0.93 1.67 -1.49 2.33 -3.19 3.87 -1.77 1.61 -2.64 2.56 -2.46 2.74 0.16 0.16 2.55 -1.02 4 -1.95 0.61 -0.39 1.20 -0.68 1.31 -0.65 0.09 0.02 -0.30 0.90 -0.90 1.94 -1.49 2.62 -1.43 2.76 0.47 1.04z m-12.42 -3.60 c0.45 -0.63 0.93 -1.24 1.09 -1.36 0.14 -0.13 0.23 -0.32 0.18 -0.45 -0.05 -0.13 0.36 -0.70 0.90 -1.29 0.56 -0.57 0.90 -1.08 0.77 -1.11 -0.13 -0.02 -0.70 0.13 -1.27 0.32 -1.51 0.52 -2.03 0.47 -2.69 -0.22 -0.30 -0.32 -1.11 -1.08 -1.77 -1.65 -0.81 -0.70 -1.20 -1.17 -1.15 -1.36 0.13 -0.47 3.57 -5.54 4.50 -6.63 l0.84 -0.99 -1.94 -0.11 c-12.15 -0.65 -12.59 -0.65 -16.69 0.13 -1.36 0.25 -1.65 0.34 -1.58 0.59 0.05 0.16 0.72 2.87 1.47 6.02 0.75 3.16 1.43 6.04 1.54 6.42 0.14 0.61 0.22 0.68 0.56 0.59 2.81 -0.79 9.32 -0.86 11.35 -0.13 1.17 0.41 2.49 1.40 2.67 1.99 0.07 0.20 0.18 0.36 0.27 0.36 0.07 0 0.50 -0.50 0.95 -1.13z m30.78 -12.94 c0.11 -0.14 0.16 -0.34 0.09 -0.47 -0.34 -0.54 -3.30 -1.36 -4.14 -1.17 -0.27 0.07 -0.43 0.25 -0.43 0.45 0 0.27 0.34 0.48 1.40 0.90 1.51 0.59 2.72 0.72 3.08 0.29z m-32.75 -4.70 c1.06 -0.05 1.92 -0.16 1.92 -0.23 0 -0.16 -4.03 -2.33 -4.34 -2.33 -0.79 0 -7.53 2.31 -7.94 2.72 -0.18 0.20 6.15 0.09 10.36 -0.16z m18.27 -2.99 c-1.61 -0.82 -3.16 -1.70 -3.41 -1.97 -0.45 -0.43 -0.48 -0.59 -0.48 -1.86 0 -0.75 0.07 -2.46 0.16 -3.78 l0.14 -2.42 -2.21 -2.13 c-1.22 -1.18 -2.55 -2.40 -2.94 -2.72 -0.48 -0.39 -2.24 -1.17 -5.49 -2.40 l-4.77 -1.83 -5.52 -0.11 c-4.97 -0.11 -5.52 -0.09 -5.41 0.16 0.05 0.16 0.20 0.63 0.32 1.04 0.23 0.75 0.23 0.77 -0.39 1.33 -0.32 0.30 -0.84 0.74 -1.11 0.95 -0.48 0.38 -0.50 0.45 -0.68 3.05 -0.20 3.01 -1 11.85 -1.17 12.76 l-0.09 0.61 0.52 -0.34 c0.27 -0.18 2.31 -1.51 4.54 -2.92 2.21 -1.42 4.25 -2.80 4.52 -3.05 0.47 -0.41 1.02 -1.17 3.35 -4.50 l0.61 -0.90 0.68 0.66 c0.82 0.79 0.84 1.06 0.16 1.18 -0.36 0.07 -0.90 0.57 -1.90 1.77 l-1.40 1.67 0.65 0.05 c1 0.09 1.90 -0.23 3.69 -1.33 1.94 -1.15 2.38 -1.25 4.09 -0.99 1.43 0.25 2.46 0.79 4.63 2.44 0.84 0.65 1.56 1.17 1.61 1.17 0.13 0 0.11 -3.89 -0.02 -4.70 -0.09 -0.48 -0.22 -0.68 -0.43 -0.68 -0.18 0 -0.45 -0.20 -0.61 -0.45 -0.16 -0.23 -0.88 -0.84 -1.60 -1.34 -2.94 -2.04 -3.35 -2.37 -3.26 -2.53 0.07 -0.09 0.23 -0.16 0.38 -0.16 0.47 0 3.69 1.94 4.97 2.99 0.29 0.23 0.75 0.41 1.04 0.41 0.56 0 0.65 0.20 0.74 1.52 0.05 0.59 0.13 0.72 0.50 0.81 0.41 0.11 0.45 0.18 0.39 0.91 -0.05 0.65 -0.39 2.04 -1.22 5.09 -0.09 0.30 0.11 0.45 1.22 0.95 l1.31 0.59 -0.50 0.27 c-0.47 0.25 -0.84 0.88 -0.84 1.40 0 0.18 0.68 0.27 2.83 0.38 1.54 0.07 3.30 0.18 3.89 0.27 0.59 0.07 1.17 0.14 1.25 0.14 0.11 0.02 -1.13 -0.65 -2.74 -1.47z m-12.53 -1.27 c0.79 -0.77 0.34 -2.64 -0.65 -2.74 -1.06 -0.13 -1.70 1.24 -1.13 2.40 0.23 0.52 0.38 0.61 0.90 0.61 0.34 0 0.74 -0.13 0.88 -0.27z m-29.90 -10.88 c3.66 -1.38 6.90 -2.58 7.22 -2.69 0.34 -0.09 0.57 -0.20 0.54 -0.25 -0.05 -0.04 -3.42 -0.63 -7.51 -1.33 -4.09 -0.68 -9.23 -1.61 -11.44 -2.06 -2.22 -0.45 -4.05 -0.77 -4.11 -0.74 -0.04 0.05 1.25 1.65 2.89 3.59 1.63 1.92 3.44 4.11 4.02 4.84 0.84 1.09 1.11 1.34 1.40 1.24 0.20 -0.05 3.35 -1.24 6.99 -2.60z m10.56 -4.82 c0.36 -0.22 0.65 -0.43 0.65 -0.48 0 -0.07 -0.30 -0.32 -0.66 -0.57 -0.36 -0.25 -1.52 -1.04 -2.56 -1.77 -1.04 -0.74 -3.05 -1.94 -4.48 -2.65 l-2.58 -1.33 -1.63 0.39 c-0.88 0.22 -3.89 0.84 -6.67 1.42 -2.80 0.56 -5.11 1.06 -5.16 1.11 -0.14 0.13 6.97 1.49 13.71 2.64 2.90 0.50 6.02 1.06 6.90 1.25 0.90 0.18 1.67 0.34 1.74 0.36 0.07 0.02 0.41 -0.14 0.75 -0.36z"/>
  <path d="M178.67 119.18 c-0.23 -0.36 -0.23 -1.27 -0.04 -7.17 0.23 -7.22 0.25 -7.31 1.17 -7.31 0.57 0 0.84 0.16 0.97 0.63 0.22 0.68 -0.34 13.68 -0.59 13.98 -0.34 0.41 -1.20 0.34 -1.51 -0.13z"/>
  <path d="M172.82 117.05 c-1.43 -0.38 -2.81 -0.79 -3.10 -0.90 -0.63 -0.27 -0.81 -0.91 -0.39 -1.56 0.97 -1.49 3.76 -5.06 4.05 -5.15 0.43 -0.14 1 0.18 1.15 0.63 0.14 0.45 -0.23 1.13 -1.72 3.07 -0.61 0.79 -1.06 1.47 -1.02 1.51 0.04 0.04 1 0.30 2.17 0.59 1.17 0.30 2.28 0.68 2.47 0.86 0.45 0.41 0.45 1.25 0 1.51 -0.50 0.25 -0.68 0.23 -3.60 -0.56z"/>
  <path d="M185.32 114.77 c-0.52 -0.57 -0.34 -1.06 1.06 -2.99 0.75 -1.04 1.33 -1.94 1.29 -1.99 -0.05 -0.04 -1.09 -0.36 -2.31 -0.68 -2.24 -0.63 -2.67 -0.88 -2.67 -1.63 0 -0.50 0.34 -0.81 0.91 -0.81 0.56 0 5.22 1.36 5.93 1.72 0.50 0.27 0.79 0.91 0.65 1.47 -0.05 0.16 -0.91 1.42 -1.94 2.78 -1.94 2.58 -2.29 2.83 -2.92 2.13z"/>
  <path d="M158.77 34.22 c-0.97 -0.16 -1.08 -0.23 -1.27 -0.86 -0.13 -0.43 -0.13 -0.43 0.74 -0.30 0.68 0.09 0.99 0.23 1.38 0.66 0.68 0.79 0.72 0.77 -0.84 0.50z"/>
  <path d="M75.48 52.71 c-0.20 -0.20 -0.36 -0.56 -0.36 -0.81 0 -0.25 0.16 -0.61 0.36 -0.81 0.36 -0.36 0.59 -0.36 11.99 -0.36 l11.65 0 0.27 0.39 c0.38 0.54 0.36 1.27 -0.04 1.63 -0.30 0.27 -1.40 0.30 -11.92 0.30 -11.37 0 -11.60 0 -11.96 -0.36z"/>
  <path d="M60.95 44.82 c-0.52 -0.52 -0.47 -1.33 0.11 -1.77 0.47 -0.38 0.61 -0.38 11.90 -0.38 11.29 0 11.44 0 11.90 0.38 0.30 0.23 0.47 0.54 0.47 0.88 0 0.34 -0.16 0.65 -0.47 0.88 -0.47 0.38 -0.61 0.38 -12.01 0.38 -11.31 0 -11.55 0 -11.90 -0.36z"/>
  <path d="M90.46 44.80 c-0.63 -0.50 -0.63 -1.25 0 -1.76 0.47 -0.38 0.65 -0.38 9.23 -0.38 8.53 0 8.78 0.02 9.13 0.36 0.52 0.52 0.47 1.33 -0.11 1.77 -0.47 0.38 -0.65 0.38 -9.13 0.38 -8.48 0 -8.66 0 -9.13 -0.38z"/>
  <path d="M81.21 36.98 c-0.74 -0.27 -0.97 -1.40 -0.39 -1.90 0.30 -0.29 1.63 -0.30 15.56 -0.30 8.37 0 15.31 0.07 15.44 0.14 0.72 0.45 0.48 1.85 -0.34 2.08 -0.50 0.13 -29.89 0.13 -30.26 -0.02z"/>
 </g>
</svg>