<?xml version="1.0" encoding="utf-8"?>
<!DOCTYPE svg PUBLIC "-//W3C//DTD SVG 1.0//EN" "http://www.w3.org/TR/2001/REC-SVG-20010904/DTD/svg10.dtd">
<svg version="1.0" xmlns="http://www.w3.org/2000/svg" width="98px" height="86px" viewBox="0 0 98 86" preserveAspectRatio="xMidYMid meet">
 <g fill="#000000">
  <path d="M16 76.90 c-1.79 -0.33 -3.13 -1.84 -3.35 -3.76 -0.06 -0.56 0.03 -0.91 0.15 -0.59 0.04 0.09 0.06 -1.53 0.06 -3.61 0 -2.08 -0.02 -3.71 -0.05 -3.62 -0.04 0.14 -0.18 0.15 -1.39 0.15 l-1.34 0 0 -0.22 c0 -0.27 0.15 -0.39 0.21 -0.17 0.03 0.09 0.05 -0.56 0.05 -1.43 l0.01 -1.59 1.24 -0.03 1.23 -0.03 0.03 -1.95 0.02 -1.96 1.87 -0.01 c1.03 -0.01 1.79 -0.03 1.70 -0.05 -0.23 -0.06 -0.09 -0.21 0.22 -0.21 0.22 0 0.26 0.04 0.26 0.22 0 0.27 -0.15 0.39 -0.21 0.17 -0.03 -0.09 -0.04 0.73 -0.03 1.82 l0.01 1.98 1.62 0.01 c0.89 0.01 1.55 0 1.46 -0.03 -0.22 -0.05 -0.10 -0.21 0.17 -0.21 l0.22 0 0 1.80 c0 1.37 -0.03 1.82 -0.11 1.85 -0.06 0.02 -0.84 0.05 -1.71 0.06 -1.36 0.03 -1.60 0.01 -1.64 -0.11 -0.02 -0.07 -0.04 1.24 -0.04 2.93 0 1.68 0.02 2.99 0.05 2.91 0.07 -0.28 0.30 -0.19 0.30 0.11 0 0.78 0.80 1.71 1.48 1.71 0.13 0 0.44 -0.08 0.70 -0.18 0.60 -0.23 1.04 -0.23 1.10 -0.02 0.31 1 0.59 2.26 0.59 2.58 0 0.34 -0.04 0.42 -0.32 0.63 -0.47 0.36 -1.21 0.68 -1.91 0.82 -0.68 0.14 -2 0.15 -2.68 0.03z m1.46 -0.14 c-0.09 -0.02 -0.23 -0.02 -0.32 0 -0.09 0.03 -0.02 0.05 0.15 0.05 0.17 0 0.24 -0.02 0.16 -0.05z m2.27 -0.52 c0.15 -0.08 0.27 -0.16 0.27 -0.19 0 -0.04 -0.53 0.21 -0.62 0.29 -0.09 0.08 0.12 0.03 0.35 -0.10z m-5.31 -0.43 c0 -0.02 -0.14 -0.14 -0.29 -0.30 l-0.30 -0.26 0.26 0.30 c0.25 0.27 0.32 0.33 0.32 0.26z m5.33 -2.77 c0.14 -0.08 0.21 -0.07 0.26 0.02 0.05 0.09 0.08 0.09 0.08 0.02 0 -0.19 -0.17 -0.22 -0.42 -0.08 -0.14 0.07 -0.22 0.14 -0.18 0.14 0.05 0 0.16 -0.05 0.26 -0.10z"/>
  <path d="M58.74 76.83 c-1.24 -0.33 -2.13 -1.06 -2.68 -2.19 -0.32 -0.69 -0.58 -1.95 -0.45 -2.28 0.07 -0.17 0.07 -0.17 0.14 0.01 0.05 0.10 0.07 -1.48 0.07 -3.51 0 -2.03 -0.02 -3.62 -0.05 -3.53 -0.04 0.14 -0.18 0.15 -1.34 0.15 l-1.30 0 0 -0.31 c0 -0.34 0.14 -0.51 0.21 -0.26 0.03 0.09 0.05 -0.51 0.05 -1.34 l0.01 -1.50 1.20 -0.03 1.19 -0.03 0.03 -1.91 0.02 -1.92 1.89 0 1.89 0 0.02 1.92 0.03 1.91 1.62 0.01 c0.89 0.01 1.55 0 1.46 -0.03 -0.23 -0.06 -0.09 -0.21 0.22 -0.21 l0.26 0 -0.02 1.83 -0.03 1.82 -0.30 0.03 c-0.17 0.02 -0.37 0 -0.45 -0.03 -0.14 -0.05 -0.14 -0.07 0.03 -0.14 0.11 -0.04 -0.44 -0.06 -1.31 -0.05 l-1.49 0.02 -0.01 3.06 c-0.01 1.68 0 2.99 0.03 2.91 0.07 -0.28 0.30 -0.19 0.30 0.11 0 0.58 0.46 1.30 1.01 1.59 0.34 0.18 0.73 0.15 1.23 -0.06 0.24 -0.10 0.57 -0.17 0.73 -0.15 l0.30 0.03 0.30 1.13 c0.16 0.62 0.30 1.32 0.31 1.55 0 0.41 -0.02 0.44 -0.42 0.75 -0.56 0.41 -1.24 0.67 -2.10 0.78 -0.71 0.11 -1.23 0.04 -0.86 -0.11 0.14 -0.06 0.09 -0.07 -0.18 -0.07 -0.20 0 -0.29 0.02 -0.20 0.05 0.08 0.02 0.14 0.08 0.11 0.13 -0.09 0.14 -0.76 0.08 -1.48 -0.10z"/>
  <path d="M27.20 76.74 c-1.59 -0.33 -2.61 -0.88 -3.70 -1.97 -0.80 -0.81 -1.24 -1.47 -1.64 -2.44 -0.39 -0.98 -0.66 -2.78 -0.43 -2.93 0.05 -0.03 0.11 0.03 0.13 0.11 0.03 0.09 0.05 -0.10 0.05 -0.42 0 -0.32 -0.02 -0.51 -0.05 -0.42 -0.07 0.26 -0.21 0.07 -0.21 -0.29 0 -0.58 0.27 -1.81 0.55 -2.54 0.68 -1.77 2.18 -3.31 3.87 -3.99 0.69 -0.27 1.62 -0.50 2.04 -0.50 0.32 0 0.48 0.14 0.23 0.21 -0.09 0.03 0 0.05 0.20 0.05 0.20 0 0.29 -0.02 0.21 -0.05 -0.09 -0.02 -0.16 -0.10 -0.16 -0.17 0 -0.10 0.15 -0.13 0.72 -0.13 0.40 0 0.72 0.04 0.72 0.07 0 0.05 0.12 0.06 0.27 0.04 0.38 -0.05 1.57 0.23 2.23 0.53 2.11 0.95 3.58 3 3.86 5.37 0.04 0.25 0.03 0.54 -0.01 0.63 -0.06 0.15 -0.07 0.15 -0.14 -0.02 -0.06 -0.14 -0.07 -0.09 -0.07 0.18 0 0.20 0.02 0.29 0.05 0.21 0.02 -0.09 0.10 -0.16 0.17 -0.16 0.10 0 0.13 0.19 0.13 0.95 0 0.76 -0.03 0.95 -0.13 0.95 -0.07 0 -0.15 -0.07 -0.17 -0.15 -0.03 -0.10 -0.05 -0.06 -0.05 0.09 l-0.01 0.24 -2.59 0.01 c-1.43 0.01 -2.52 0.03 -2.43 0.05 0.08 0.02 0.15 0.10 0.15 0.17 0 0.11 -0.35 0.13 -2.16 0.13 -1.81 0 -2.16 -0.02 -2.16 -0.13 0 -0.07 0.07 -0.15 0.16 -0.17 0.08 -0.03 -0.05 -0.05 -0.30 -0.05 -0.24 0 -0.38 0.02 -0.29 0.05 0.28 0.07 0.17 0.29 -0.16 0.32 l-0.32 0.03 0.25 0.50 c0.32 0.66 1.20 1.52 1.87 1.86 0.48 0.23 0.64 0.26 1.35 0.26 0.74 0 0.87 -0.03 1.42 -0.30 0.33 -0.17 0.85 -0.52 1.13 -0.79 0.72 -0.66 0.95 -0.66 1.84 0 0.36 0.26 0.95 0.68 1.31 0.90 0.62 0.41 0.65 0.44 0.65 0.77 0 0.31 -0.07 0.43 -0.55 0.95 -0.67 0.70 -1.53 1.30 -2.43 1.66 -1.04 0.41 -2.77 0.69 -2.92 0.47 -0.03 -0.05 0.03 -0.11 0.11 -0.13 0.09 -0.03 -0.14 -0.05 -0.51 -0.05 -0.37 0 -0.60 0.02 -0.51 0.05 0.08 0.02 0.14 0.08 0.11 0.13 -0.08 0.13 -0.82 0.08 -1.67 -0.10z m7.43 -2.07 c0.24 -0.24 0.42 -0.45 0.40 -0.45 -0.03 0 -0.24 0.21 -0.49 0.45 -0.24 0.25 -0.42 0.45 -0.40 0.45 0.03 0 0.24 -0.20 0.49 -0.45z m-10.40 0.33 c0 -0.01 -0.25 -0.26 -0.56 -0.56 l-0.57 -0.54 0.54 0.57 c0.50 0.52 0.59 0.60 0.59 0.53z m11.03 -1.39 c-0.16 -0.15 -0.16 -0.15 -0.05 0 0.10 0.13 0.10 0.18 0 0.32 -0.11 0.14 -0.11 0.14 0.05 0 0.17 -0.16 0.17 -0.16 0 -0.32z m-8.69 -1.24 c-0.22 -0.23 -0.41 -0.41 -0.44 -0.41 -0.03 0 0.14 0.18 0.35 0.41 0.22 0.23 0.41 0.41 0.44 0.41 0.03 0 -0.14 -0.18 -0.35 -0.41z m6.06 -0.59 c-0.02 -0.02 -0.24 0.18 -0.50 0.45 l-0.47 0.49 0.50 -0.44 c0.28 -0.25 0.49 -0.47 0.48 -0.50z m-6.60 -1.59 c0 -0.02 -0.15 -0.04 -0.33 -0.03 -0.26 0 -0.30 0.02 -0.16 0.07 0.16 0.06 0.50 0.04 0.50 -0.05z m6.11 -2.44 c-0.09 -0.02 -0.16 -0.13 -0.16 -0.23 0 -0.32 -0.50 -1.29 -0.90 -1.72 -0.40 -0.43 -1.32 -0.95 -1.68 -0.95 -0.24 0 -0.29 -0.23 -0.05 -0.30 0.08 -0.03 -0.07 -0.05 -0.34 -0.05 -0.27 0 -0.42 0.02 -0.33 0.05 0.25 0.06 0.18 0.30 -0.09 0.30 -0.41 0 -1.35 0.50 -1.82 0.97 -0.43 0.43 -1 1.40 -1 1.68 0 0.08 -0.09 0.18 -0.20 0.23 -0.13 0.05 1.11 0.08 3.26 0.07 1.91 0 3.40 -0.02 3.31 -0.05z m-5.60 -2.21 l0.26 -0.30 -0.29 0.26 c-0.28 0.25 -0.34 0.32 -0.27 0.32 0.02 0 0.14 -0.14 0.30 -0.29z m5.08 0.26 c0 -0.02 -0.17 -0.19 -0.38 -0.38 l-0.39 -0.36 0.36 0.39 c0.32 0.35 0.41 0.42 0.41 0.35z m-7.84 -2.18 c0.27 -0.27 0.47 -0.50 0.44 -0.50 -0.02 0 -0.26 0.23 -0.53 0.50 -0.27 0.27 -0.47 0.50 -0.44 0.50 0.02 0 0.26 -0.23 0.53 -0.50z m10.54 0.20 c0 -0.02 -0.17 -0.19 -0.38 -0.38 l-0.39 -0.36 0.36 0.39 c0.32 0.35 0.41 0.42 0.41 0.35z m-4.43 -2.29 c-0.09 -0.02 -0.23 -0.02 -0.32 0 -0.09 0.03 -0.02 0.05 0.15 0.05 0.17 0 0.24 -0.02 0.16 -0.05z"/>
  <path d="M43.60 76.79 c-3.54 -0.73 -5.78 -3.40 -6 -7.16 -0.23 -3.76 1.68 -6.85 4.87 -7.92 0.89 -0.30 1.66 -0.42 1.91 -0.32 0.15 0.06 0.15 0.07 -0.02 0.14 -0.14 0.06 -0.09 0.07 0.18 0.07 0.20 0 0.29 -0.02 0.21 -0.05 -0.09 -0.02 -0.16 -0.10 -0.16 -0.17 0 -0.10 0.15 -0.13 0.72 -0.13 0.40 0 0.72 0.04 0.72 0.07 0 0.04 0.14 0.05 0.31 0.04 0.44 -0.05 1.69 0.29 2.42 0.66 1.19 0.60 2.12 1.48 2.76 2.59 0.43 0.76 0.84 2.07 0.85 2.78 0.01 0.33 0.05 0.61 0.09 0.61 0.04 0 0.06 0.49 0.06 1.08 0 0.87 -0.03 1.08 -0.13 1.08 -0.07 0 -0.15 -0.07 -0.17 -0.15 -0.04 -0.15 -0.05 -0.15 -0.05 0 -0.01 0.14 -0.12 0.15 -0.84 0.16 -0.46 0.01 -0.77 0.03 -0.68 0.05 0.08 0.02 0.15 0.10 0.15 0.17 0 0.09 -0.12 0.13 -0.41 0.13 -0.29 0 -0.41 -0.04 -0.41 -0.13 0 -0.07 0.07 -0.15 0.16 -0.17 0.08 -0.03 -0.66 -0.05 -1.65 -0.05 -0.99 0 -1.73 0.02 -1.64 0.05 0.08 0.02 0.15 0.10 0.15 0.17 0 0.11 -0.35 0.13 -2.21 0.13 -1.86 0 -2.21 -0.02 -2.21 -0.13 0 -0.07 0.07 -0.15 0.16 -0.17 0.08 -0.03 -0.12 -0.05 -0.45 -0.05 -0.33 0 -0.62 0.03 -0.65 0.07 -0.04 0.05 0.02 0.06 0.11 0.04 0.14 -0.03 0.22 0.08 0.42 0.57 0.34 0.80 1.23 1.73 1.98 2.07 1.31 0.60 2.75 0.28 3.93 -0.87 0.61 -0.59 0.88 -0.59 1.69 0 0.32 0.23 0.91 0.64 1.30 0.90 0.67 0.45 0.69 0.48 0.69 0.81 0 0.92 -2 2.43 -3.81 2.89 -0.85 0.22 -1.79 0.32 -2.02 0.23 -0.15 -0.06 -0.15 -0.07 0.02 -0.14 0.12 -0.05 -0.08 -0.07 -0.54 -0.07 -0.40 0 -0.65 0.02 -0.56 0.05 0.28 0.07 0.06 0.21 -0.32 0.20 -0.21 0 -0.64 -0.06 -0.96 -0.13z m-0.72 -4.41 c-0.22 -0.23 -0.41 -0.41 -0.44 -0.41 -0.03 0 0.14 0.18 0.35 0.41 0.22 0.23 0.41 0.41 0.44 0.41 0.03 0 -0.14 -0.18 -0.35 -0.41z m9.34 -4.52 c-0.03 -0.09 -0.05 -0.02 -0.05 0.15 0 0.17 0.02 0.24 0.05 0.16 0.02 -0.09 0.02 -0.23 0 -0.32z m-3.69 -0.11 c-0.10 -0.04 -0.24 -0.27 -0.34 -0.54 -0.23 -0.66 -0.66 -1.31 -1.13 -1.68 -0.40 -0.32 -1.15 -0.67 -1.48 -0.67 -0.23 0 -0.24 -0.24 -0.02 -0.30 0.08 -0.03 -0.05 -0.05 -0.30 -0.05 -0.24 0 -0.38 0.02 -0.29 0.05 0.29 0.07 0.16 0.27 -0.22 0.33 -0.46 0.07 -1.14 0.41 -1.56 0.77 -0.39 0.35 -0.87 1.08 -1.09 1.65 -0.13 0.34 -0.20 0.42 -0.33 0.40 -0.09 -0.03 -0.14 -0.01 -0.11 0.04 0.03 0.05 1.54 0.08 3.53 0.07 1.92 0 3.41 -0.04 3.32 -0.07z m-5.65 -2.22 c0.17 -0.17 0.29 -0.32 0.26 -0.32 -0.03 0 -0.18 0.14 -0.35 0.32 -0.17 0.17 -0.29 0.32 -0.26 0.32 0.03 0 0.18 -0.14 0.35 -0.32z m4.95 0.20 c0 -0.02 -0.14 -0.14 -0.29 -0.30 l-0.30 -0.26 0.26 0.30 c0.25 0.27 0.32 0.33 0.32 0.26z m-1.64 -4.18 c-0.09 -0.02 -0.23 -0.02 -0.32 0 -0.09 0.03 -0.02 0.05 0.15 0.05 0.17 0 0.24 -0.02 0.16 -0.05z"/>
  <path d="M83.74 76.74 c-0.83 -0.22 -1.45 -0.74 -1.80 -1.52 -0.15 -0.32 -0.19 -0.59 -0.19 -1.27 0 -0.94 0.12 -1.31 0.57 -1.88 0.46 -0.57 1.59 -1.05 2.05 -0.86 0.15 0.06 0.15 0.07 -0.02 0.14 -0.13 0.05 -0.05 0.07 0.27 0.07 0.25 0 0.38 -0.02 0.29 -0.05 -0.23 -0.06 -0.09 -0.21 0.20 -0.21 0.78 0 1.73 0.67 2.09 1.46 0.18 0.41 0.22 0.62 0.22 1.38 -0.01 0.77 -0.04 0.96 -0.22 1.31 -0.50 0.97 -1.26 1.45 -2.40 1.50 -0.40 0.02 -0.87 -0.01 -1.06 -0.05z m2.73 -0.95 c0.17 -0.17 0.29 -0.32 0.26 -0.32 -0.03 0 -0.18 0.14 -0.35 0.32 -0.17 0.17 -0.29 0.32 -0.26 0.32 0.03 0 0.18 -0.14 0.35 -0.32z"/>
  <path d="M65.30 76.35 c0 -0.26 0.17 -0.41 0.20 -0.17 0.02 0.09 0.05 -4.38 0.07 -9.93 0.03 -5.55 0.04 -10.11 0.02 -10.13 -0.02 -0.02 -0.06 0.02 -0.11 0.09 -0.06 0.10 -0.09 0.07 -0.09 -0.11 l0 -0.25 1.26 0 c1.04 0 1.26 0.03 1.26 0.13 0 0.07 -0.07 0.15 -0.15 0.17 -0.09 0.03 0.06 0.05 0.33 0.05 0.27 0 0.42 -0.02 0.34 -0.05 -0.09 -0.02 -0.16 -0.10 -0.16 -0.17 0 -0.10 0.14 -0.13 0.54 -0.13 0.41 0 0.54 0.03 0.54 0.13 0 0.07 -0.07 0.15 -0.15 0.17 -0.15 0.04 -0.15 0.05 0 0.05 0.14 0.01 0.15 0.15 0.16 1.61 0.01 0.87 0.03 1.52 0.05 1.44 0.02 -0.09 0.10 -0.16 0.17 -0.16 0.10 0 0.13 0.19 0.13 0.95 0 0.76 -0.03 0.95 -0.13 0.95 -0.07 0 -0.15 -0.07 -0.17 -0.15 -0.03 -0.09 -0.05 0.02 -0.05 0.24 0 0.23 0.02 0.33 0.05 0.25 0.02 -0.09 0.10 -0.16 0.17 -0.16 0.10 0 0.13 0.18 0.13 0.90 l0 0.90 0.50 -0.41 c0.86 -0.71 1.95 -1.15 3.09 -1.27 0.30 -0.04 0.61 -0.03 0.70 0.01 0.15 0.06 0.15 0.07 -0.02 0.14 -0.14 0.05 -0.07 0.07 0.23 0.07 0.23 0 0.33 -0.02 0.24 -0.05 -0.28 -0.07 -0.06 -0.21 0.32 -0.21 0.56 0 1.36 0.23 2.10 0.59 0.80 0.40 1.74 1.34 2.12 2.15 0.58 1.24 0.57 1.11 0.60 7.11 l0.03 5.47 -2.21 0 -2.22 0 0 -0.22 c0 -0.27 0.15 -0.39 0.21 -0.17 0.03 0.09 0.05 -0.93 0.05 -2.27 0 -1.33 -0.02 -2.36 -0.05 -2.27 -0.02 0.08 -0.10 0.15 -0.17 0.15 -0.09 0 -0.13 -0.12 -0.13 -0.41 0 -0.29 0.04 -0.41 0.13 -0.41 0.07 0 0.15 0.07 0.17 0.16 0.03 0.08 0.05 -0.53 0.05 -1.38 0 -0.84 -0.02 -1.46 -0.05 -1.37 -0.02 0.08 -0.09 0.15 -0.15 0.15 -0.08 0 -0.14 -0.23 -0.16 -0.75 -0.05 -0.87 -0.32 -1.49 -0.83 -1.94 -0.53 -0.47 -0.86 -0.59 -1.50 -0.60 -1.12 0 -2.17 0.74 -2.73 1.92 -0.25 0.54 -0.29 0.70 -0.32 1.62 -0.03 0.76 -0.06 1.01 -0.15 1.01 -0.07 0 -0.14 -0.07 -0.16 -0.15 -0.03 -0.09 -0.05 1.38 -0.05 3.26 0 1.88 0.02 3.35 0.05 3.26 0.05 -0.22 0.21 -0.10 0.21 0.17 l0 0.22 -2.16 0 -2.16 0 0 -0.22z m9.64 -10.35 c0 -0.02 -0.15 -0.17 -0.33 -0.34 l-0.34 -0.31 0.31 0.34 c0.30 0.31 0.37 0.38 0.37 0.31z m-4.86 -2.81 c0.17 -0.17 0.29 -0.32 0.26 -0.32 -0.03 0 -0.18 0.14 -0.35 0.32 -0.17 0.17 -0.29 0.32 -0.26 0.32 0.03 0 0.18 -0.14 0.35 -0.32z m8.20 0.20 c0 -0.01 -0.22 -0.23 -0.47 -0.47 l-0.48 -0.45 0.45 0.48 c0.41 0.43 0.50 0.51 0.50 0.44z"/>
  <path d="M59.72 65.44 c0 -0.07 0.06 -0.14 0.14 -0.14 0.07 0 0.14 0.06 0.14 0.14 0 0.07 -0.06 0.14 -0.14 0.14 -0.07 0 -0.14 -0.06 -0.14 -0.14z"/>
  <path d="M53.21 62.28 c-0.04 -0.04 -0.06 -0.16 -0.06 -0.28 0 -0.16 0.05 -0.21 0.22 -0.21 0.13 0 0.25 0.05 0.28 0.09 0.03 0.05 -0.01 0.09 -0.09 0.09 -0.07 0 -0.17 0.08 -0.21 0.18 -0.04 0.11 -0.10 0.16 -0.14 0.13z"/>
  <path d="M12.52 61.84 c0 -0.07 0.06 -0.14 0.14 -0.14 0.07 0 0.14 0.06 0.14 0.14 0 0.07 -0.06 0.14 -0.14 0.14 -0.07 0 -0.14 -0.06 -0.14 -0.14z"/>
  <path d="M16.75 61.84 c0 -0.07 0.06 -0.14 0.14 -0.14 0.07 0 0.14 0.06 0.14 0.14 0 0.07 -0.06 0.14 -0.14 0.14 -0.07 0 -0.14 -0.06 -0.14 -0.14z"/>
  <path d="M55.49 61.84 c0 -0.07 0.06 -0.14 0.14 -0.14 0.07 0 0.14 0.06 0.14 0.14 0 0.07 -0.06 0.14 -0.14 0.14 -0.07 0 -0.14 -0.06 -0.14 -0.14z"/>
  <path d="M59.72 61.84 c0 -0.07 0.06 -0.14 0.14 -0.14 0.07 0 0.14 0.06 0.14 0.14 0 0.07 -0.06 0.14 -0.14 0.14 -0.07 0 -0.14 -0.06 -0.14 -0.14z"/>
  <path d="M55.64 58.40 c-0.04 -0.04 -0.06 -0.16 -0.06 -0.28 0 -0.16 0.05 -0.21 0.22 -0.21 0.13 0 0.25 0.05 0.28 0.09 0.03 0.05 -0.01 0.09 -0.09 0.09 -0.07 0 -0.17 0.08 -0.21 0.18 -0.04 0.11 -0.10 0.16 -0.14 0.13z"/>
  <path d="M12.67 58.31 c-0.04 -0.04 -0.06 -0.16 -0.06 -0.28 0 -0.16 0.05 -0.21 0.22 -0.21 0.13 0 0.25 0.05 0.28 0.09 0.03 0.05 -0.01 0.09 -0.09 0.09 -0.07 0 -0.17 0.08 -0.21 0.18 -0.04 0.11 -0.10 0.16 -0.14 0.13z"/>
  <path d="M46.76 52.64 c-1.10 -0.30 -2.01 -0.97 -2.53 -1.88 -0.45 -0.78 -0.79 -2.37 -0.55 -2.52 0.05 -0.03 0.11 0.03 0.13 0.11 0.03 0.09 0.04 -1.56 0.03 -3.67 l-0.01 -3.83 -1.17 -0.02 c-0.64 0 -1.10 0.01 -1.01 0.04 0.22 0.05 0.10 0.21 -0.17 0.21 l-0.22 0 0 -1.85 0 -1.85 1.25 0 c1.12 0 1.26 0.02 1.30 0.16 0.03 0.08 0.05 -0.76 0.05 -1.87 0 -1.12 -0.02 -1.95 -0.05 -1.86 -0.05 0.22 -0.21 0.10 -0.21 -0.17 l0 -0.22 2.16 0 2.16 0 0 0.22 c0 0.27 -0.15 0.39 -0.21 0.17 -0.03 -0.09 -0.05 0.67 -0.05 1.68 0 1.02 0.02 1.77 0.05 1.69 0.05 -0.23 0.30 -0.21 0.30 0.02 0 0.17 0.06 0.18 1.53 0.18 l1.53 0 0 1.85 0 1.85 -0.22 0 c-0.27 0 -0.39 -0.15 -0.17 -0.21 0.09 -0.03 -0.55 -0.05 -1.41 -0.05 -0.86 0 -1.50 0.02 -1.41 0.05 0.18 0.05 0.21 0.39 0.03 0.39 -0.07 0 -0.15 -0.07 -0.17 -0.15 -0.03 -0.09 -0.05 1.22 -0.05 2.90 0 1.68 0.02 2.99 0.05 2.91 0.07 -0.30 0.30 -0.19 0.30 0.14 0 0.69 0.44 1.43 1 1.67 0.37 0.15 0.45 0.33 0.20 0.40 -0.09 0.03 0.06 0.05 0.33 0.05 0.27 0 0.42 -0.02 0.34 -0.05 -0.09 -0.02 -0.16 -0.09 -0.16 -0.14 0 -0.14 0.79 -0.42 1.20 -0.42 0.30 0 0.33 0.03 0.41 0.34 0.05 0.18 0.19 0.73 0.32 1.22 0.13 0.50 0.23 1.01 0.23 1.16 0 0.61 -1.26 1.32 -2.60 1.48 -0.56 0.06 -0.91 -0.03 -0.59 -0.15 0.10 -0.05 -0.06 -0.06 -0.41 -0.06 -0.32 0 -0.51 0.02 -0.42 0.05 0.26 0.07 0.07 0.21 -0.28 0.20 -0.18 0 -0.55 -0.06 -0.82 -0.14z m-1.54 -1.25 c-0.22 -0.23 -0.41 -0.41 -0.44 -0.41 -0.03 0 0.14 0.18 0.35 0.41 0.22 0.23 0.41 0.41 0.44 0.41 0.03 0 -0.14 -0.18 -0.35 -0.41z"/>
  <path d="M14.47 51.55 c-4.32 -13.22 -4.39 -13.42 -4.39 -13.82 0 -0.32 0.03 -0.35 0.22 -0.35 0.28 0 0.38 0.14 0.14 0.21 -0.10 0.03 -0.18 0.10 -0.17 0.17 0 0.09 0.02 0.09 0.05 0.01 0.03 -0.09 0.52 -0.12 1.99 -0.13 1.08 -0.01 1.88 -0.03 1.79 -0.05 -0.23 -0.06 -0.09 -0.21 0.20 -0.21 0.23 0 0.26 0.05 0.41 0.57 0.08 0.31 0.58 1.92 1.09 3.58 0.51 1.66 1.04 3.38 1.18 3.83 l0.24 0.81 0.67 -2.30 c2.01 -6.86 1.87 -6.44 2.09 -6.47 0.12 -0.02 0.25 0.01 0.31 0.06 0.07 0.07 0.05 0.10 -0.05 0.10 -0.08 0 -0.17 0.03 -0.19 0.07 -0.03 0.04 0.80 0.06 1.83 0.06 1.03 0 1.86 -0.03 1.83 -0.06 -0.02 -0.05 -0.11 -0.07 -0.19 -0.07 -0.10 0 -0.12 -0.03 -0.05 -0.10 0.05 -0.05 0.19 -0.08 0.30 -0.06 0.19 0.03 0.32 0.41 1.52 4.41 0.72 2.40 1.34 4.33 1.37 4.28 0.05 -0.10 0.35 -1.09 1.93 -6.46 0.59 -1.99 0.67 -2.21 0.86 -2.23 0.11 -0.02 0.24 0.01 0.30 0.06 0.07 0.07 0.05 0.10 -0.05 0.10 -0.08 0 -0.17 0.03 -0.19 0.07 -0.03 0.04 0.83 0.05 1.90 0.04 1.50 -0.02 1.95 0 2.02 0.09 0.05 0.09 0.07 0.09 0.07 0 0 -0.07 -0.08 -0.14 -0.18 -0.17 -0.23 -0.06 -0.14 -0.21 0.14 -0.21 0.19 0 0.22 0.05 0.22 0.32 0 0.18 -0.37 1.49 -0.82 2.90 -0.45 1.42 -1.20 3.78 -1.66 5.24 -0.46 1.46 -1.13 3.55 -1.47 4.64 -0.56 1.76 -0.65 1.98 -0.83 2.01 -0.11 0.02 -0.24 -0.01 -0.30 -0.06 -0.07 -0.07 -0.05 -0.10 0.05 -0.10 0.08 0 0.17 -0.03 0.19 -0.06 0.03 -0.05 -0.90 -0.07 -2.05 -0.07 -1.15 0 -2.08 0.03 -2.05 0.07 0.02 0.04 0.11 0.06 0.19 0.06 0.10 0 0.12 0.03 0.05 0.10 -0.05 0.05 -0.19 0.08 -0.31 0.06 -0.23 -0.03 -0.24 -0.05 -1.89 -5.57 -0.45 -1.51 -0.85 -2.77 -0.88 -2.81 -0.04 -0.04 -0.38 1.02 -0.76 2.34 -1.79 6.18 -1.74 6.01 -1.95 6.03 -0.11 0.02 -0.24 -0.01 -0.30 -0.06 -0.07 -0.07 -0.05 -0.10 0.05 -0.10 0.08 0 0.17 -0.03 0.19 -0.06 0.03 -0.05 -0.87 -0.05 -1.99 -0.04 -1.13 0.02 -1.97 0.05 -1.88 0.07 0.23 0.06 0.09 0.21 -0.21 0.21 -0.24 0 -0.27 -0.04 -0.57 -0.96z"/>
  <path d="M38.73 52.30 c0 -0.07 0.07 -0.15 0.16 -0.17 0.08 -0.03 -0.65 -0.05 -1.62 -0.05 l-1.78 -0.01 -0.01 -7.22 c-0.01 -3.98 -0.03 -7.16 -0.05 -7.07 -0.05 0.22 -0.21 0.10 -0.21 -0.17 l0 -0.22 2.16 0 2.16 0 0 0.22 c0 0.27 -0.15 0.39 -0.21 0.17 -0.03 -0.09 -0.05 3.09 -0.05 7.06 -0.01 5.68 -0.04 7.22 -0.12 7.26 -0.09 0.04 -0.09 0.05 0 0.05 0.07 0.01 0.14 -0.07 0.17 -0.17 0.06 -0.23 0.21 -0.14 0.21 0.14 0 0.23 -0.15 0.32 -0.55 0.32 -0.16 0 -0.26 -0.05 -0.26 -0.13z"/>
  <path d="M57.60 52.25 c-0.03 -0.05 0.03 -0.11 0.11 -0.13 0.09 -0.03 -0.72 -0.05 -1.79 -0.05 l-1.96 -0.01 0 -10.13 0 -10.13 1.96 -0.01 c1.07 -0.01 1.88 -0.03 1.79 -0.05 -0.22 -0.05 -0.10 -0.21 0.17 -0.21 0.20 0 0.22 0.04 0.22 0.40 0 0.41 -0.14 0.63 -0.21 0.35 -0.03 -0.09 -0.05 1.46 -0.05 3.44 0 1.98 0.02 3.52 0.05 3.42 0.06 -0.31 1.03 -1.12 1.78 -1.50 0.72 -0.35 1.69 -0.62 2.31 -0.62 0.35 0 0.54 0.14 0.28 0.21 -0.09 0.03 0.02 0.05 0.24 0.05 0.23 0 0.33 -0.02 0.24 -0.05 -0.26 -0.07 -0.07 -0.21 0.28 -0.21 0.57 0 1.57 0.25 2.16 0.55 0.67 0.32 1.51 1.08 1.91 1.71 0.55 0.85 1.05 2.73 0.86 3.21 -0.06 0.15 -0.07 0.15 -0.14 -0.02 -0.05 -0.10 -0.07 0.64 -0.07 1.71 0 1.04 0.02 1.82 0.05 1.74 0.02 -0.09 0.10 -0.16 0.17 -0.16 0.10 0 0.13 0.15 0.13 0.72 0 0.57 -0.03 0.72 -0.13 0.72 -0.07 0 -0.15 -0.07 -0.17 -0.15 -0.03 -0.09 -0.05 0.06 -0.05 0.33 0 0.27 0.02 0.42 0.05 0.34 0.02 -0.09 0.10 -0.16 0.17 -0.16 0.11 0 0.13 0.36 0.13 2.25 0 1.89 -0.02 2.25 -0.13 2.25 -0.07 0 -0.15 -0.07 -0.17 -0.15 -0.04 -0.15 -0.05 -0.15 -0.05 0 -0.01 0.14 -0.17 0.15 -1.96 0.16 -1.08 0.01 -1.89 0.03 -1.80 0.05 0.22 0.05 0.10 0.21 -0.17 0.21 l-0.22 0 0 -4.22 c0 -2.50 0.04 -4.25 0.08 -4.29 0.05 -0.03 0.11 0.03 0.13 0.11 0.03 0.09 0.05 -0.06 0.05 -0.33 0 -0.27 -0.02 -0.42 -0.05 -0.33 -0.07 0.27 -0.27 0.17 -0.32 -0.17 -0.14 -0.80 -0.70 -1.54 -1.46 -1.89 -0.94 -0.44 -1.90 -0.18 -2.85 0.77 -0.59 0.59 -0.98 1.32 -0.98 1.81 0 0.23 -0.24 0.23 -0.30 0.03 -0.03 -0.09 -0.05 0.26 -0.05 0.78 0 0.52 0.02 0.87 0.05 0.78 0.08 -0.30 0.21 -0.05 0.21 0.39 0 0.44 -0.13 0.68 -0.21 0.39 -0.03 -0.09 -0.05 0.10 -0.05 0.42 0 0.32 0.02 0.51 0.05 0.42 0.08 -0.30 0.21 -0.05 0.21 0.39 0 0.44 -0.13 0.68 -0.21 0.39 -0.03 -0.09 -0.05 0.69 -0.05 1.73 0 1.04 0.02 1.82 0.05 1.73 0.09 -0.33 0.21 -0.03 0.21 0.53 0 0.55 -0.01 0.58 -0.22 0.58 -0.13 0 -0.24 -0.04 -0.28 -0.08z m0.71 -9.71 c0.08 -0.16 0.13 -0.30 0.11 -0.30 -0.05 0 -0.32 0.50 -0.32 0.59 0 0.10 0.05 0.03 0.22 -0.30z m8.34 -3.39 c0 -0.01 -0.22 -0.23 -0.47 -0.47 l-0.48 -0.45 0.45 0.48 c0.41 0.43 0.50 0.51 0.50 0.44z"/>
  <path d="M43.51 41.03 c0 -0.07 0.06 -0.14 0.14 -0.14 0.07 0 0.14 0.06 0.14 0.14 0 0.07 -0.06 0.14 -0.14 0.14 -0.07 0 -0.14 -0.06 -0.14 -0.14z"/>
  <path d="M36.57 35.73 c-0.59 -0.16 -1.04 -0.48 -1.34 -0.90 -0.38 -0.57 -0.47 -0.93 -0.43 -1.85 0.03 -0.72 0.06 -0.87 0.30 -1.25 0.84 -1.35 3.05 -1.60 4.20 -0.47 0.50 0.50 0.70 1.07 0.70 1.97 0 1.53 -0.86 2.47 -2.36 2.57 -0.40 0.03 -0.82 0 -1.06 -0.07z m-1.56 -2.74 c-0.03 -0.09 -0.05 -0.02 -0.05 0.15 0 0.17 0.02 0.24 0.05 0.16 0.02 -0.09 0.02 -0.23 0 -0.32z"/>
  <path d="M53.75 32.01 c-0.04 -0.04 -0.06 -0.16 -0.06 -0.28 0 -0.16 0.05 -0.21 0.22 -0.21 0.13 0 0.25 0.05 0.28 0.09 0.03 0.05 -0.01 0.09 -0.09 0.09 -0.07 0 -0.17 0.08 -0.21 0.18 -0.04 0.11 -0.10 0.16 -0.14 0.13z"/>
  <path d="M33.37 28.16 c-1.95 -0.37 -3.38 -1.69 -3.97 -3.71 -0.14 -0.48 -0.16 -1.10 -0.19 -5.95 l-0.04 -5.43 0.23 0 c0.27 0 0.39 0.15 0.17 0.21 -0.09 0.03 0.72 0.05 1.80 0.05 l1.95 0.01 0.01 4.26 c0.01 2.33 0.03 4.18 0.05 4.10 0.07 -0.30 0.27 -0.17 0.32 0.19 0.12 0.86 0.75 1.78 1.53 2.19 0.53 0.29 1.49 0.28 2.03 0 0.81 -0.43 1.45 -1.24 1.59 -2.02 0.06 -0.35 0.27 -0.46 0.34 -0.18 0.03 0.08 0.05 -0.01 0.05 -0.21 0 -0.20 -0.02 -0.29 -0.05 -0.20 -0.02 0.08 -0.08 0.14 -0.13 0.11 -0.05 -0.04 -0.08 -1.79 -0.08 -4.29 l0 -4.22 0.22 0 c0.27 0 0.39 0.15 0.17 0.21 -0.09 0.03 0.73 0.05 1.82 0.05 1.09 0 1.91 -0.02 1.82 -0.05 -0.22 -0.05 -0.10 -0.21 0.17 -0.21 l0.22 0 -0.02 7.37 -0.03 7.36 -0.25 0.03 c-0.14 0.02 -0.32 0 -0.41 -0.03 -0.14 -0.05 -0.14 -0.07 0.03 -0.14 0.10 -0.05 -0.59 -0.07 -1.62 -0.07 -0.99 0 -1.73 0.02 -1.64 0.05 0.23 0.06 0.09 0.21 -0.22 0.21 l-0.26 0 0 -0.59 0 -0.58 -0.60 0.46 c-1.05 0.80 -1.82 1.05 -3.36 1.11 -0.66 0.03 -1.27 0 -1.67 -0.08z m-2.03 -1.25 c0 -0.02 -0.17 -0.19 -0.38 -0.38 l-0.39 -0.36 0.36 0.39 c0.32 0.35 0.41 0.42 0.41 0.35z m-1.23 -1.64 c-0.08 -0.17 -0.16 -0.30 -0.19 -0.28 -0.04 0.05 0.23 0.59 0.30 0.59 0.03 0 -0.03 -0.14 -0.11 -0.32z m8.26 -1.53 c0.17 -0.17 0.29 -0.32 0.26 -0.32 -0.03 0 -0.18 0.14 -0.35 0.32 -0.17 0.17 -0.29 0.32 -0.26 0.32 0.03 0 0.18 -0.14 0.35 -0.32z"/>
  <path d="M66.25 28.18 c-1.88 -0.32 -3.14 -1.59 -3.51 -3.54 -0.15 -0.79 -0.18 -1.55 -0.05 -1.63 0.05 -0.03 0.11 0.03 0.13 0.11 0.03 0.09 0.05 -1.37 0.05 -3.23 l0.01 -3.40 -1.13 0 -1.13 0 -0.01 -0.56 c-0.01 -0.32 -0.03 -0.50 -0.05 -0.41 -0.02 0.09 -0.10 0.16 -0.17 0.16 -0.10 0 -0.13 -0.16 -0.13 -0.77 0 -0.60 0.03 -0.77 0.13 -0.77 0.07 0 0.15 0.07 0.17 0.15 0.03 0.09 0.05 -0.09 0.05 -0.40 l0.01 -0.56 1.11 -0.03 1.10 -0.03 0.01 -1.89 c0.01 -1.04 0 -1.82 -0.03 -1.73 -0.06 0.25 -0.21 0.08 -0.21 -0.26 l0 -0.31 0.71 0 c0.67 0 1.03 0.12 0.67 0.21 -0.09 0.03 0.45 0.05 1.19 0.05 0.75 0 1.28 -0.02 1.19 -0.05 -0.27 -0.07 -0.07 -0.21 0.31 -0.21 0.32 0 0.35 0.03 0.35 0.22 0 0.27 -0.15 0.39 -0.21 0.17 -0.03 -0.09 -0.04 0.73 -0.03 1.82 l0.01 1.98 1.67 0.01 c0.92 0.01 1.59 0 1.50 -0.03 -0.22 -0.05 -0.10 -0.21 0.17 -0.21 l0.22 0 0 1.85 0 1.85 -0.22 0 c-0.27 0 -0.39 -0.15 -0.17 -0.21 0.09 -0.03 -0.59 -0.04 -1.50 -0.03 l-1.67 0.01 -0.01 3.15 c-0.01 1.74 0 3.08 0.03 3 0.02 -0.09 0.10 -0.16 0.17 -0.16 0.07 0 0.13 0.07 0.13 0.16 0 0.28 0.42 1.06 0.68 1.27 0.14 0.11 0.37 0.23 0.50 0.25 0.28 0.05 0.34 0.26 0.10 0.32 -0.09 0.03 0.05 0.05 0.29 0.05 0.25 0 0.38 -0.02 0.30 -0.05 -0.31 -0.08 -0.15 -0.25 0.38 -0.46 0.95 -0.36 0.95 -0.35 1.36 1.11 0.19 0.69 0.35 1.37 0.35 1.50 0 0.31 -0.57 0.83 -1.22 1.13 -0.92 0.42 -2.43 0.59 -3.60 0.39z m4.33 -1.27 l0.26 -0.30 -0.29 0.26 c-0.16 0.15 -0.30 0.28 -0.30 0.30 0 0.07 0.07 0.01 0.32 -0.26z m-6.09 0.17 c0 -0.02 -0.15 -0.17 -0.33 -0.34 l-0.34 -0.31 0.31 0.34 c0.30 0.31 0.37 0.38 0.37 0.31z"/>
  <path d="M18.61 27.96 c-1.16 -0.28 -2.67 -1.25 -2.67 -1.72 l0 -0.23 0.25 0.22 0.24 0.22 -0.22 -0.24 c-0.13 -0.14 -0.25 -0.25 -0.30 -0.25 -0.04 0 -0.06 0.38 -0.06 0.84 0.01 0.45 0.03 0.76 0.05 0.67 0.05 -0.22 0.21 -0.10 0.21 0.17 0 0.21 -0.02 0.22 -0.67 0.22 -0.63 0 -0.97 -0.12 -0.62 -0.21 0.09 -0.03 -0.24 -0.05 -0.74 -0.05 -0.50 0 -0.83 0.02 -0.74 0.05 0.39 0.10 -0.02 0.21 -0.80 0.21 l-0.85 0 0 -0.26 c0 -0.31 0.14 -0.45 0.21 -0.22 0.03 0.09 0.05 -4.32 0.05 -9.81 l0.01 -9.98 1.96 -0.01 c1.07 -0.01 1.88 -0.03 1.79 -0.05 -0.22 -0.05 -0.10 -0.21 0.17 -0.21 l0.22 0 0 3.41 c0 2 -0.04 3.44 -0.08 3.48 -0.05 0.03 -0.11 -0.03 -0.13 -0.11 -0.03 -0.09 -0.05 0.17 -0.05 0.59 -0.01 0.68 0.06 0.89 0.23 0.63 0.04 -0.06 0.03 -0.07 -0.04 -0.04 -0.07 0.05 -0.11 -0.03 -0.11 -0.20 0 -0.22 0.13 -0.38 0.59 -0.82 0.32 -0.31 0.84 -0.68 1.14 -0.83 0.91 -0.46 2.49 -0.78 2.64 -0.54 0.03 0.05 -0.03 0.11 -0.11 0.13 -0.09 0.03 0.06 0.05 0.33 0.05 0.34 0 0.44 -0.02 0.32 -0.07 -0.17 -0.06 -0.17 -0.07 -0.02 -0.14 0.47 -0.19 2.23 0.27 3.14 0.82 1.45 0.88 2.57 2.51 2.99 4.37 0.18 0.78 0.27 1.66 0.19 1.86 -0.06 0.15 -0.07 0.15 -0.14 -0.02 -0.05 -0.12 -0.08 0.10 -0.08 0.59 0 0.49 0.03 0.70 0.08 0.59 0.15 -0.39 0.21 0.15 0.10 0.98 -0.23 1.68 -0.88 3.08 -1.99 4.21 -1.01 1.02 -2.32 1.70 -3.58 1.85 -0.57 0.06 -0.92 -0.03 -0.59 -0.15 0.10 -0.04 -0.16 -0.06 -0.59 -0.06 -0.42 0 -0.69 0.02 -0.60 0.05 0.26 0.07 0.07 0.21 -0.28 0.20 -0.18 0 -0.57 -0.06 -0.86 -0.14z m6.70 -2.35 c0 -0.07 -0.08 0 -0.45 0.41 l-0.41 0.42 0.43 -0.41 c0.23 -0.22 0.42 -0.41 0.42 -0.42z m-4.75 -1.59 c0.99 -0.45 1.91 -1.63 2.09 -2.67 0.06 -0.38 0.27 -0.50 0.34 -0.21 0.03 0.08 0.05 -0.01 0.05 -0.21 0 -0.20 -0.02 -0.29 -0.05 -0.20 -0.07 0.27 -0.21 0.07 -0.21 -0.30 0 -0.37 0.14 -0.57 0.21 -0.30 0.03 0.09 0.05 0 0.05 -0.20 0 -0.20 -0.02 -0.29 -0.05 -0.20 -0.07 0.28 -0.27 0.16 -0.33 -0.20 -0.08 -0.51 -0.55 -1.34 -1.03 -1.84 -0.42 -0.43 -1.34 -0.96 -1.66 -0.96 -0.21 0 -0.22 -0.24 0 -0.30 0.08 -0.03 -0.13 -0.05 -0.48 -0.05 -0.34 0 -0.56 0.02 -0.47 0.05 0.23 0.06 0.19 0.30 -0.05 0.30 -0.32 0 -1.27 0.50 -1.68 0.90 -0.48 0.47 -0.77 0.94 -1.01 1.64 -0.16 0.49 -0.18 0.71 -0.14 1.51 0.05 1.07 0.21 1.59 0.69 2.23 0.88 1.17 2.42 1.58 3.72 0.98z m-3.36 -0.09 c0 -0.02 -0.15 -0.17 -0.33 -0.34 l-0.34 -0.31 0.31 0.34 c0.30 0.31 0.37 0.38 0.37 0.31z m5.04 -0.76 c0 -0.07 -0.08 0 -0.45 0.41 l-0.41 0.42 0.43 -0.41 c0.23 -0.22 0.42 -0.41 0.42 -0.42z m0.41 -4.70 c-0.19 -0.39 -0.26 -0.35 -0.07 0.04 0.08 0.17 0.16 0.30 0.19 0.28 0.02 -0.02 -0.04 -0.16 -0.12 -0.32z m-5.99 -3.84 c0.27 -0.27 0.47 -0.50 0.44 -0.50 -0.02 0 -0.26 0.23 -0.53 0.50 -0.27 0.27 -0.47 0.50 -0.44 0.50 0.02 0 0.26 -0.23 0.53 -0.50z"/>
  <path d="M46.66 27.62 c0 -0.27 0.15 -0.39 0.21 -0.17 0.03 0.09 0.05 -3.05 0.05 -6.97 l0.01 -7.14 1.89 0 1.89 0 0.01 7.14 c0.01 3.92 0.03 7.06 0.05 6.97 0.05 -0.22 0.21 -0.10 0.21 0.17 0 0.18 -0.05 0.22 -0.26 0.22 -0.31 0 -0.45 -0.14 -0.22 -0.21 0.09 -0.03 -0.63 -0.05 -1.59 -0.05 -0.96 0 -1.68 0.02 -1.59 0.05 0.27 0.07 0.07 0.21 -0.31 0.21 -0.32 0 -0.35 -0.03 -0.35 -0.22z"/>
  <path d="M54.31 27.62 c0 -0.27 0.15 -0.39 0.21 -0.17 0.03 0.09 0.05 -4.35 0.05 -9.85 l0.01 -10.03 1.96 -0.01 c1.07 -0.01 1.88 -0.03 1.79 -0.05 -0.22 -0.05 -0.10 -0.21 0.17 -0.21 l0.22 0 0 10.27 0 10.27 -0.76 0 c-0.70 0 -1.08 -0.11 -0.71 -0.21 0.09 -0.03 -0.12 -0.05 -0.47 -0.05 -0.34 0 -0.56 0.02 -0.47 0.05 0.08 0.02 0.14 0.08 0.11 0.13 -0.04 0.05 -0.52 0.08 -1.09 0.08 l-1.03 0 0 -0.22z"/>
  <path d="M66.83 16.71 c0 -0.07 0.06 -0.14 0.14 -0.14 0.07 0 0.14 0.06 0.14 0.14 0 0.07 -0.06 0.14 -0.14 0.14 -0.07 0 -0.14 -0.06 -0.14 -0.14z"/>
  <path d="M33.42 13.47 c0 -0.08 -0.08 -0.17 -0.18 -0.20 -0.23 -0.06 -0.14 -0.21 0.14 -0.21 0.17 0 0.22 0.05 0.22 0.22 0 0.13 -0.04 0.25 -0.09 0.28 -0.05 0.03 -0.09 -0.01 -0.09 -0.09z"/>
  <path d="M46.72 13.55 c-0.04 -0.04 -0.06 -0.16 -0.06 -0.28 0 -0.16 0.05 -0.21 0.22 -0.21 0.13 0 0.25 0.05 0.28 0.09 0.03 0.05 -0.01 0.09 -0.09 0.09 -0.07 0 -0.17 0.08 -0.21 0.18 -0.04 0.11 -0.10 0.16 -0.14 0.13z"/>
  <path d="M62.51 13.11 c0 -0.07 0.06 -0.14 0.14 -0.14 0.07 0 0.14 0.06 0.14 0.14 0 0.07 -0.06 0.14 -0.14 0.14 -0.07 0 -0.14 -0.06 -0.14 -0.14z"/>
  <path d="M66.83 13.11 c0 -0.07 0.06 -0.14 0.14 -0.14 0.07 0 0.14 0.06 0.14 0.14 0 0.07 -0.06 0.14 -0.14 0.14 -0.07 0 -0.14 -0.06 -0.14 -0.14z"/>
  <path d="M47.83 11.27 c-0.93 -0.29 -1.70 -1.24 -1.71 -2.10 0 -0.35 0.14 -0.54 0.21 -0.28 0.03 0.09 0.05 0 0.05 -0.20 0 -0.20 -0.02 -0.29 -0.05 -0.20 -0.07 0.26 -0.21 0.07 -0.21 -0.29 0 -0.46 0.39 -1.21 0.83 -1.59 0.54 -0.46 1.10 -0.61 2.04 -0.57 1.19 0.05 1.90 0.51 2.32 1.50 0.23 0.53 0.21 1.83 -0.05 2.43 -0.33 0.74 -1.18 1.36 -1.87 1.37 -0.32 0 -0.48 -0.14 -0.23 -0.21 0.09 -0.03 -0.06 -0.05 -0.33 -0.05 -0.27 0 -0.42 0.02 -0.33 0.05 0.08 0.02 0.14 0.08 0.11 0.13 -0.06 0.10 -0.44 0.10 -0.77 0z m-0.54 -0.67 c0 -0.02 -0.14 -0.14 -0.29 -0.30 l-0.30 -0.26 0.26 0.30 c0.25 0.27 0.32 0.33 0.32 0.26z"/>
  <path d="M11.77 7.78 c-0.04 -0.04 -0.06 -0.16 -0.06 -0.28 0 -0.16 0.05 -0.21 0.22 -0.21 0.13 0 0.25 0.05 0.28 0.09 0.03 0.05 -0.01 0.09 -0.09 0.09 -0.07 0 -0.17 0.08 -0.21 0.18 -0.04 0.11 -0.10 0.16 -0.14 0.13z"/>
  <path d="M54.38 7.78 c-0.04 -0.04 -0.06 -0.16 -0.06 -0.28 0 -0.16 0.05 -0.21 0.22 -0.21 0.13 0 0.25 0.05 0.28 0.09 0.03 0.05 -0.01 0.09 -0.09 0.09 -0.07 0 -0.17 0.08 -0.21 0.18 -0.04 0.11 -0.10 0.16 -0.14 0.13z"/>
 </g>
 <g fill="#aaaaaa">
  <path d="M16.17 80.53 c-2.96 -0.47 -5.31 -2.06 -6.49 -4.41 -0.73 -1.46 -0.95 -2.63 -0.95 -5.22 l0 -1.95 -0.30 -0.11 c-0.90 -0.32 -1.64 -1.14 -1.96 -2.17 -0.15 -0.50 -0.17 -0.84 -0.17 -2.97 0 -2.59 0.04 -2.89 0.51 -3.83 0.29 -0.58 0.98 -1.23 1.59 -1.54 l0.49 -0.23 0.04 -0.69 c0.06 -1.47 0.98 -2.63 2.45 -3.12 0.11 -0.04 0.14 -0.11 0.11 -0.21 -0.04 -0.08 -1.20 -3.62 -2.59 -7.85 -2.45 -7.48 -2.53 -7.74 -2.58 -8.57 -0.07 -1.39 0.28 -2.29 1.21 -3.13 0.90 -0.82 0.88 -0.82 5.44 -0.82 l3.96 0 0 -1.10 0 -1.11 -3.01 -0.02 c-2.49 -0.02 -3.09 -0.05 -3.45 -0.17 -1.01 -0.33 -1.80 -1.08 -2.21 -2.08 l-0.21 -0.52 0 -11.21 0 -11.21 0.22 -0.54 c0.30 -0.75 1.20 -1.65 1.95 -1.95 0.53 -0.22 0.57 -0.22 3.69 -0.22 3.07 0 3.16 0.01 3.67 0.21 0.98 0.40 1.65 1.07 2.06 2.10 0.16 0.41 0.21 0.72 0.24 1.86 l0.04 1.37 0.93 0 c1.57 0 3.14 0.39 4.58 1.13 l0.81 0.41 0.37 -0.41 c0.22 -0.23 0.60 -0.51 0.91 -0.66 l0.53 -0.25 3.23 -0.03 c3.62 -0.03 3.86 0 4.60 0.57 l0.41 0.32 0.29 -0.22 c0.16 -0.13 0.50 -0.32 0.75 -0.43 0.41 -0.19 0.59 -0.21 2.69 -0.25 l2.25 -0.05 0.05 -0.86 c0.12 -1.69 0.68 -2.94 1.88 -4.13 1.16 -1.16 2.31 -1.70 4.02 -1.90 1.53 -0.17 3.40 0.28 4.42 1.06 0.40 0.31 0.41 0.31 0.86 0.21 0.32 -0.07 1.39 -0.10 3.26 -0.07 l2.79 0.03 0.59 0.28 c0.71 0.33 1.08 0.64 1.40 1.14 l0.24 0.38 2.50 -0.04 c1.56 -0.02 2.76 0.01 3.17 0.07 1.78 0.27 3.01 1.50 3.26 3.30 l0.10 0.66 0.48 0.11 c0.70 0.15 1.52 0.74 1.96 1.40 0.66 0.97 0.70 1.24 0.75 3.76 0.04 2.40 -0.02 2.86 -0.40 3.67 -0.32 0.68 -0.76 1.19 -1.40 1.60 l-0.54 0.36 0.30 0.18 c0.74 0.46 1.63 1.61 2.09 2.69 1.45 3.45 0.49 6.39 -2.60 7.92 -1.19 0.59 -2 0.77 -3.56 0.82 -1.41 0.05 -2.49 -0.09 -3.34 -0.42 -0.24 -0.10 -0.49 -0.18 -0.53 -0.18 -0.05 0 -0.09 0.45 -0.09 1.08 l0 1.07 0.34 0.06 c2.33 0.40 4.32 1.72 5.73 3.82 0.88 1.31 1.49 3.08 1.68 4.87 0.05 0.51 0.09 3.06 0.09 5.84 l0 4.92 0.32 0.25 c0.83 0.67 1.30 1.78 1.37 3.31 l0.05 1.04 1.13 0.05 c1.78 0.08 3.11 0.50 4.49 1.41 2.49 1.64 3.95 4.27 4.13 7.43 0.06 1.09 0.07 1.13 0.25 1.09 1.37 -0.27 3.13 0.02 4.43 0.74 0.24 0.13 0.78 0.59 1.21 1.01 1.23 1.23 1.77 2.50 1.86 4.38 0.05 1.26 -0.10 2.05 -0.64 3.17 -0.67 1.37 -1.87 2.50 -3.31 3.09 -1.69 0.70 -3.49 0.71 -5.18 0.04 -0.54 -0.22 -0.64 -0.23 -0.88 -0.13 -0.95 0.39 -0.90 0.38 -3.75 0.37 -3.25 -0.02 -3.58 -0.08 -4.55 -0.86 l-0.36 -0.29 -0.36 0.30 c-0.19 0.17 -0.58 0.42 -0.85 0.56 l-0.50 0.24 -3.69 0.02 c-3.40 0.02 -3.75 0.04 -4.41 0.21 -0.95 0.24 -2.31 0.32 -3.31 0.19 -2.22 -0.30 -3.88 -1.05 -5.15 -2.33 l-0.61 -0.63 -0.60 0.49 c-1.54 1.24 -3.44 2.05 -5.57 2.37 -0.95 0.14 -2.93 0.12 -3.91 -0.05 -1.89 -0.32 -3.78 -1.13 -5.22 -2.22 l-0.83 -0.63 -0.29 0.27 c-0.48 0.45 -1.34 1.04 -2.11 1.44 -3.29 1.71 -7.79 1.74 -11.34 0.06 l-0.83 -0.39 -0.43 0.27 c-1.33 0.86 -2.87 1.32 -4.58 1.38 -0.59 0.02 -1.32 0 -1.62 -0.05z m2.52 -3.93 c0.72 -0.17 1.38 -0.50 1.73 -0.86 l0.29 -0.30 -0.32 -1.22 c-0.17 -0.67 -0.34 -1.25 -0.39 -1.29 -0.04 -0.05 -0.24 0.02 -0.46 0.13 -0.29 0.14 -0.56 0.21 -0.99 0.21 -0.76 0.01 -1.22 -0.26 -1.53 -0.91 -0.22 -0.43 -0.22 -0.47 -0.24 -3.78 l-0.03 -3.36 1.59 0 1.58 0 0 -1.62 0 -1.62 -1.58 0 -1.58 0 0 -1.94 c0 -1.93 0 -1.94 -0.20 -1.98 -0.12 -0.03 -1 -0.04 -1.96 -0.03 l-1.76 0.03 -0.03 1.96 -0.02 1.95 -1.26 0 -1.26 0 0 1.62 0 1.62 1.26 0 1.26 0 0 3.63 c0 2.03 0.05 3.87 0.09 4.19 0.27 1.66 1.23 2.90 2.68 3.44 0.99 0.37 1.97 0.41 3.13 0.13z m43.05 0 c0.70 -0.18 1.29 -0.49 1.66 -0.86 l0.30 -0.32 -0.35 -1.25 c-0.19 -0.68 -0.39 -1.24 -0.43 -1.23 -0.05 0.02 -0.32 0.11 -0.62 0.22 -1.01 0.35 -1.89 0.05 -2.31 -0.79 -0.22 -0.42 -0.22 -0.47 -0.24 -3.74 l-0.03 -3.31 1.34 0 c0.74 0 1.48 -0.03 1.63 -0.05 l0.28 -0.06 -0.02 -1.59 -0.03 -1.59 -1.59 -0.03 -1.60 -0.02 0 -1.94 0 -1.94 -1.95 0.02 -1.96 0.03 -0.03 1.91 -0.02 1.91 -1.20 0.03 -1.19 0.03 -0.03 1.40 c-0.01 0.77 0 1.49 0.03 1.60 0.05 0.19 0.08 0.20 1.21 0.20 l1.17 0 0.03 3.95 c0.04 3.83 0.05 3.95 0.24 4.57 0.26 0.79 0.52 1.24 1.02 1.75 1.17 1.20 2.84 1.59 4.70 1.13z m-30.43 -0.13 c1.41 -0.33 2.64 -1.04 3.55 -2.05 0.30 -0.33 0.54 -0.63 0.54 -0.66 0 -0.04 -0.46 -0.37 -1.01 -0.75 -0.56 -0.38 -1.19 -0.81 -1.40 -0.97 l-0.38 -0.28 -0.59 0.54 c-1.67 1.57 -3.86 1.59 -5.45 0.07 -0.51 -0.49 -0.99 -1.28 -1.13 -1.86 l-0.05 -0.25 5.28 0 5.29 0 -0.05 -1.50 c-0.05 -1.72 -0.22 -2.50 -0.73 -3.54 -0.86 -1.69 -2.24 -2.86 -4.11 -3.44 -0.59 -0.18 -0.86 -0.21 -2.07 -0.21 -1.19 0 -1.50 0.03 -2.12 0.21 -2.55 0.73 -4.38 2.62 -5.06 5.22 -0.44 1.67 -0.29 3.88 0.36 5.35 1.03 2.32 3.24 3.95 5.87 4.30 0.87 0.12 2.38 0.05 3.25 -0.17z m16.38 -0.04 c1.29 -0.33 2.18 -0.84 3.13 -1.77 0.44 -0.42 0.79 -0.82 0.79 -0.87 0 -0.05 -0.43 -0.40 -0.96 -0.76 -0.54 -0.37 -1.16 -0.80 -1.39 -0.96 l-0.41 -0.30 -0.50 0.50 c-1.29 1.30 -3.23 1.59 -4.71 0.74 -0.82 -0.49 -1.68 -1.62 -1.89 -2.50 l-0.06 -0.25 5.29 0 5.30 0 -0.05 -1.50 c-0.05 -1.68 -0.20 -2.36 -0.74 -3.49 -0.82 -1.72 -2.38 -3 -4.28 -3.53 -0.92 -0.25 -3.05 -0.23 -4.01 0.05 -2.06 0.59 -3.67 1.91 -4.55 3.74 -0.53 1.13 -0.73 1.92 -0.78 3.22 -0.05 1.32 0.08 2.19 0.50 3.31 0.95 2.46 3.17 4.19 5.91 4.62 0.86 0.13 2.42 0.03 3.41 -0.22z m37.85 -0.03 c0.59 -0.20 1.31 -0.91 1.50 -1.50 0.50 -1.49 -0.26 -3.02 -1.71 -3.44 -1.74 -0.50 -3.49 0.91 -3.34 2.70 0.08 0.96 0.57 1.68 1.44 2.12 0.65 0.32 1.39 0.37 2.11 0.13z m-16.09 -4.20 c0 -4.34 0.03 -4.63 0.46 -5.48 0.30 -0.59 0.85 -1.12 1.50 -1.43 0.51 -0.25 0.70 -0.30 1.29 -0.31 0.37 0 0.84 0.05 1.03 0.12 0.50 0.17 1.16 0.83 1.41 1.39 l0.22 0.47 0.03 4.67 0.03 4.66 1.97 0 1.98 0 0 -5.05 c0 -5.60 -0.01 -5.73 -0.59 -7 -0.55 -1.20 -1.73 -2.17 -3.15 -2.59 -0.71 -0.22 -2.13 -0.21 -2.92 0.01 -1.14 0.32 -2.27 1.01 -2.93 1.79 l-0.32 0.37 0 -3.85 0 -3.86 -1.98 0 -1.98 0 0 10.09 0 10.09 1.98 0 1.98 0 0 -4.08z m-19.64 -19.84 c0.68 -0.21 1.26 -0.50 1.58 -0.85 l0.27 -0.28 -0.31 -1.19 c-0.17 -0.66 -0.33 -1.22 -0.36 -1.25 -0.04 -0.04 -0.27 0.01 -0.53 0.11 -0.55 0.21 -1.36 0.23 -1.71 0.05 -0.31 -0.16 -0.58 -0.46 -0.79 -0.86 -0.15 -0.29 -0.17 -0.60 -0.20 -3.76 l-0.03 -3.45 1.53 0 1.54 0 0 -1.62 0 -1.62 -1.53 0 -1.53 0 0 -1.98 0 -1.98 -1.98 0 -1.98 0 0 1.98 0 1.98 -1.13 0 -1.13 0 0 1.62 0 1.62 1.13 0 1.13 0 0 3.69 c0 4.10 0.05 4.62 0.55 5.65 0.76 1.57 2.31 2.43 4.22 2.32 0.42 -0.02 0.99 -0.11 1.26 -0.19z m-30.16 -1.84 c0.29 -0.96 0.89 -3.04 1.35 -4.61 0.72 -2.50 0.97 -3.22 0.97 -2.74 0 0.07 0.22 0.85 0.49 1.74 0.27 0.88 0.86 2.84 1.32 4.35 0.46 1.51 0.87 2.82 0.92 2.91 0.07 0.14 0.27 0.15 2.11 0.15 l2.02 0 0.09 -0.23 c0.05 -0.13 0.80 -2.47 1.66 -5.20 0.86 -2.74 1.88 -5.93 2.25 -7.09 0.37 -1.16 0.64 -2.14 0.60 -2.19 -0.04 -0.04 -0.94 -0.05 -1.99 -0.05 l-1.93 0.03 -0.25 0.81 c-0.13 0.45 -0.75 2.53 -1.38 4.64 -1.33 4.51 -1.22 4.15 -1.32 3.92 -0.04 -0.10 -0.57 -1.82 -1.16 -3.83 -0.60 -2.01 -1.23 -4.07 -1.39 -4.59 l-0.29 -0.95 -1.79 -0.03 c-0.98 -0.01 -1.82 0.01 -1.86 0.05 -0.07 0.07 -0.41 1.16 -1.88 6.24 -0.45 1.56 -0.86 2.94 -0.89 3.06 -0.07 0.21 -0.08 0.19 -0.21 -0.23 -1.05 -3.48 -2.73 -8.86 -2.79 -8.98 -0.07 -0.14 -0.26 -0.16 -2.01 -0.16 -1.05 0 -1.95 0.04 -1.97 0.08 -0.03 0.04 0.11 0.56 0.31 1.14 0.39 1.19 2.03 6.23 3.41 10.51 0.50 1.53 0.95 2.84 1.01 2.91 0.09 0.11 0.46 0.13 2.10 0.11 l1.99 -0.03 0.51 -1.76z m19.69 -5.65 l0.02 -7.23 -1.98 0 -1.98 0 0 7.25 0 7.25 1.96 -0.02 1.95 -0.03 0.03 -7.22z m18.52 6.53 c0.03 -0.41 0.05 -2.31 0.05 -4.22 -0.01 -2.48 0.02 -3.58 0.10 -3.87 0.28 -1.04 0.94 -1.86 1.86 -2.30 0.45 -0.23 0.65 -0.26 1.30 -0.27 0.68 0 0.82 0.03 1.25 0.27 0.56 0.31 1 0.86 1.23 1.53 0.14 0.40 0.16 0.97 0.20 5.03 l0.04 4.57 1.98 0 1.97 0 -0.03 -5.20 c-0.04 -5.11 -0.04 -5.22 -0.24 -5.88 -0.53 -1.77 -1.67 -3.01 -3.22 -3.53 -2.06 -0.69 -4.32 -0.17 -5.89 1.37 -0.30 0.30 -0.54 0.51 -0.54 0.47 0 -0.04 0 -1.61 0 -3.50 0 -1.89 -0.02 -3.60 -0.05 -3.81 l-0.06 -0.36 -1.95 0.02 -1.95 0.03 -0.03 10.21 -0.02 10.20 1.97 0 1.97 0 0.05 -0.74z m-19.46 -16.06 c1.87 -0.90 1.75 -3.75 -0.21 -4.41 -1.58 -0.53 -3.21 0.62 -3.20 2.25 0.01 0.65 0.18 1.07 0.63 1.58 0.33 0.36 0.67 0.59 1.12 0.73 0.36 0.12 1.28 0.04 1.66 -0.14z m-1.77 -7.61 c0.75 -0.26 1.56 -0.79 2.13 -1.41 l0.47 -0.50 0.05 0.88 0.05 0.88 1.62 0.03 c0.89 0.02 1.76 0 1.92 -0.03 l0.29 -0.05 0 -7.15 0 -7.16 -1.94 0 -1.94 0 0 3.95 c-0.01 4.10 -0.06 4.99 -0.35 5.65 -0.24 0.56 -0.85 1.17 -1.43 1.46 -0.41 0.21 -0.61 0.24 -1.23 0.24 -0.62 0 -0.81 -0.04 -1.24 -0.25 -0.61 -0.30 -1.07 -0.80 -1.34 -1.49 -0.21 -0.50 -0.21 -0.59 -0.25 -5.01 l-0.05 -4.50 -1.95 -0.03 -1.96 -0.02 0 5.07 c0 4.78 0.01 5.12 0.18 5.79 0.50 2 1.76 3.29 3.69 3.77 0.77 0.20 2.59 0.13 3.31 -0.14z m32.08 0.14 c0.68 -0.16 1.51 -0.59 1.86 -0.95 l0.24 -0.25 -0.29 -1.11 c-0.16 -0.61 -0.32 -1.18 -0.34 -1.27 -0.05 -0.18 -0.07 -0.18 -0.70 0.06 -0.42 0.16 -1.19 0.18 -1.55 0.05 -0.40 -0.14 -0.73 -0.52 -0.93 -1.04 -0.17 -0.45 -0.18 -0.70 -0.18 -3.63 l0 -3.15 1.61 0 1.60 0 0.05 -0.33 c0.03 -0.19 0.04 -0.48 0.03 -0.63 -0.01 -0.16 -0.03 -0.77 -0.04 -1.33 l-0.02 -1.04 -1.62 0 -1.62 0 0 -1.93 0 -1.94 -0.42 -0.06 c-0.68 -0.10 -3.47 0.03 -3.56 0.16 -0.04 0.06 -0.07 0.94 -0.07 1.95 l0 1.82 -1.13 0 -1.13 0 0 1.67 0 1.67 1.12 0 1.12 0 0.05 3.81 c0.04 3.22 0.06 3.88 0.20 4.33 0.46 1.63 1.54 2.76 3.03 3.15 0.64 0.17 1.96 0.17 2.68 0.01z m-46.51 -0.23 c2.25 -0.69 3.95 -2.59 4.56 -5.09 0.23 -0.95 0.28 -2.95 0.09 -3.91 -0.30 -1.50 -1.09 -3.02 -2.08 -3.97 -2.40 -2.29 -6.20 -2.23 -8.35 0.12 l-0.45 0.50 -0.05 -1 c-0.04 -0.56 -0.06 -2.31 -0.06 -3.92 l0 -2.90 -1.95 0.02 -1.96 0.03 -0.03 9.94 c-0.01 5.81 0.02 9.99 0.06 10.03 0.09 0.09 3.20 0.16 3.68 0.09 l0.29 -0.05 0 -0.77 0 -0.77 0.48 0.40 c0.90 0.78 1.70 1.18 2.86 1.42 0.64 0.14 2.20 0.04 2.92 -0.18z m28.45 -0.05 c0.13 -0.05 0.14 -0.77 0.14 -7.21 l0 -7.15 -1.95 0.02 -1.96 0.03 -0.03 7.13 -0.02 7.13 0.20 0.04 c0.32 0.06 3.47 0.07 3.62 0.01z m6.97 0 l0.83 -0.06 0 -10.03 0 -10.03 -1.95 0.02 -1.96 0.03 -0.03 10.02 -0.02 10.02 0.87 0.04 c0.49 0.01 1.01 0.04 1.16 0.05 0.15 0.01 0.65 -0.01 1.10 -0.04z m-7.62 -16.76 c0.84 -0.47 1.31 -1.39 1.22 -2.38 -0.05 -0.63 -0.31 -1.13 -0.78 -1.56 -0.51 -0.46 -0.93 -0.62 -1.62 -0.62 -0.98 0 -1.75 0.45 -2.21 1.31 -0.23 0.40 -0.26 0.58 -0.26 1.11 0 1.14 0.67 2.02 1.84 2.40 0.45 0.15 1.32 0.03 1.82 -0.25z"/>
  <path d="M25.45 67.49 c0.03 -0.14 0.19 -0.54 0.36 -0.90 0.36 -0.75 0.98 -1.37 1.75 -1.73 0.43 -0.21 0.61 -0.23 1.40 -0.23 0.80 0 0.95 0.03 1.41 0.25 0.89 0.43 1.63 1.41 1.86 2.48 l0.09 0.38 -3.46 0 -3.46 0 0.05 -0.24z"/>
  <path d="M41.74 67.49 c0.14 -0.54 0.60 -1.40 1.01 -1.83 0.25 -0.27 0.66 -0.57 1.02 -0.75 0.55 -0.27 0.65 -0.29 1.50 -0.28 1.11 0 1.55 0.18 2.24 0.86 0.50 0.50 0.81 1.05 1 1.78 l0.12 0.45 -3.47 0 -3.47 0 0.05 -0.24z"/>
  <path d="M18.56 24.50 c-0.95 -0.20 -1.82 -0.86 -2.24 -1.70 -0.44 -0.86 -0.59 -2.44 -0.32 -3.46 0.31 -1.17 1 -2.06 1.98 -2.55 0.50 -0.23 0.62 -0.26 1.49 -0.26 0.86 0 1 0.03 1.46 0.25 2.02 0.99 2.73 3.92 1.47 6.06 -0.33 0.57 -1.13 1.25 -1.74 1.48 -0.59 0.23 -1.50 0.30 -2.09 0.18z"/>
 </g>
 <g fill="#ffffff">
  <path d="M84.10 80.28 c0.16 -0.02 0.45 -0.02 0.63 0 0.19 0.02 0.06 0.04 -0.29 0.04 -0.34 0 -0.50 -0.02 -0.34 -0.04z"/>
  <path d="M64.16 80.01 c0.14 -0.02 0.33 -0.02 0.45 0 0.11 0.02 0 0.04 -0.25 0.04 -0.24 0 -0.34 -0.02 -0.20 -0.04z"/>
  <path d="M16.83 76.86 c0.25 -0.02 0.68 -0.02 0.95 0 0.25 0.02 0.05 0.03 -0.48 0.03 -0.52 0 -0.73 -0.01 -0.47 -0.03z"/>
  <path d="M59.61 76.86 c0.11 -0.02 0.27 -0.02 0.36 0 0.08 0.03 -0.01 0.05 -0.21 0.04 -0.20 0 -0.27 -0.02 -0.15 -0.04z"/>
  <path d="M60.69 76.86 c0.11 -0.02 0.29 -0.02 0.41 0 0.11 0.02 0.02 0.04 -0.21 0.04 -0.23 0 -0.32 -0.02 -0.20 -0.04z"/>
  <path d="M27.65 76.74 c-0.14 -0.05 0.04 -0.05 0.41 -0.03 0.35 0.03 0.65 0.06 0.67 0.08 0.07 0.06 -0.85 0.02 -1.07 -0.05z"/>
  <path d="M29.93 76.77 c0.14 -0.02 0.35 -0.02 0.50 0 0.14 0.02 0.02 0.04 -0.25 0.04 -0.27 0 -0.39 -0.02 -0.24 -0.04z"/>
  <path d="M44.48 76.77 c0.11 -0.02 0.27 -0.02 0.36 0 0.08 0.03 -0.01 0.05 -0.21 0.04 -0.20 0 -0.27 -0.02 -0.15 -0.04z"/>
  <path d="M46.01 76.77 c0.15 -0.02 0.42 -0.02 0.59 0 0.15 0.02 0.03 0.04 -0.30 0.04 -0.32 0 -0.45 -0.02 -0.29 -0.04z"/>
  <path d="M61.75 76.70 c0.24 -0.07 0.46 -0.11 0.48 -0.09 0.05 0.05 -0.62 0.23 -0.79 0.22 -0.07 0 0.06 -0.06 0.32 -0.13z"/>
  <path d="M15.44 76.63 c-0.15 -0.06 -0.38 -0.18 -0.50 -0.27 -0.22 -0.16 -0.22 -0.16 0.05 -0.02 0.15 0.07 0.43 0.20 0.63 0.26 0.20 0.07 0.30 0.14 0.23 0.14 -0.07 0 -0.26 -0.05 -0.41 -0.11z"/>
  <path d="M19.61 76.38 c0.32 -0.15 0.70 -0.41 0.88 -0.58 0.27 -0.26 0.31 -0.34 0.26 -0.60 -0.04 -0.23 -0.03 -0.27 0.05 -0.17 0.15 0.22 0.12 0.41 -0.12 0.69 -0.23 0.28 -1.05 0.78 -1.41 0.88 -0.13 0.03 0.03 -0.07 0.33 -0.23z"/>
  <path d="M31.71 76.47 c0.32 -0.09 0.59 -0.15 0.61 -0.14 0.05 0.05 -0.88 0.32 -1.05 0.31 -0.08 0 0.12 -0.08 0.44 -0.17z"/>
  <path d="M48.23 76.39 c0.74 -0.27 1.41 -0.63 2.08 -1.14 0.66 -0.50 1.39 -1.29 1.39 -1.50 0 -0.07 -0.36 -0.36 -0.80 -0.64 -0.93 -0.59 -1.30 -0.95 -0.57 -0.55 0.55 0.30 1.55 1.08 1.55 1.21 0 0.11 -0.79 0.99 -1.21 1.35 -0.61 0.54 -2.40 1.46 -2.78 1.43 -0.06 0 0.10 -0.07 0.34 -0.16z"/>
  <path d="M62.34 76.54 c0.18 -0.14 1.07 -0.59 1.03 -0.51 -0.05 0.09 -0.88 0.54 -1 0.54 -0.04 0 -0.05 -0.01 -0.03 -0.03z"/>
  <path d="M83.30 76.42 c-0.35 -0.19 -0.32 -0.25 0.05 -0.07 0.33 0.17 0.40 0.22 0.28 0.22 -0.05 -0.01 -0.19 -0.07 -0.32 -0.14z"/>
  <path d="M85.80 76.41 c0.15 -0.07 0.36 -0.23 0.47 -0.32 0.12 -0.10 0.23 -0.16 0.26 -0.13 0.06 0.06 -0.76 0.60 -0.90 0.60 -0.05 -0.01 0.03 -0.07 0.17 -0.15z"/>
  <path d="M25.37 75.97 c-0.73 -0.37 -1.64 -1.01 -1.56 -1.10 0.03 -0.02 0.24 0.14 0.50 0.33 0.25 0.20 0.83 0.55 1.28 0.77 0.44 0.23 0.76 0.41 0.69 0.41 -0.07 -0.01 -0.49 -0.19 -0.92 -0.41z"/>
  <path d="M65.42 75.66 c0 -0.42 0.02 -0.59 0.04 -0.38 0.02 0.21 0.02 0.55 0 0.77 -0.02 0.21 -0.04 0.04 -0.04 -0.39z"/>
  <path d="M14.36 76.03 c-0.15 -0.09 -0.40 -0.32 -0.54 -0.51 -0.43 -0.55 -0.45 -0.67 -0.05 -0.20 0.21 0.23 0.50 0.53 0.67 0.66 0.34 0.26 0.31 0.29 -0.08 0.05z"/>
  <path d="M33.24 75.82 c0.42 -0.23 0.95 -0.64 1.42 -1.10 0.41 -0.41 0.74 -0.72 0.74 -0.70 0 0.09 -0.35 0.56 -0.60 0.80 -0.59 0.57 -1.84 1.38 -2.12 1.38 -0.06 0 0.19 -0.17 0.56 -0.38z"/>
  <path d="M57.27 75.96 c-0.30 -0.23 -0.67 -0.65 -0.59 -0.68 0.01 -0.01 0.24 0.20 0.51 0.46 0.53 0.52 0.56 0.59 0.08 0.23z"/>
  <path d="M79.49 71.52 c0 -2.60 0.01 -3.67 0.02 -2.36 0.02 1.30 0.02 3.42 0 4.73 -0.01 1.30 -0.02 0.23 -0.02 -2.37z"/>
  <path d="M41.66 75.99 c-1.20 -0.52 -3.04 -2.50 -3.32 -3.57 -0.04 -0.13 0.07 0.02 0.23 0.32 0.85 1.53 1.38 2.05 3.28 3.26 0.23 0.14 0.14 0.14 -0.19 -0.01z"/>
  <path d="M63.38 73.99 c-0.14 -0.52 -0.23 -0.97 -0.21 -1 0.02 -0.03 0.09 0.14 0.14 0.34 0.05 0.22 0.16 0.63 0.24 0.91 0.07 0.28 0.13 0.55 0.11 0.60 -0.03 0.06 -0.15 -0.32 -0.29 -0.86z"/>
  <path d="M20.50 74.30 c-0.21 -0.71 -0.14 -0.78 0.08 -0.08 0.09 0.30 0.14 0.56 0.12 0.59 -0.03 0.03 -0.12 -0.20 -0.20 -0.50z"/>
  <path d="M56.03 74.29 c-0.09 -0.22 -0.19 -0.55 -0.22 -0.75 l-0.05 -0.36 0.13 0.41 c0.06 0.23 0.18 0.56 0.26 0.75 0.08 0.18 0.13 0.33 0.10 0.33 -0.03 0 -0.13 -0.17 -0.22 -0.38z"/>
  <path d="M81.81 74.04 c0 -0.23 0.02 -0.32 0.04 -0.20 0.02 0.11 0.02 0.29 0 0.41 -0.02 0.11 -0.04 0.02 -0.04 -0.21z"/>
  <path d="M87.31 73.91 c0 -0.24 0.02 -0.34 0.04 -0.20 0.02 0.14 0.02 0.33 0 0.45 -0.02 0.11 -0.04 0 -0.04 -0.25z"/>
  <path d="M22.91 73.93 c-0.25 -0.27 -0.84 -1.32 -0.84 -1.49 0 -0.04 0.12 0.14 0.27 0.41 0.14 0.26 0.41 0.68 0.58 0.92 0.18 0.25 0.32 0.45 0.30 0.45 -0.02 0 -0.15 -0.14 -0.31 -0.29z"/>
  <path d="M12.74 73.48 c-0.04 -0.12 -0.08 -1.98 -0.10 -4.14 l-0.04 -3.94 -1.10 -0.04 -1.10 -0.03 1.15 -0.02 1.14 -0.02 0 3.58 c0 2.03 0.05 3.83 0.09 4.15 0.10 0.59 0.07 0.80 -0.05 0.44z"/>
  <path d="M28.27 73.28 c-1.20 -0.32 -2.34 -1.47 -2.72 -2.73 l-0.06 -0.21 5.21 0.02 5.21 0.03 -5.11 0.02 c-4.19 0.03 -5.12 0.05 -5.12 0.14 0 0.07 0.12 0.36 0.27 0.66 0.31 0.60 0.91 1.27 1.36 1.50 0.92 0.44 1.21 0.53 1.85 0.60 l0.71 0.07 -0.59 0.01 c-0.32 0 -0.77 -0.05 -1.01 -0.11z"/>
  <path d="M44.65 73.31 c-1.21 -0.29 -2.45 -1.50 -2.81 -2.76 l-0.05 -0.21 5.21 0.02 5.21 0.03 -5.13 0.02 -5.12 0.03 0.05 0.26 c0.07 0.35 0.39 0.85 0.90 1.41 0.57 0.62 1.44 1.08 2.20 1.15 0.54 0.05 1.50 -0.06 1.69 -0.20 0.05 -0.05 0.17 -0.10 0.27 -0.12 0.10 -0.03 0.26 -0.08 0.36 -0.12 0.13 -0.04 0.11 -0.01 -0.05 0.08 -0.68 0.41 -1.90 0.60 -2.73 0.41z"/>
  <path d="M30.35 73.14 c0.27 -0.09 0.50 -0.15 0.52 -0.14 0.05 0.05 -0.69 0.32 -0.86 0.32 -0.08 -0.01 0.07 -0.08 0.34 -0.18z"/>
  <path d="M18.65 73.12 c0.23 -0.05 0.62 -0.17 0.89 -0.27 0.47 -0.18 0.49 -0.19 0.60 -0.03 0.07 0.10 0.13 0.23 0.12 0.31 0 0.08 -0.05 0.03 -0.10 -0.11 -0.06 -0.18 -0.14 -0.24 -0.24 -0.21 -0.08 0.03 -0.37 0.13 -0.64 0.23 -0.27 0.10 -0.61 0.18 -0.77 0.17 -0.22 0 -0.19 -0.02 0.14 -0.09z"/>
  <path d="M60.91 73.11 c-0.31 -0.09 -0.92 -0.70 -0.92 -0.90 0 -0.05 0.06 -0.03 0.14 0.07 0.45 0.63 1.06 0.92 1.77 0.82 0.28 -0.04 0.32 -0.03 0.16 0.03 -0.31 0.11 -0.79 0.10 -1.15 -0.02z"/>
  <path d="M17.78 73.05 c-0.20 -0.08 -0.76 -0.68 -0.76 -0.81 0 -0.04 -0.03 -0.15 -0.05 -0.24 -0.03 -0.09 0.05 0.01 0.16 0.23 0.13 0.22 0.39 0.50 0.61 0.65 0.40 0.26 0.41 0.33 0.04 0.18z"/>
  <path d="M69.56 72.55 c0 -0.34 0.02 -0.48 0.04 -0.29 0.02 0.18 0.02 0.47 0 0.63 -0.02 0.15 -0.04 0.01 -0.04 -0.34z"/>
  <path d="M33.62 72.37 c-0.45 -0.32 -0.86 -0.63 -0.89 -0.69 -0.09 -0.14 0.05 -0.05 0.98 0.63 0.68 0.51 0.85 0.65 0.76 0.65 -0.01 0 -0.39 -0.26 -0.85 -0.59z"/>
  <path d="M31.35 72.69 c0.13 -0.11 0.40 -0.35 0.61 -0.56 0.21 -0.21 0.38 -0.32 0.38 -0.27 0 0.11 -0.77 0.80 -1.04 0.94 -0.14 0.06 -0.12 0.03 0.05 -0.11z"/>
  <path d="M65.32 72.19 c0 -0.41 0.02 -0.49 0.07 -0.30 0.04 0.13 0.04 0.37 0 0.54 -0.06 0.25 -0.07 0.22 -0.07 -0.24z"/>
  <path d="M90.67 72.37 c-0.03 -0.08 -0.05 -0.23 -0.05 -0.34 0.01 -0.14 0.04 -0.11 0.09 0.11 0.09 0.31 0.05 0.50 -0.05 0.23z"/>
  <path d="M21.85 71.97 c-0.08 -0.20 -0.14 -0.41 -0.14 -0.48 0.01 -0.05 0.09 0.09 0.18 0.33 0.10 0.25 0.16 0.46 0.14 0.48 -0.02 0.02 -0.10 -0.13 -0.18 -0.33z"/>
  <path d="M49.41 72.06 c-0.47 -0.36 -0.52 -0.42 -0.16 -0.22 0.26 0.15 0.65 0.49 0.55 0.49 -0.02 0 -0.19 -0.13 -0.39 -0.27z"/>
  <path d="M55.61 69.27 c0 -1.41 0.02 -1.99 0.03 -1.28 0.02 0.70 0.02 1.86 0 2.57 -0.01 0.70 -0.03 0.13 -0.03 -1.29z"/>
  <path d="M69.56 71.29 c0 -0.30 0.02 -0.41 0.04 -0.24 0.02 0.16 0.02 0.41 0 0.54 -0.02 0.14 -0.04 0 -0.04 -0.30z"/>
  <path d="M16.86 68.53 l-0.02 -3.22 1.65 0.02 1.64 0.01 -1.40 0.07 c-0.77 0.04 -1.49 0.09 -1.59 0.13 l-0.21 0.06 -0.03 3.08 -0.02 3.07 -0.03 -3.22z"/>
  <path d="M59.83 68.46 c-0.02 -2.86 0 -3.18 0.13 -3.13 0.08 0.03 0.51 0.06 0.96 0.07 l0.83 0.02 -0.90 0.05 -0.90 0.05 -0.05 3.06 -0.05 3.06 -0.03 -3.19z"/>
  <path d="M85.21 71.34 c-0.19 -0.06 -0.19 -0.07 -0.05 -0.08 0.10 0 0.24 0.04 0.32 0.08 0.16 0.10 0.05 0.10 -0.27 0z"/>
  <path d="M21.50 70.64 c-0.04 -0.21 -0.08 -0.69 -0.11 -1.08 -0.04 -0.60 -0.02 -0.57 0.09 0.30 0.13 0.96 0.14 1.56 0.02 0.78z"/>
  <path d="M37.76 70.26 c0 -0.17 0.02 -0.24 0.05 -0.15 0.02 0.08 0.02 0.23 0 0.32 -0.03 0.08 -0.05 0.01 -0.05 -0.16z"/>
  <path d="M8.85 69.94 c0 -0.24 0.02 -0.34 0.04 -0.20 0.02 0.14 0.02 0.33 0 0.45 -0.02 0.11 -0.04 0 -0.04 -0.25z"/>
  <path d="M69.56 69.81 c0 -0.23 0.02 -0.32 0.04 -0.20 0.02 0.11 0.02 0.29 0 0.41 -0.02 0.11 -0.04 0.02 -0.04 -0.21z"/>
  <path d="M52.37 68.77 c0 -0.59 0.01 -0.83 0.03 -0.51 0.02 0.31 0.02 0.79 0 1.08 -0.02 0.28 -0.03 0.03 -0.03 -0.57z"/>
  <path d="M37.68 69.04 c0 -0.30 0.02 -0.41 0.04 -0.24 0.02 0.16 0.02 0.41 0 0.54 -0.02 0.14 -0.04 0 -0.04 -0.30z"/>
  <path d="M36.06 68.73 c0 -0.42 0.02 -0.59 0.04 -0.38 0.02 0.21 0.02 0.55 0 0.77 -0.02 0.21 -0.04 0.04 -0.04 -0.39z"/>
  <path d="M69.55 68.49 c0.01 -0.24 0.05 -0.56 0.08 -0.71 0.05 -0.16 0.05 0.01 0.03 0.41 -0.06 0.77 -0.13 0.96 -0.11 0.31z"/>
  <path d="M21.45 68 c0 -0.17 0.04 -0.39 0.08 -0.49 0.05 -0.12 0.06 -0.02 0.03 0.27 -0.06 0.53 -0.12 0.65 -0.11 0.22z"/>
  <path d="M37.77 67.87 c0 -0.20 0.02 -0.27 0.04 -0.15 0.02 0.11 0.02 0.27 0 0.36 -0.03 0.08 -0.05 -0.01 -0.04 -0.21z"/>
  <path d="M75.24 67.56 c0 -0.23 0.02 -0.32 0.04 -0.20 0.02 0.11 0.02 0.29 0 0.41 -0.02 0.11 -0.04 0.02 -0.04 -0.21z"/>
  <path d="M25.53 67.49 c0.04 -0.14 0.20 -0.54 0.38 -0.90 0.35 -0.73 0.96 -1.32 1.71 -1.67 0.62 -0.29 2.04 -0.29 2.67 -0.01 0.81 0.37 1.47 1.15 1.75 2.05 0.06 0.23 0.10 0.41 0.08 0.41 -0.02 0 -0.18 -0.32 -0.37 -0.69 -0.68 -1.41 -1.61 -1.99 -3.03 -1.88 -0.52 0.05 -0.77 0.13 -1.31 0.42 -0.36 0.20 -0.70 0.45 -0.77 0.56 -0.05 0.11 -0.18 0.27 -0.28 0.36 -0.11 0.09 -0.20 0.30 -0.22 0.50 -0.01 0.22 -0.09 0.38 -0.21 0.46 -0.26 0.17 -0.23 0.37 0.07 0.38 l0.24 0.02 -0.23 0.05 c-0.13 0.03 1.23 0.07 3.02 0.10 l3.24 0.05 -3.41 0.03 -3.40 0.02 0.05 -0.24z"/>
  <path d="M44.99 67.67 c1.89 -0.02 3.27 -0.06 3.32 -0.12 0.05 -0.05 0.04 -0.21 -0.05 -0.42 -0.08 -0.19 -0.19 -0.47 -0.25 -0.62 -0.12 -0.32 -0.83 -1.13 -1.22 -1.39 -0.14 -0.10 -0.23 -0.18 -0.18 -0.18 0.05 0 0.28 0.14 0.50 0.31 0.53 0.39 1.06 1.20 1.26 1.92 l0.16 0.57 -3.40 -0.02 -3.40 -0.03 3.24 -0.02z"/>
  <path d="M27.09 67.49 c0.11 -0.02 0.27 -0.02 0.36 0 0.08 0.03 -0.01 0.05 -0.21 0.04 -0.20 0 -0.27 -0.02 -0.15 -0.04z"/>
  <path d="M41.84 67.37 c0.28 -0.98 1.04 -1.92 1.88 -2.33 0.63 -0.32 1.65 -0.45 2.22 -0.30 0.25 0.07 0.14 0.08 -0.59 0.08 -0.87 -0.01 -0.92 0 -1.51 0.32 -0.80 0.45 -1.17 0.79 -1.47 1.40 -0.14 0.27 -0.29 0.50 -0.32 0.53 -0.04 0.03 -0.07 0.13 -0.07 0.22 0 0.09 -0.05 0.20 -0.10 0.23 -0.07 0.04 -0.08 -0.01 -0.04 -0.15z"/>
  <path d="M52.21 67.14 c-0.04 -0.18 -0.05 -0.34 -0.02 -0.37 0.02 -0.03 0.07 0.10 0.11 0.28 0.03 0.19 0.04 0.35 0.01 0.38 -0.02 0.03 -0.07 -0.10 -0.10 -0.29z"/>
  <path d="M69.72 67.39 c0 -0.23 0.48 -1.04 0.85 -1.41 0.21 -0.22 0.62 -0.50 0.91 -0.65 0.44 -0.22 0.65 -0.26 1.22 -0.26 0.82 0 1.26 0.14 1.73 0.57 0.34 0.31 0.77 0.98 0.67 1.07 -0.02 0.03 -0.15 -0.14 -0.28 -0.35 -0.52 -0.84 -0.93 -1.11 -1.80 -1.21 -0.36 -0.05 -0.64 -0.01 -1.13 0.14 -0.57 0.17 -0.73 0.27 -1.15 0.71 -0.28 0.28 -0.61 0.73 -0.75 1 -0.14 0.27 -0.24 0.44 -0.25 0.38z"/>
  <path d="M21.63 67.05 c-0.01 -0.14 0.27 -0.95 0.32 -0.91 0.02 0.02 -0.05 0.25 -0.14 0.52 -0.10 0.27 -0.18 0.44 -0.18 0.39z"/>
  <path d="M35.86 66.95 c0 -0.11 -0.04 -0.27 -0.06 -0.36 -0.05 -0.15 -0.05 -0.15 0.05 0 0.05 0.09 0.08 0.25 0.06 0.36 -0.04 0.20 -0.04 0.20 -0.05 0z"/>
  <path d="M51.94 66.16 c-0.12 -0.47 -0.65 -1.51 -1 -1.98 -0.26 -0.34 -0.28 -0.40 -0.10 -0.23 0.43 0.39 1.29 2.10 1.20 2.38 -0.02 0.05 -0.06 -0.03 -0.10 -0.17z"/>
  <path d="M79.37 66.02 c0 -0.17 0.02 -0.24 0.05 -0.15 0.02 0.08 0.02 0.23 0 0.32 -0.03 0.08 -0.05 0.01 -0.05 -0.16z"/>
  <path d="M38.19 66.19 c0 -0.29 0.68 -1.68 0.77 -1.59 0.02 0.02 -0.15 0.40 -0.37 0.84 -0.22 0.45 -0.40 0.78 -0.40 0.75z"/>
  <path d="M55.58 65.53 c0 -0.11 -0.20 -0.14 -1.05 -0.16 l-1.06 -0.03 1.11 -0.02 c1.04 -0.02 1.10 -0.01 1.10 0.16 0 0.10 -0.02 0.18 -0.05 0.18 -0.03 0 -0.05 -0.06 -0.05 -0.14z"/>
  <path d="M63.09 63.68 c0 -0.92 0.02 -1.29 0.03 -0.83 0.02 0.45 0.02 1.21 0 1.67 -0.01 0.45 -0.03 0.08 -0.03 -0.84z"/>
  <path d="M22.39 65.11 c0.26 -0.44 0.77 -1.13 0.95 -1.29 0.15 -0.13 0.14 -0.09 -0.05 0.14 -0.15 0.17 -0.41 0.53 -0.58 0.79 -0.16 0.25 -0.32 0.47 -0.34 0.47 -0.02 0 -0.01 -0.05 0.03 -0.11z"/>
  <path d="M34.97 64.65 c-0.14 -0.26 -0.56 -0.80 -0.93 -1.20 l-0.66 -0.72 0.68 0.66 c0.63 0.61 1.33 1.59 1.23 1.69 -0.03 0.03 -0.17 -0.17 -0.32 -0.43z"/>
  <path d="M53.15 64.61 c0.01 -0.31 0.02 -0.32 0.08 -0.12 0.10 0.32 0.10 0.45 0 0.45 -0.05 0 -0.09 -0.15 -0.08 -0.33z"/>
  <path d="M78.90 64.35 c-0.14 -0.32 -0.23 -0.58 -0.20 -0.58 0.06 0 0.50 0.99 0.46 1.07 -0.02 0.05 -0.14 -0.17 -0.26 -0.50z"/>
  <path d="M20.03 63.73 c0 -0.50 0.01 -0.68 0.03 -0.42 0.02 0.26 0.02 0.67 0 0.90 -0.02 0.23 -0.03 0.02 -0.03 -0.48z"/>
  <path d="M53.18 63.19 c0 -0.59 0.01 -0.83 0.03 -0.51 0.02 0.31 0.02 0.79 0 1.08 -0.02 0.28 -0.03 0.03 -0.03 -0.57z"/>
  <path d="M40.10 63.30 c0.46 -0.44 1.15 -0.95 1.15 -0.85 0 0.02 -0.21 0.19 -0.46 0.37 -0.25 0.18 -0.63 0.48 -0.84 0.66 -0.22 0.18 -0.14 0.10 0.14 -0.18z"/>
  <path d="M23.69 63.47 c0 -0.07 0.45 -0.47 0.76 -0.68 0.23 -0.15 0.14 -0.05 -0.37 0.40 -0.22 0.18 -0.39 0.31 -0.39 0.28z"/>
  <path d="M69.55 60.15 l0.02 -3.27 0.05 2.84 c0.03 1.69 0.08 2.92 0.14 3.04 l0.09 0.22 0.27 -0.22 c0.14 -0.12 0.42 -0.32 0.62 -0.42 l0.36 -0.21 -0.27 0.21 c-0.14 0.12 -0.48 0.41 -0.73 0.64 -0.25 0.24 -0.49 0.43 -0.51 0.43 -0.04 0 -0.05 -1.47 -0.05 -3.26z"/>
  <path d="M78.22 63.21 c-0.28 -0.32 -0.42 -0.52 -0.37 -0.52 0.03 0 0.18 0.16 0.33 0.36 0.31 0.39 0.32 0.50 0.04 0.16z"/>
  <path d="M10.12 62.74 c0 -0.34 0.02 -0.48 0.04 -0.29 0.02 0.18 0.02 0.47 0 0.63 -0.02 0.15 -0.04 0.01 -0.04 -0.34z"/>
  <path d="M49.38 62.66 c-0.41 -0.30 -0.48 -0.39 -0.13 -0.18 0.17 0.09 0.34 0.23 0.40 0.29 0.14 0.15 0.07 0.13 -0.27 -0.11z"/>
  <path d="M82.07 62.56 c-0.15 -0.33 -0.13 -0.41 0.04 -0.11 0.08 0.14 0.13 0.28 0.10 0.30 -0.02 0.02 -0.08 -0.06 -0.14 -0.19z"/>
  <path d="M20.01 62.33 c0 -0.17 0.02 -0.24 0.05 -0.15 0.02 0.08 0.02 0.23 0 0.32 -0.03 0.08 -0.05 0.01 -0.05 -0.16z"/>
  <path d="M26.03 61.90 c0.07 -0.05 0.23 -0.12 0.36 -0.14 0.15 -0.05 0.18 -0.04 0.09 0.02 -0.07 0.05 -0.23 0.12 -0.36 0.14 -0.15 0.05 -0.18 0.04 -0.09 -0.02z"/>
  <path d="M71.70 61.84 c0.13 -0.07 0.27 -0.13 0.32 -0.13 0.05 0 -0.01 0.05 -0.14 0.13 -0.13 0.07 -0.26 0.13 -0.32 0.13 -0.05 0 0.01 -0.05 0.14 -0.13z"/>
  <path d="M11.77 61.82 l0.84 -0.04 0.03 -1.86 0.02 -1.86 0.03 1.92 0.02 1.91 -0.87 -0.02 -0.88 -0.02 0.83 -0.03z"/>
  <path d="M16.86 60.02 l0.03 -1.87 0.02 1.82 0.03 1.82 1.33 0.04 1.32 0.03 -1.37 0.02 -1.38 0.02 0.02 -1.86z"/>
  <path d="M54.87 61.82 l0.70 -0.04 0.03 -1.77 0.02 -1.77 0.03 1.83 0.02 1.82 -0.74 -0.02 -0.75 -0.02 0.69 -0.03z"/>
  <path d="M27.79 61.42 c0.34 -0.06 2.26 -0.10 2.07 -0.04 -0.05 0.02 -0.61 0.05 -1.26 0.07 -0.69 0.02 -1.03 0.01 -0.81 -0.04z"/>
  <path d="M30.20 61.46 c0.08 -0.02 0.23 -0.02 0.32 0 0.08 0.03 0.01 0.05 -0.16 0.05 -0.17 0 -0.24 -0.02 -0.15 -0.05z"/>
  <path d="M44.84 61.37 c0.21 -0.02 0.53 -0.02 0.72 0 0.18 0.02 0.01 0.04 -0.39 0.04 -0.40 0 -0.55 -0.02 -0.33 -0.04z"/>
  <path d="M73.71 61.37 c0.29 -0.02 0.73 -0.02 0.99 0 0.26 0.02 0.03 0.03 -0.52 0.03 -0.54 0 -0.76 -0.01 -0.47 -0.03z"/>
  <path d="M59.84 59.76 c0 -0.79 0.02 -1.11 0.03 -0.69 0.02 0.41 0.02 1.06 0 1.44 -0.01 0.38 -0.03 0.05 -0.03 -0.75z"/>
  <path d="M65.42 60.75 c0 -0.24 0.02 -0.34 0.04 -0.20 0.02 0.14 0.02 0.33 0 0.45 -0.02 0.11 -0.04 0 -0.04 -0.25z"/>
  <path d="M7.41 59.20 c0.04 -0.05 0.20 -0.19 0.35 -0.31 0.15 -0.11 0.25 -0.15 0.23 -0.09 -0.04 0.05 -0.20 0.19 -0.35 0.31 -0.15 0.11 -0.25 0.15 -0.23 0.09z"/>
  <path d="M15.52 57.85 c0.08 -0.02 0.23 -0.02 0.32 0 0.08 0.03 0.01 0.05 -0.16 0.05 -0.17 0 -0.24 -0.02 -0.15 -0.05z"/>
  <path d="M48.50 52.68 c0.97 -0.10 1.64 -0.28 2.28 -0.62 0.27 -0.14 0.44 -0.21 0.39 -0.14 -0.33 0.40 -1.98 0.87 -2.95 0.86 -0.46 -0.02 -0.43 -0.03 0.29 -0.09z"/>
  <path d="M46.41 52.42 c-0.32 -0.13 -0.24 -0.18 0.09 -0.07 0.15 0.05 0.31 0.12 0.32 0.13 0.07 0.06 -0.22 0.03 -0.41 -0.05z"/>
  <path d="M36.46 52.27 c0.50 -0.02 1.33 -0.02 1.85 0 0.50 0.01 0.09 0.03 -0.93 0.03 -1.02 0 -1.43 -0.02 -0.92 -0.03z"/>
  <path d="M55.02 52.27 c0.50 -0.02 1.33 -0.02 1.85 0 0.50 0.01 0.09 0.03 -0.93 0.03 -1.02 0 -1.43 -0.02 -0.92 -0.03z"/>
  <path d="M64.88 52.27 c0.53 -0.02 1.39 -0.02 1.89 0 0.50 0.01 0.07 0.03 -0.97 0.03 -1.04 0 -1.45 -0.02 -0.92 -0.03z"/>
  <path d="M45.71 52.08 c-0.14 -0.10 -0.33 -0.24 -0.41 -0.34 -0.13 -0.16 -0.13 -0.16 0.05 -0.03 0.10 0.08 0.32 0.23 0.50 0.34 0.17 0.10 0.28 0.19 0.23 0.19 -0.05 0 -0.21 -0.07 -0.36 -0.16z"/>
  <path d="M24.24 51.46 c-0.10 -0.33 -0.35 -1.17 -0.55 -1.85 -0.20 -0.68 -0.46 -1.51 -0.58 -1.85 -0.41 -1.13 -0.99 -3.26 -0.93 -3.33 0.02 -0.02 0.23 0.59 0.45 1.34 1.50 4.91 1.87 6.22 1.84 6.25 -0.03 0.03 -0.13 -0.23 -0.23 -0.57z"/>
  <path d="M29.10 51.93 c-0.01 -0.08 0.73 -2.42 2.63 -8.42 0.31 -0.96 0.57 -1.68 0.59 -1.61 0.02 0.08 -0.04 0.32 -0.12 0.54 -0.17 0.48 -0.34 1 -1.36 4.22 -1 3.17 -1.73 5.39 -1.74 5.27z"/>
  <path d="M19.47 51.52 c0 -0.07 0.05 -0.28 0.12 -0.45 0.06 -0.17 0.12 -0.25 0.12 -0.18 0 0.07 -0.05 0.28 -0.12 0.45 -0.06 0.17 -0.12 0.25 -0.12 0.18z"/>
  <path d="M51.71 51.25 c-0.01 -0.13 -0.15 -0.73 -0.32 -1.35 -0.17 -0.62 -0.30 -1.13 -0.29 -1.15 0.12 -0.11 0.71 2.16 0.66 2.50 l-0.04 0.23 -0.02 -0.23z"/>
  <path d="M44.55 50.97 c-0.22 -0.25 -0.50 -0.82 -0.50 -0.97 0 -0.03 0.13 0.16 0.27 0.43 0.15 0.27 0.34 0.57 0.42 0.66 0.08 0.09 0.13 0.16 0.09 0.16 -0.03 0 -0.15 -0.13 -0.28 -0.28z"/>
  <path d="M14.15 50.31 c-0.11 -0.28 -0.19 -0.53 -0.19 -0.58 0 -0.04 -0.21 -0.71 -0.45 -1.50 -0.25 -0.78 -0.44 -1.43 -0.42 -1.45 0.02 -0.03 0.32 0.86 0.68 1.95 0.36 1.09 0.63 2.01 0.61 2.04 -0.03 0.02 -0.13 -0.19 -0.23 -0.47z"/>
  <path d="M19.74 50.68 c-0.01 -0.05 0.15 -0.66 0.36 -1.35 0.52 -1.80 0.60 -2.03 0.61 -1.79 0.01 0.10 -0.07 0.41 -0.16 0.68 -0.10 0.26 -0.26 0.78 -0.37 1.15 -0.25 0.88 -0.43 1.41 -0.44 1.32z"/>
  <path d="M35.25 49.54 c0 -0.47 0.01 -0.67 0.03 -0.42 0.02 0.23 0.02 0.61 0 0.86 -0.02 0.23 -0.03 0.04 -0.03 -0.43z"/>
  <path d="M58.03 49.81 c0 -0.23 0.02 -0.32 0.04 -0.20 0.02 0.11 0.02 0.29 0 0.41 -0.02 0.11 -0.04 0.02 -0.04 -0.21z"/>
  <path d="M67.94 49.72 c0 -0.27 0.02 -0.39 0.04 -0.24 0.02 0.14 0.02 0.35 0 0.50 -0.02 0.14 -0.04 0.02 -0.04 -0.25z"/>
  <path d="M39.49 48.64 c0 -0.62 0.01 -0.87 0.03 -0.56 0.02 0.31 0.02 0.81 0 1.13 -0.02 0.31 -0.03 0.05 -0.03 -0.57z"/>
  <path d="M48.35 48.58 c-0.16 -0.19 -0.37 -0.57 -0.32 -0.61 0.02 -0.02 0.14 0.15 0.27 0.37 0.26 0.42 0.28 0.50 0.05 0.24z"/>
  <path d="M67.94 48.32 c0 -0.24 0.02 -0.34 0.04 -0.20 0.02 0.14 0.02 0.33 0 0.45 -0.02 0.11 -0.04 0 -0.04 -0.25z"/>
  <path d="M58.03 47.96 c0 -0.24 0.02 -0.34 0.04 -0.20 0.02 0.14 0.02 0.33 0 0.45 -0.02 0.11 -0.04 0 -0.04 -0.25z"/>
  <path d="M35.24 47.74 c0 -0.17 0.02 -0.24 0.05 -0.15 0.02 0.08 0.02 0.23 0 0.32 -0.03 0.08 -0.05 0.01 -0.05 -0.16z"/>
  <path d="M43.60 44.51 l0 -3.50 -1 0.02 c-0.59 0.01 -1.05 -0.02 -1.13 -0.08 -0.11 -0.07 -0.13 -0.40 -0.11 -1.76 l0.03 -1.67 0.72 -0.01 0.72 0 -0.69 0.03 -0.70 0.04 0 1.66 0 1.67 1.13 0 1.13 0 0 3.56 c0 1.95 -0.02 3.56 -0.05 3.56 -0.03 0 -0.05 -1.58 -0.05 -3.50z"/>
  <path d="M47.85 44.21 l-0.02 -3.31 1.53 0 1.53 0 0.02 -1.64 0.03 -1.65 0.02 1.61 c0.02 1.06 0 1.65 -0.06 1.71 -0.09 0.09 -0.98 0.14 -2.50 0.14 l-0.48 0 -0.03 3.22 -0.02 3.22 -0.03 -3.31z"/>
  <path d="M20.73 47.24 c-0.01 -0.10 0.86 -3.09 0.94 -3.24 0.03 -0.05 0.03 0.06 0.01 0.25 -0.06 0.51 -0.94 3.27 -0.95 2.99z"/>
  <path d="M67.94 46.93 c0 -0.23 0.02 -0.32 0.04 -0.20 0.02 0.11 0.02 0.29 0 0.41 -0.02 0.11 -0.04 0.02 -0.04 -0.21z"/>
  <path d="M39.48 46.75 c0 -0.27 0.02 -0.39 0.04 -0.24 0.02 0.14 0.02 0.35 0 0.50 -0.02 0.14 -0.04 0.02 -0.04 -0.25z"/>
  <path d="M63.70 46.93 c0 -0.17 0.02 -0.24 0.05 -0.15 0.02 0.08 0.02 0.23 0 0.32 -0.03 0.08 -0.05 0.01 -0.05 -0.16z"/>
  <path d="M58.03 45.51 c-0.03 -2.33 0.16 -3 1.05 -3.84 0.59 -0.56 1.15 -0.80 1.95 -0.86 0.83 -0.05 1.42 0.19 1.97 0.80 0.33 0.37 0.58 0.80 0.45 0.80 -0.02 0 -0.19 -0.23 -0.38 -0.52 -1.20 -1.76 -3.95 -1.10 -4.79 1.15 -0.07 0.20 -0.14 1.03 -0.18 2.21 l-0.06 1.89 -0.01 -1.64z"/>
  <path d="M16.98 46.05 c-0.13 -0.43 -0.44 -1.43 -0.68 -2.22 -0.25 -0.79 -0.44 -1.45 -0.41 -1.47 0.02 -0.02 0.27 0.68 0.56 1.55 l0.52 1.59 0.28 -0.05 c0.14 -0.04 0.31 -0.11 0.34 -0.17 0.04 -0.05 0.07 -0.07 0.07 -0.04 0 0.11 -0.37 1.54 -0.41 1.58 -0.02 0.02 -0.14 -0.32 -0.27 -0.77z"/>
  <path d="M26.32 45.88 c-0.16 -0.52 -0.29 -0.97 -0.26 -0.99 0.03 -0.03 0.32 0.63 0.46 1.07 0.08 0.23 0.26 0.08 0.20 -0.17 -0.05 -0.15 -0.01 -0.23 0.13 -0.31 0.10 -0.05 0.18 -0.15 0.18 -0.22 0 -0.21 0.39 -1.36 0.42 -1.26 0.02 0.05 -0.08 0.49 -0.23 0.95 -0.14 0.47 -0.32 1.08 -0.41 1.37 -0.08 0.28 -0.16 0.51 -0.17 0.51 -0.01 0 -0.15 -0.43 -0.32 -0.95z"/>
  <path d="M12.75 46.01 c-0.13 -0.36 -0.27 -0.84 -0.32 -1.06 -0.06 -0.23 -0.23 -0.75 -0.37 -1.16 -0.14 -0.42 -0.25 -0.83 -0.24 -0.90 0.02 -0.07 0.28 0.66 0.59 1.62 0.66 2.05 0.68 2.15 0.63 2.15 -0.03 0 -0.15 -0.30 -0.28 -0.65z"/>
  <path d="M67.95 44.95 c0 -0.77 0.02 -1.08 0.03 -0.69 0.02 0.38 0.02 1.01 0 1.40 -0.01 0.38 -0.03 0.06 -0.03 -0.70z"/>
  <path d="M17.71 44.90 c0.03 -0.14 0.16 -0.66 0.31 -1.13 0.14 -0.47 0.34 -1.15 0.45 -1.52 0.11 -0.36 0.21 -0.64 0.23 -0.62 0.05 0.05 -0.46 1.84 -0.81 2.86 -0.13 0.37 -0.21 0.56 -0.18 0.41z"/>
  <path d="M25.73 44.04 c-0.21 -0.67 -0.19 -0.77 0.04 -0.22 0.09 0.25 0.16 0.51 0.15 0.59 -0.02 0.06 -0.10 -0.10 -0.19 -0.37z"/>
  <path d="M35.25 44.05 c0 -0.23 0.02 -0.32 0.04 -0.20 0.02 0.11 0.02 0.29 0 0.41 -0.02 0.11 -0.04 0.02 -0.04 -0.21z"/>
  <path d="M63.71 44.09 c0 -0.20 0.02 -0.27 0.04 -0.15 0.02 0.11 0.02 0.27 0 0.36 -0.03 0.08 -0.05 -0.01 -0.04 -0.21z"/>
  <path d="M21.94 43.96 c-0.08 -0.21 -0.12 -0.41 -0.09 -0.47 0.04 -0.06 0.13 0.09 0.19 0.32 0.16 0.55 0.10 0.63 -0.10 0.14z"/>
  <path d="M35.25 42.69 c0 -0.42 0.02 -0.59 0.04 -0.38 0.02 0.21 0.02 0.55 0 0.77 -0.02 0.21 -0.04 0.04 -0.04 -0.39z"/>
  <path d="M39.49 41.48 c0 -0.69 0.02 -0.96 0.03 -0.60 0.02 0.36 0.02 0.93 0 1.26 -0.02 0.33 -0.03 0.04 -0.03 -0.66z"/>
  <path d="M11.40 41.81 c-0.18 -0.41 -0.87 -2.75 -0.82 -2.79 0.02 -0.02 0.26 0.67 0.53 1.52 0.50 1.54 0.59 1.93 0.29 1.27z"/>
  <path d="M25 41.54 c-0.09 -0.28 -0.18 -0.59 -0.20 -0.69 -0.11 -0.43 0.17 0.17 0.30 0.66 0.17 0.66 0.10 0.68 -0.10 0.04z"/>
  <path d="M15.60 41.56 c-0.06 -0.23 -0.10 -0.44 -0.07 -0.46 0.05 -0.05 0.25 0.68 0.22 0.79 -0.02 0.05 -0.08 -0.10 -0.14 -0.33z"/>
  <path d="M28.15 41.52 c0.04 -0.17 0.14 -0.53 0.23 -0.81 0.09 -0.27 0.25 -0.81 0.36 -1.20 0.12 -0.38 0.23 -0.68 0.24 -0.66 0.05 0.05 -0.77 2.86 -0.85 2.94 -0.03 0.03 -0.02 -0.10 0.02 -0.27z"/>
  <path d="M32.54 41.05 c0.03 -0.06 0.12 -0.37 0.20 -0.68 0.09 -0.32 0.18 -0.54 0.21 -0.52 0.05 0.05 -0.33 1.32 -0.40 1.32 -0.04 0 -0.04 -0.05 -0.01 -0.12z"/>
  <path d="M35.25 39.32 c0 -0.84 0.02 -1.20 0.03 -0.79 0.02 0.41 0.02 1.10 0 1.53 -0.01 0.43 -0.03 0.11 -0.03 -0.74z"/>
  <path d="M39.44 39.34 c0 -0.46 -0.02 -0.99 -0.05 -1.17 -0.02 -0.18 0.01 -0.36 0.05 -0.39 0.05 -0.04 0.09 0.40 0.09 1.16 0 0.68 -0.02 1.23 -0.05 1.23 -0.03 0 -0.05 -0.38 -0.05 -0.83z"/>
  <path d="M67.15 39.81 c-0.08 -0.14 -0.12 -0.27 -0.10 -0.27 0.03 0 0.11 0.13 0.19 0.27 0.08 0.15 0.12 0.27 0.10 0.27 -0.03 0 -0.11 -0.12 -0.19 -0.27z"/>
  <path d="M24.34 39.34 c-0.05 -0.21 -0.08 -0.40 -0.06 -0.41 0.02 -0.02 0.08 0.14 0.14 0.34 0.05 0.21 0.08 0.40 0.06 0.41 -0.02 0.03 -0.08 -0.13 -0.14 -0.34z"/>
  <path d="M33.15 39.13 c0 -0.14 0.45 -1.33 0.53 -1.41 0.05 -0.05 -0.04 0.26 -0.19 0.67 -0.25 0.73 -0.34 0.92 -0.34 0.75z"/>
  <path d="M19.46 39 c0 -0.07 0.04 -0.22 0.08 -0.32 0.05 -0.12 0.08 -0.13 0.08 -0.05 0 0.07 -0.04 0.22 -0.08 0.32 -0.05 0.12 -0.08 0.13 -0.08 0.05z"/>
  <path d="M58.31 38.81 c0.08 -0.14 0.31 -0.34 0.49 -0.46 0.73 -0.49 0.83 -0.54 0.83 -0.50 0 0.02 -0.16 0.14 -0.36 0.28 -0.21 0.14 -0.54 0.40 -0.74 0.58 -0.31 0.28 -0.34 0.29 -0.22 0.10z"/>
  <path d="M58.05 35.44 c0 -1.93 0.01 -2.71 0.02 -1.73 0.02 0.98 0.02 2.57 0 3.51 -0.01 0.95 -0.02 0.15 -0.02 -1.78z"/>
  <path d="M19.65 38.33 c0 -0.10 0.05 -0.30 0.13 -0.45 l0.13 -0.27 -0.05 0.27 c-0.03 0.15 -0.09 0.35 -0.13 0.45 l-0.07 0.18 0 -0.18z"/>
  <path d="M23.98 38.08 c-0.05 -0.21 -0.08 -0.40 -0.06 -0.41 0.02 -0.02 0.08 0.14 0.14 0.34 0.05 0.21 0.08 0.40 0.06 0.41 -0.02 0.03 -0.08 -0.13 -0.14 -0.34z"/>
  <path d="M47.85 35.65 l0.03 -1.92 0.02 1.86 0.03 1.86 0.97 0.04 0.96 0.03 -1.01 0.02 -1.02 0.02 0.02 -1.91z"/>
  <path d="M61.82 37.14 c0.08 -0.02 0.23 -0.02 0.32 0 0.08 0.03 0.01 0.05 -0.16 0.05 -0.17 0 -0.24 -0.02 -0.15 -0.05z"/>
  <path d="M63.08 37.14 c0.08 -0.02 0.23 -0.02 0.32 0 0.08 0.03 0.01 0.05 -0.16 0.05 -0.17 0 -0.24 -0.02 -0.15 -0.05z"/>
  <path d="M43.63 35.35 c0 -0.84 0.02 -1.20 0.03 -0.79 0.02 0.41 0.02 1.10 0 1.53 -0.01 0.43 -0.03 0.11 -0.03 -0.74z"/>
  <path d="M36.75 35.68 c-0.32 -0.08 -0.94 -0.42 -1.08 -0.59 -0.07 -0.09 0.06 -0.04 0.31 0.12 0.24 0.15 0.65 0.32 0.90 0.37 0.25 0.05 0.54 0.12 0.64 0.14 0.10 0.02 0.02 0.04 -0.18 0.04 -0.20 0 -0.46 -0.03 -0.59 -0.06z"/>
  <path d="M38.55 35.34 c0.23 -0.13 0.50 -0.32 0.63 -0.42 0.17 -0.15 0.19 -0.16 0.09 -0.03 -0.15 0.20 -0.89 0.68 -1.03 0.68 -0.05 0 0.08 -0.11 0.31 -0.23z"/>
  <path d="M39.61 34.27 c0.05 -0.10 0.11 -0.24 0.14 -0.32 0.05 -0.12 0.05 -0.12 0.05 0.01 0.01 0.07 -0.05 0.22 -0.14 0.32 -0.14 0.17 -0.14 0.17 -0.05 -0.01z"/>
  <path d="M39.83 33.51 c0 -0.17 0.02 -0.24 0.05 -0.15 0.02 0.08 0.02 0.23 0 0.32 -0.03 0.08 -0.05 0.01 -0.05 -0.16z"/>
  <path d="M39.82 32.86 c0 -0.13 -0.04 -0.32 -0.06 -0.41 -0.05 -0.15 -0.05 -0.15 0.05 0 0.05 0.09 0.08 0.27 0.06 0.41 l-0.04 0.24 -0.02 -0.24z"/>
  <path d="M53.70 32.70 c0 -0.17 0.02 -0.24 0.05 -0.15 0.02 0.08 0.02 0.23 0 0.32 -0.03 0.08 -0.05 0.01 -0.05 -0.16z"/>
  <path d="M34.96 32.42 c-0.01 -0.07 0.05 -0.22 0.14 -0.32 0.14 -0.17 0.14 -0.17 0.05 0.01 -0.05 0.10 -0.11 0.24 -0.14 0.32 -0.05 0.12 -0.05 0.12 -0.05 -0.01z"/>
  <path d="M39.59 32.07 c-0.04 -0.11 -0.21 -0.37 -0.39 -0.58 -0.32 -0.37 -0.32 -0.37 -0.03 -0.10 0.30 0.27 0.59 0.75 0.52 0.83 -0.03 0.02 -0.07 -0.05 -0.11 -0.15z"/>
  <path d="M35.58 31.39 c0 -0.07 0.83 -0.59 0.94 -0.59 0.05 0 -0.06 0.10 -0.26 0.23 -0.20 0.12 -0.43 0.26 -0.51 0.32 -0.09 0.05 -0.16 0.07 -0.16 0.05z"/>
  <path d="M38.19 30.84 c-0.30 -0.12 -0.30 -0.13 -0.05 -0.07 0.15 0.03 0.31 0.09 0.36 0.14 0.10 0.10 0.07 0.10 -0.32 -0.06z"/>
  <path d="M37.23 30.65 c0.08 -0.02 0.23 -0.02 0.32 0 0.08 0.03 0.01 0.05 -0.16 0.05 -0.17 0 -0.24 -0.02 -0.15 -0.05z"/>
  <path d="M34.99 28.10 c1.63 -0.11 2.67 -0.54 3.67 -1.54 l0.51 -0.51 -0.02 0.73 c-0.01 0.41 -0.03 0.57 -0.05 0.36 -0.05 -0.46 -0.23 -0.65 -0.43 -0.44 -0.42 0.42 -1.40 1.01 -2.05 1.23 -0.65 0.23 -0.86 0.26 -1.73 0.24 l-0.99 -0.01 1.08 -0.06z"/>
  <path d="M67.51 28.10 c1.25 -0.08 2.29 -0.41 2.88 -0.89 0.18 -0.14 0.18 -0.14 0.02 0.05 -0.43 0.52 -1.85 0.94 -3.08 0.92 l-0.81 -0.01 0.99 -0.06z"/>
  <path d="M20.02 28.04 c0.14 -0.02 0.33 -0.02 0.45 0 0.11 0.02 0 0.04 -0.25 0.04 -0.24 0 -0.34 -0.02 -0.20 -0.04z"/>
  <path d="M18.47 27.79 c-0.72 -0.23 -1.81 -0.83 -1.87 -1.02 -0.02 -0.06 0.20 0.05 0.48 0.24 0.59 0.41 1.28 0.69 2.12 0.86 0.43 0.09 0.50 0.12 0.27 0.13 -0.17 0 -0.62 -0.10 -0.99 -0.22z"/>
  <path d="M21.26 27.95 c0.51 -0.09 1.57 -0.41 1.90 -0.57 0.19 -0.10 0.35 -0.16 0.35 -0.14 0 0.20 -1.73 0.77 -2.25 0.75 l-0.23 -0.01 0.23 -0.04z"/>
  <path d="M32.43 27.77 c-0.65 -0.28 -1.32 -0.75 -1.66 -1.17 l-0.35 -0.43 0.44 0.41 c0.63 0.59 1.01 0.85 1.62 1.11 0.29 0.13 0.47 0.23 0.40 0.23 -0.07 0 -0.28 -0.06 -0.45 -0.14z"/>
  <path d="M48.59 27.74 l-1.71 -0.05 2.02 -0.02 c1.11 -0.01 2 0 1.98 0.02 -0.10 0.08 -0.72 0.10 -2.29 0.05z"/>
  <path d="M65.02 27.65 c-0.18 -0.10 -0.55 -0.40 -0.82 -0.65 -0.26 -0.26 -0.32 -0.32 -0.12 -0.14 0.21 0.18 0.61 0.48 0.90 0.65 0.58 0.34 0.59 0.43 0.04 0.14z"/>
  <path d="M12.91 27.68 c0.58 -0.02 1.53 -0.02 2.12 0 0.58 0.01 0.10 0.03 -1.06 0.03 -1.16 0 -1.64 -0.02 -1.05 -0.03z"/>
  <path d="M40.24 27.68 c0.55 -0.02 1.47 -0.02 2.03 0 0.55 0.01 0.10 0.03 -1.02 0.03 -1.12 0 -1.57 -0.02 -1.01 -0.03z"/>
  <path d="M55.51 27.68 c0.59 -0.02 1.51 -0.02 2.07 0 0.56 0.01 0.08 0.03 -1.06 0.03 -1.13 0 -1.59 -0.02 -1.01 -0.03z"/>
  <path d="M58.59 17.56 c0 -5.52 0.01 -7.78 0.02 -5.03 0.02 2.77 0.02 7.29 0 10.05 -0.01 2.76 -0.02 0.50 -0.02 -5.03z"/>
  <path d="M11.84 25.67 c0 -1.02 0.02 -1.43 0.03 -0.92 0.02 0.50 0.02 1.33 0 1.85 -0.01 0.50 -0.03 0.09 -0.03 -0.93z"/>
  <path d="M43.28 20.45 c0 -3.89 0.01 -5.48 0.02 -3.54 0.02 1.95 0.02 5.13 0 7.07 -0.01 1.95 -0.02 0.36 -0.02 -3.53z"/>
  <path d="M54.37 27.34 c-0.03 -0.08 -0.05 -0.67 -0.04 -1.29 l0.01 -1.14 0.06 1.26 c0.04 0.69 0.05 1.27 0.05 1.29 -0.02 0.02 -0.05 -0.04 -0.08 -0.12z"/>
  <path d="M15.97 26.98 c0 -0.20 0.02 -0.27 0.04 -0.15 0.02 0.11 0.02 0.27 0 0.36 -0.03 0.08 -0.05 -0.01 -0.04 -0.21z"/>
  <path d="M23.60 27.18 c0 -0.02 0.23 -0.19 0.50 -0.38 1.02 -0.70 1.87 -1.84 2.44 -3.22 0.16 -0.41 0.30 -0.69 0.30 -0.63 0 0.20 -0.38 1.13 -0.65 1.59 -0.14 0.23 -0.25 0.45 -0.25 0.49 0 0.08 -0.92 1.12 -1.30 1.47 -0.32 0.30 -1.04 0.77 -1.04 0.69z"/>
  <path d="M15.94 26.34 c0 -0.13 0.04 -0.21 0.09 -0.17 0.05 0.03 0.09 0.14 0.09 0.23 0 0.09 -0.04 0.17 -0.09 0.17 -0.05 0 -0.09 -0.11 -0.09 -0.23z"/>
  <path d="M50.94 20 c0 -3.64 0.01 -5.13 0.02 -3.31 0.02 1.83 0.02 4.80 0 6.62 -0.01 1.83 -0.02 0.33 -0.02 -3.31z"/>
  <path d="M30.22 25.94 c-0.18 -0.20 -0.59 -1.04 -0.58 -1.20 0 -0.06 0.08 0.06 0.17 0.26 0.09 0.21 0.27 0.54 0.40 0.75 0.26 0.41 0.26 0.47 0.01 0.19z"/>
  <path d="M63.20 25.72 c-0.22 -0.45 -0.18 -0.52 0.04 -0.11 0.10 0.20 0.17 0.37 0.15 0.39 -0.03 0.02 -0.11 -0.11 -0.19 -0.28z"/>
  <path d="M54.35 21.84 c0 -1.68 0.02 -2.36 0.03 -1.50 0.02 0.86 0.02 2.23 0 3.06 -0.01 0.83 -0.03 0.13 -0.03 -1.56z"/>
  <path d="M70.31 24.45 c-0.04 -0.13 -0.05 -0.25 -0.03 -0.28 0.03 -0.02 0.07 0.07 0.10 0.21 0.04 0.13 0.05 0.25 0.03 0.28 -0.03 0.02 -0.07 -0.07 -0.10 -0.21z"/>
  <path d="M20.37 24.20 c1.13 -0.42 1.59 -0.85 2.12 -1.98 0.12 -0.26 0.20 -0.37 0.16 -0.24 -0.27 1.13 -1.49 2.26 -2.55 2.40 -0.24 0.04 -0.17 -0.01 0.27 -0.17z"/>
  <path d="M34.75 24.05 c-0.23 -0.15 -0.51 -0.43 -0.65 -0.63 -0.32 -0.49 -0.30 -0.57 0.04 -0.11 0.15 0.21 0.50 0.50 0.77 0.66 0.27 0.15 0.50 0.30 0.50 0.32 0 0.11 -0.29 0 -0.65 -0.23z"/>
  <path d="M67.50 23.92 c-0.22 -0.22 -0.40 -0.45 -0.40 -0.51 0 -0.07 0.08 0 0.17 0.15 0.09 0.15 0.31 0.39 0.47 0.51 0.17 0.14 0.27 0.24 0.23 0.24 -0.05 0 -0.25 -0.18 -0.47 -0.40z"/>
  <path d="M69.45 24.19 c0.25 -0.15 0.45 -0.19 0.32 -0.06 -0.05 0.05 -0.19 0.11 -0.32 0.14 l-0.23 0.06 0.23 -0.14z"/>
  <path d="M17.70 24.08 c-1.23 -0.66 -1.77 -1.74 -1.74 -3.54 l0.01 -0.95 0.06 1.13 c0.07 1.18 0.13 1.44 0.43 2.03 0.29 0.54 0.46 0.71 1.09 1.12 0.58 0.37 0.66 0.50 0.14 0.22z"/>
  <path d="M62.71 23.96 c0 -0.17 0.02 -0.24 0.05 -0.15 0.02 0.08 0.02 0.23 0 0.32 -0.03 0.08 -0.05 0.01 -0.05 -0.16z"/>
  <path d="M11.84 21.39 c0 -1.09 0.02 -1.52 0.03 -0.96 0.02 0.56 0.02 1.45 0 1.98 -0.01 0.53 -0.03 0.07 -0.03 -1.02z"/>
  <path d="M38.70 22.81 c0.14 -0.30 0.27 -0.52 0.29 -0.50 0.06 0.05 -0.27 0.83 -0.41 0.94 -0.07 0.06 -0.02 -0.12 0.12 -0.43z"/>
  <path d="M29.32 18.19 c0 -2.65 0.01 -3.74 0.02 -2.40 0.02 1.32 0.02 3.49 0 4.82 -0.01 1.32 -0.02 0.23 -0.02 -2.41z"/>
  <path d="M26.85 22.73 c-0.01 -0.06 0.04 -0.31 0.08 -0.54 0.05 -0.24 0.14 -0.90 0.18 -1.47 l0.08 -1.04 -0.04 1.13 c-0.03 0.62 -0.10 1.33 -0.17 1.58 -0.07 0.25 -0.14 0.41 -0.14 0.34z"/>
  <path d="M66.94 19.73 l-0.02 -3.11 1.48 -0.03 c1 -0.03 1.50 0 1.53 0.06 0.05 0.07 -0.37 0.10 -1.42 0.10 l-1.50 0 -0.03 3.04 -0.02 3.04 -0.03 -3.11z"/>
  <path d="M33.65 22.47 c-0.03 -0.08 -0.05 -0.23 -0.05 -0.34 0.01 -0.14 0.04 -0.11 0.09 0.11 0.09 0.31 0.05 0.50 -0.05 0.23z"/>
  <path d="M22.76 20.81 c0.04 -0.77 0.01 -1.06 -0.14 -1.61 -0.22 -0.78 -0.56 -1.40 -0.89 -1.60 -0.14 -0.09 -0.31 -0.23 -0.39 -0.32 -0.08 -0.09 -0.17 -0.14 -0.21 -0.10 -0.03 0.03 -0.05 0.02 -0.05 -0.04 0 -0.05 -0.17 -0.17 -0.38 -0.26 -0.59 -0.26 -1.95 -0.24 -2.52 0.04 -0.86 0.42 -1.77 1.50 -2.05 2.44 -0.06 0.20 -0.07 0.21 -0.08 0.05 -0.02 -0.32 0.60 -1.43 1.04 -1.86 1.74 -1.72 4.40 -1.19 5.47 1.08 0.25 0.53 0.29 0.71 0.32 1.55 0.02 0.52 0 1.09 -0.05 1.26 -0.06 0.23 -0.07 0.07 -0.05 -0.63z"/>
  <path d="M33.53 21.12 c0 -0.34 0.02 -0.48 0.04 -0.29 0.02 0.18 0.02 0.47 0 0.63 -0.02 0.15 -0.04 0.01 -0.04 -0.34z"/>
  <path d="M39.14 17.43 c0 -2.18 0.01 -3.06 0.02 -1.95 0.02 1.11 0.02 2.89 0 3.96 -0.01 1.07 -0.02 0.17 -0.02 -2.01z"/>
  <path d="M8.13 20.67 c0 -0.20 0.02 -0.27 0.04 -0.15 0.02 0.11 0.02 0.27 0 0.36 -0.03 0.08 -0.05 -0.01 -0.04 -0.21z"/>
  <path d="M33.53 19.41 c0 -0.20 0.02 -0.27 0.04 -0.15 0.02 0.11 0.02 0.27 0 0.36 -0.03 0.08 -0.05 -0.01 -0.04 -0.21z"/>
  <path d="M27.05 19.23 c0 -0.20 0.02 -0.27 0.04 -0.15 0.02 0.11 0.02 0.27 0 0.36 -0.03 0.08 -0.05 -0.01 -0.04 -0.21z"/>
  <path d="M11.84 18.56 c0 -0.47 0.01 -0.67 0.03 -0.42 0.02 0.23 0.02 0.61 0 0.86 -0.02 0.23 -0.03 0.04 -0.03 -0.43z"/>
  <path d="M54.32 16.74 c0.01 -1.06 0.04 -1.83 0.07 -1.70 0.06 0.23 0.03 3.52 -0.05 3.59 -0.02 0.02 -0.04 -0.83 -0.03 -1.89z"/>
  <path d="M33.53 17.97 c0 -0.20 0.02 -0.27 0.04 -0.15 0.02 0.11 0.02 0.27 0 0.36 -0.03 0.08 -0.05 -0.01 -0.04 -0.21z"/>
  <path d="M11.83 16.93 c0 -0.32 0.02 -0.45 0.04 -0.29 0.02 0.15 0.02 0.42 0 0.59 -0.02 0.15 -0.04 0.03 -0.04 -0.30z"/>
  <path d="M26.33 16.74 c-0.11 -0.24 -0.18 -0.44 -0.16 -0.44 0.07 0 0.41 0.73 0.39 0.81 -0.02 0.04 -0.12 -0.13 -0.23 -0.37z"/>
  <path d="M61.64 16.78 c-0.56 -0.02 -1.02 -0.07 -1.02 -0.12 0 -0.05 0.45 -0.08 1.04 -0.07 0.81 0.01 1.04 0.04 1.04 0.13 0 0.07 -0.01 0.12 -0.02 0.11 -0.02 -0.01 -0.49 -0.04 -1.04 -0.05z"/>
  <path d="M70.20 14.86 c0 -0.92 0.02 -1.29 0.03 -0.83 0.02 0.45 0.02 1.21 0 1.67 -0.01 0.45 -0.03 0.08 -0.03 -0.84z"/>
  <path d="M60.39 14.86 c0 -0.82 0.02 -1.15 0.03 -0.74 0.02 0.41 0.02 1.07 0 1.49 -0.01 0.41 -0.03 0.07 -0.03 -0.75z"/>
  <path d="M25.63 15.56 c-0.14 -0.22 -0.20 -0.34 -0.13 -0.28 0.14 0.11 0.48 0.66 0.41 0.66 -0.02 0 -0.15 -0.17 -0.29 -0.38z"/>
  <path d="M11.83 15.31 c0 -0.23 0.02 -0.32 0.04 -0.20 0.02 0.11 0.02 0.29 0 0.41 -0.02 0.11 -0.04 0.02 -0.04 -0.21z"/>
  <path d="M33.53 14.77 c0 -0.37 0.02 -0.52 0.04 -0.33 0.02 0.18 0.02 0.49 0 0.68 -0.02 0.18 -0.04 0.03 -0.04 -0.34z"/>
  <path d="M8.14 13.42 c0 -1.02 0.02 -1.43 0.03 -0.92 0.02 0.50 0.02 1.33 0 1.85 -0.01 0.50 -0.03 0.09 -0.03 -0.93z"/>
  <path d="M15.93 11.32 c-0.02 -2.16 0 -3.90 0.04 -3.86 0.07 0.07 0.11 7.67 0.04 7.75 -0.03 0.02 -0.06 -1.72 -0.07 -3.88z"/>
  <path d="M46.69 14.14 c0 -0.42 0.02 -0.59 0.04 -0.38 0.02 0.21 0.02 0.55 0 0.77 -0.02 0.21 -0.04 0.04 -0.04 -0.39z"/>
  <path d="M11.83 13.96 c0 -0.42 0.02 -0.59 0.04 -0.38 0.02 0.21 0.02 0.55 0 0.77 -0.02 0.21 -0.04 0.04 -0.04 -0.39z"/>
  <path d="M54.33 11.06 c-0.01 -1.77 0.02 -3.23 0.05 -3.26 0.10 -0.05 0.12 4.50 0.03 5.62 -0.05 0.59 -0.07 -0.12 -0.08 -2.36z"/>
  <path d="M30.43 13.09 c0.51 -0.02 1.32 -0.02 1.80 0 0.48 0.01 0.06 0.03 -0.93 0.03 -0.99 0 -1.39 -0.02 -0.87 -0.03z"/>
  <path d="M40.15 13.09 c0.45 -0.02 1.21 -0.02 1.67 0 0.45 0.01 0.08 0.03 -0.84 0.03 -0.92 0 -1.29 -0.02 -0.83 -0.03z"/>
  <path d="M47.72 13.09 c0.41 -0.02 1.07 -0.02 1.49 0 0.41 0.01 0.07 0.03 -0.75 0.03 -0.82 0 -1.15 -0.02 -0.74 -0.03z"/>
  <path d="M61.37 13.09 c0.08 -0.02 0.23 -0.02 0.32 0 0.08 0.03 0.01 0.05 -0.16 0.05 -0.17 0 -0.24 -0.02 -0.15 -0.05z"/>
  <path d="M66.94 11.29 l0.03 -1.87 0.02 1.82 0.03 1.82 1.24 0.04 1.23 0.03 -1.28 0.02 -1.29 0.02 0.02 -1.86z"/>
  <path d="M62.63 11.71 c0 -0.32 0.02 -0.45 0.04 -0.29 0.02 0.15 0.02 0.42 0 0.59 -0.02 0.15 -0.04 0.03 -0.04 -0.30z"/>
  <path d="M11.84 9.55 c0 -1.02 0.02 -1.43 0.03 -0.92 0.02 0.50 0.02 1.33 0 1.85 -0.01 0.50 -0.03 0.09 -0.03 -0.93z"/>
  <path d="M48.71 11.29 c0.11 -0.02 0.27 -0.02 0.36 0 0.08 0.03 -0.01 0.05 -0.21 0.04 -0.20 0 -0.27 -0.02 -0.15 -0.04z"/>
  <path d="M49.67 11.08 c0.24 -0.10 0.61 -0.31 0.81 -0.47 0.24 -0.19 0.31 -0.22 0.19 -0.08 -0.23 0.27 -1.03 0.73 -1.26 0.72 -0.10 0 0.02 -0.08 0.26 -0.17z"/>
  <path d="M47.10 10.72 c-0.08 -0.05 -0.22 -0.20 -0.31 -0.33 -0.14 -0.23 -0.13 -0.23 0.17 0.05 0.40 0.38 0.43 0.45 0.14 0.28z"/>
  <path d="M8.14 9.28 c0 -0.67 0.01 -0.95 0.03 -0.60 0.02 0.33 0.02 0.87 0 1.22 -0.02 0.33 -0.03 0.05 -0.03 -0.61z"/>
  <path d="M51.04 9.89 c0.14 -0.26 0.26 -0.67 0.31 -1.04 0.06 -0.59 0.06 -0.59 0.08 -0.16 0.01 0.59 -0.13 1.06 -0.40 1.37 l-0.23 0.25 0.23 -0.42z"/>
  <path d="M8.13 7.66 c0 -0.23 0.02 -0.32 0.04 -0.20 0.02 0.11 0.02 0.29 0 0.41 -0.02 0.11 -0.04 0.02 -0.04 -0.21z"/>
  <path d="M51.07 7.58 c-0.06 -0.15 -0.17 -0.32 -0.24 -0.38 -0.07 -0.06 -0.17 -0.20 -0.22 -0.30 -0.13 -0.27 0.34 0.29 0.51 0.60 0.08 0.14 0.12 0.28 0.10 0.30 -0.02 0.03 -0.09 -0.08 -0.15 -0.23z"/>
  <path d="M14.44 7.32 c0.08 -0.02 0.23 -0.02 0.32 0 0.08 0.03 0.01 0.05 -0.16 0.05 -0.17 0 -0.24 -0.02 -0.15 -0.05z"/>
  <path d="M55.38 7.32 c0.41 -0.02 1.07 -0.02 1.49 0 0.41 0.01 0.07 0.03 -0.75 0.03 -0.82 0 -1.15 -0.02 -0.74 -0.03z"/>
 </g>
</svg>