<?xml version="1.0" encoding="utf-8"?>
<!DOCTYPE svg PUBLIC "-//W3C//DTD SVG 1.0//EN" "http://www.w3.org/TR/2001/REC-SVG-20010904/DTD/svg10.dtd">
<svg version="1.0" xmlns="http://www.w3.org/2000/svg" width="606px" height="70px" viewBox="0 0 606 70" preserveAspectRatio="xMidYMid meet">
 <g fill="#0f0f0f">
  <path d="M84.32 63.67 c-5.46 -0.84 -9.63 -2.77 -13.12 -6.14 -1.48 -1.42 -3.71 -4.51 -3.95 -5.42 -0.06 -0.26 -0.18 -0.48 -0.26 -0.48 -0.08 0 -0.42 0.56 -0.76 1.26 -2.15 4.37 -6.76 7.85 -12.14 9.23 -3.11 0.78 -5.58 0.90 -16.43 0.84 -9.87 -0.06 -10.09 -0.06 -10.86 -0.50 -0.92 -0.48 -1.50 -1.08 -2.01 -2.05 -0.36 -0.68 -0.38 -1.65 -0.38 -25.32 0 -13.54 0.08 -24.88 0.16 -25.18 0.08 -0.32 0.52 -0.96 0.98 -1.46 1.38 -1.48 1.30 -1.48 13.42 -1.48 6.04 0 11.30 0.08 12.26 0.20 6.06 0.74 11.04 3.63 13.42 7.77 l0.64 1.10 0.10 -3.13 c0.10 -3.09 0.10 -3.13 0.70 -3.99 0.34 -0.46 1.02 -1.08 1.50 -1.36 l0.90 -0.50 6.20 0 6.20 0 0.96 0.60 c0.54 0.34 1.16 0.92 1.40 1.30 0.40 0.68 0.40 1.02 0.50 17.84 0.10 16.80 0.10 17.16 0.52 17.94 1.08 2.11 4.86 2.25 6.34 0.24 0.42 -0.56 0.42 -0.80 0.52 -17.64 l0.10 -17.08 0.46 -0.94 c0.26 -0.54 0.74 -1.14 1.08 -1.38 1.20 -0.86 2.09 -0.98 7.73 -0.98 6.20 0 6.90 0.12 8.05 1.40 l0.72 0.80 0.78 -0.78 c1.32 -1.32 1.93 -1.42 8.09 -1.42 6.10 0 6.96 0.14 8.01 1.24 1.36 1.44 1.26 -0.68 1.26 26.67 0 21.87 -0.04 24.82 -0.30 25.48 -0.40 0.94 -1 1.55 -1.99 2.09 -0.76 0.42 -1.04 0.44 -6.68 0.44 -6.32 0 -6.84 -0.06 -7.99 -1.04 -0.32 -0.28 -0.80 -0.88 -1.04 -1.34 -0.40 -0.76 -0.44 -1.16 -0.54 -5.58 l-0.10 -4.76 -1.04 2.07 c-2.97 5.96 -8.77 10.09 -15.81 11.24 -1.71 0.26 -6.22 0.38 -7.57 0.18z m6.52 -5.36 c6.92 -1.32 11.58 -5.50 13.28 -11.86 0.44 -1.69 0.44 -1.75 0.44 -18.04 l0 -16.35 -4.09 0 -4.09 0 -0.10 16.74 c-0.10 18.10 -0.04 16.98 -1.16 19.16 -0.84 1.63 -2.85 3.03 -5.02 3.49 -1.51 0.32 -5.22 0.12 -6.44 -0.34 -2.05 -0.80 -3.75 -2.57 -4.47 -4.72 -0.32 -0.94 -0.36 -2.57 -0.46 -17.68 l-0.10 -16.65 -4.33 0 c-3.69 0 -4.35 -0.04 -4.43 -0.30 -0.04 -0.16 -0.08 0.10 -0.08 0.60 0 0.50 0.04 0.74 0.10 0.54 0.36 -1.40 0.46 1.22 0.46 12.98 0.02 13.97 0.18 18.98 0.68 20.85 1.22 4.47 3.81 7.67 7.87 9.77 3.71 1.91 7.99 2.55 11.92 1.81z m-38.73 -1.08 c6.18 -1.75 9.81 -5.58 10.68 -11.34 0.52 -3.29 -0.92 -7.38 -3.23 -9.27 -0.92 -0.76 -3.05 -1.93 -3.51 -1.93 -0.18 0 -0.24 -0.24 -0.20 -0.74 0.06 -0.66 0.18 -0.80 1.20 -1.40 3.01 -1.75 4.82 -5.04 4.78 -8.73 -0.04 -4.19 -2.47 -8.17 -6.10 -9.95 -3.43 -1.65 -6.26 -1.95 -17.86 -1.87 l-8.27 0.06 -0.06 22.88 -0.04 22.88 10.51 -0.08 c10.19 -0.06 10.59 -0.08 12.10 -0.52z m70.09 -22.35 l0 -22.92 -4.03 0.04 -4.05 0.06 -0.06 22.88 -0.04 22.86 4.09 0 4.09 0 0 -22.92z m-56.81 -1.40 c0 -0.66 -0.08 -1.20 -0.18 -1.20 -0.10 0 -0.38 0.28 -0.64 0.62 l-0.42 0.60 0.56 0.60 c0.30 0.32 0.58 0.58 0.62 0.58 0.04 0 0.06 -0.54 0.06 -1.20z"/>
  <path d="M37.88 44.05 l0 -7.18 4.84 0 c2.65 0 5.44 0.10 6.18 0.20 2.35 0.34 4.03 1.48 4.96 3.37 0.40 0.80 0.46 1.24 0.46 3.41 0 2.19 -0.06 2.61 -0.46 3.49 -0.54 1.18 -1.42 2.13 -2.55 2.81 -1.46 0.86 -3.11 1.08 -8.49 1.08 l-4.94 0 0 -7.18z m10.29 1.61 c0.88 -0.54 1.20 -1.53 0.80 -2.49 -0.38 -0.92 -1.24 -1.16 -3.95 -1.08 l-2.05 0.06 -0.06 1.95 -0.06 1.93 2.35 0 c1.97 0 2.45 -0.06 2.97 -0.38z"/>
  <path d="M37.88 25.02 l0 -6.52 5.54 0.08 c4.47 0.08 5.72 0.16 6.56 0.44 1.50 0.48 2.65 1.44 3.31 2.69 0.48 0.98 0.54 1.30 0.54 3.11 0 1.36 -0.10 2.33 -0.34 2.99 -0.44 1.30 -1.67 2.51 -3.17 3.11 -1.12 0.44 -1.46 0.46 -6.80 0.54 l-5.64 0.08 0 -6.52z m10.37 0.70 c0.46 -0.46 0.50 -0.76 0.14 -1.22 -0.48 -0.64 -1.12 -0.78 -3.31 -0.78 l-2.21 0 0 1.20 0 1.20 2.49 0 c2.23 0 2.53 -0.04 2.89 -0.40z"/>
  <path d="M131.15 62.73 c-1.26 -0.36 -2.01 -0.94 -2.61 -2.07 l-0.54 -0.98 -0.04 -24.70 c-0.04 -24.60 -0.04 -24.72 0.36 -25.52 0.48 -0.92 1.06 -1.50 2.05 -2.01 0.62 -0.34 1.30 -0.38 6.18 -0.44 6.22 -0.08 7.20 0.04 8.31 1.02 1.53 1.36 1.46 0.08 1.46 20.11 l0 17.88 8.53 0.06 8.51 0.06 0.84 0.48 c0.48 0.28 1.10 0.84 1.40 1.28 l0.56 0.80 0 5.74 0 5.72 -0.60 0.88 c-0.34 0.46 -1.02 1.08 -1.50 1.36 l-0.90 0.50 -15.55 0.04 c-11.90 0.04 -15.77 -0.02 -16.47 -0.20z m29.92 -8.19 c0 -2.93 -0.04 -3.29 -0.34 -3.41 -0.20 -0.06 -4.66 -0.10 -9.93 -0.08 l-9.57 0.04 -0.06 -19.58 -0.04 -19.56 -4.05 0.04 -4.03 0.06 -0.06 20.83 c-0.04 11.46 0 21.75 0.06 22.88 l0.14 2.03 13.93 0 13.93 0 0 -3.27z"/>
  <path d="M170.22 62.73 c-1.30 -0.36 -2.07 -1 -2.65 -2.17 l-0.52 -1.04 0 -17.90 0 -17.90 -4.74 0 c-2.59 0 -5.02 -0.08 -5.40 -0.20 -1.04 -0.30 -2.09 -1.12 -2.63 -2.05 -0.48 -0.84 -0.48 -0.90 -0.48 -6.12 0 -5.26 0 -5.28 0.50 -6.18 0.56 -0.98 1.48 -1.69 2.61 -1.99 0.50 -0.14 7.40 -0.18 19.95 -0.16 l19.20 0.06 0.82 0.44 c1.06 0.56 1.81 1.46 2.07 2.47 0.14 0.52 0.20 2.65 0.16 5.86 l-0.06 5.04 -0.60 0.88 c-0.34 0.46 -1.02 1.08 -1.50 1.36 -0.88 0.50 -0.98 0.50 -6.12 0.56 l-5.24 0.06 0 17.92 c0 19.68 0.06 18.64 -1.24 19.93 -1.24 1.26 -1.48 1.30 -7.63 1.34 -4.01 0.04 -5.84 -0.02 -6.50 -0.20z m10.19 -24.46 l0 -19.54 6.74 -0.04 6.72 -0.06 0.06 -2.63 c0.04 -2.11 0.10 -2.65 0.34 -2.65 0.14 0 0.32 0.16 0.36 0.34 0.06 0.20 0.10 -0.22 0.10 -0.94 0 -0.72 -0.04 -1.16 -0.08 -1 -0.08 0.26 -2.21 0.30 -17.92 0.24 l-17.84 -0.04 0 2.99 c0 2.45 -0.06 2.99 -0.28 2.99 -0.16 0 -0.34 -0.16 -0.38 -0.34 -0.06 -0.20 -0.10 0.04 -0.10 0.54 0 0.50 0.04 0.74 0.10 0.54 0.08 -0.28 0.22 -0.34 0.52 -0.26 0.24 0.06 3.33 0.12 6.88 0.12 l6.42 0 0 19.64 0 19.64 4.19 0 4.19 0 0 -19.54z"/>
  <path d="M222.15 62.81 c-1.65 -0.42 -3.01 -1.75 -3.47 -3.41 -0.12 -0.38 -1.20 -5.26 -2.41 -10.86 -1.22 -5.58 -3.49 -15.95 -5.06 -23.02 -1.57 -7.08 -2.91 -13.28 -2.99 -13.79 -0.26 -1.67 0.62 -3.37 2.15 -4.21 0.82 -0.42 1 -0.44 7.12 -0.44 6.12 0 6.30 0.02 7.12 0.44 0.88 0.48 1.69 1.40 2.03 2.31 0.12 0.32 0.68 2.87 1.22 5.68 0.56 2.81 1.08 5.28 1.16 5.50 0.10 0.24 0.58 -1.55 1.40 -5.26 0.70 -3.11 1.44 -5.98 1.63 -6.38 0.52 -1 1.63 -1.91 2.71 -2.17 1.36 -0.34 9.95 -0.28 11.16 0.08 1.16 0.34 2.09 1.22 2.65 2.49 0.36 0.84 2.61 10.33 2.61 11.02 0 0.18 0.08 0.36 0.18 0.42 0.08 0.06 0.64 -2.25 1.20 -5.12 1.22 -6.16 1.42 -6.84 2.25 -7.69 1.30 -1.34 1.22 -1.32 8.03 -1.32 6.10 0 6.18 0 7 0.46 l0.80 0.48 0.80 -0.48 c0.78 -0.46 0.84 -0.46 7.06 -0.46 5.72 0 6.34 0.04 6.96 0.36 0.66 0.36 0.70 0.36 1.48 0 0.78 -0.34 1.79 -0.36 20.27 -0.36 18.70 0 19.46 0.02 20.19 0.38 0.76 0.38 0.78 0.38 1.50 0 0.66 -0.34 1.30 -0.38 6.32 -0.44 6.26 -0.08 7.20 0.04 8.35 1 1.50 1.24 1.51 1.28 1.51 10.09 l0 7.81 4.49 0 4.47 0 0.06 -7.93 0.06 -7.95 0.60 -0.96 c0.42 -0.70 0.90 -1.12 1.59 -1.48 l0.98 -0.52 6.22 0 6.20 0 0.96 0.60 c0.70 0.42 1.12 0.90 1.48 1.59 l0.52 0.98 0.06 24.34 c0.04 17.70 0 24.54 -0.18 25.14 -0.28 1.08 -1.20 2.17 -2.23 2.73 -0.82 0.42 -1.02 0.44 -6.72 0.44 -6.32 0 -6.84 -0.06 -7.99 -1.04 -0.32 -0.28 -0.80 -0.88 -1.04 -1.34 -0.44 -0.80 -0.44 -0.98 -0.50 -9.45 l-0.06 -8.61 -4.43 0.04 -4.43 0.06 -0.10 8.81 -0.10 8.79 -0.60 0.86 c-0.36 0.52 -1 1.06 -1.59 1.36 -0.98 0.52 -1.04 0.52 -6.34 0.58 -3.39 0.04 -5.74 -0.02 -6.40 -0.16 -1.42 -0.30 -2.39 -1.04 -3.01 -2.25 l-0.50 -1.02 0 -17.90 0 -17.90 -5.08 0 -5.08 0 0 17.90 0 17.90 -0.50 1.02 c-0.62 1.22 -1.59 1.95 -3.05 2.25 -0.68 0.16 -2.95 0.20 -6.48 0.16 -5.92 -0.06 -6.22 -0.12 -7.44 -1.32 -1.26 -1.28 -1.18 0.04 -1.24 -19.81 l-0.04 -18.10 -4.98 0 -4.98 0 0 18 0 18 -0.64 1.08 c-0.50 0.82 -0.90 1.20 -1.65 1.59 -0.98 0.50 -1.06 0.50 -6.34 0.56 -3.41 0.04 -5.72 -0.02 -6.38 -0.16 -1.44 -0.30 -2.41 -1.04 -3.03 -2.25 l-0.50 -1.02 0 -15.91 c0 -9.19 -0.08 -15.91 -0.18 -15.91 -0.22 0 -0.14 -0.28 -3.71 16.25 -1.59 7.36 -3.03 13.97 -3.21 14.71 -0.44 1.81 -1.30 3.07 -2.57 3.73 -0.98 0.50 -1.06 0.50 -6.30 0.56 -5.92 0.08 -7.24 -0.06 -8.45 -0.92 -1.30 -0.90 -1.71 -1.99 -3.01 -7.69 -1.06 -4.70 -1.38 -5.66 -1.79 -5.26 -0.04 0.06 -0.62 2.39 -1.28 5.20 -0.64 2.81 -1.32 5.44 -1.50 5.86 -0.40 0.96 -1.18 1.77 -2.19 2.31 -0.76 0.42 -1.08 0.44 -6.48 0.48 -3.13 0.02 -5.96 -0.04 -6.30 -0.12z m11.26 -9.53 c0.58 -2.51 2.13 -9.21 3.43 -14.91 1.32 -5.70 2.43 -10.53 2.49 -10.70 0.08 -0.26 0.32 -0.36 0.86 -0.36 l0.74 0 1.36 5.94 c0.74 3.25 1.97 8.65 2.73 12 0.76 3.35 1.71 7.52 2.13 9.27 l0.74 3.19 4.43 0.06 c4.09 0.04 4.43 0.02 4.53 -0.30 0.04 -0.20 1.14 -5.16 2.41 -11.02 2.41 -11.04 4.78 -21.95 6.50 -29.70 0.54 -2.47 0.98 -4.56 0.98 -4.64 0 -0.22 -7.73 -0.18 -7.87 0.06 -0.06 0.10 -1.46 6.86 -3.09 14.99 -1.61 8.15 -3.07 15.29 -3.19 15.87 -0.22 1 -0.26 1.04 -0.92 1.04 -0.38 0 -0.68 -0.06 -0.68 -0.12 0 -0.06 -0.42 -1.91 -0.92 -4.13 -0.50 -2.21 -1.34 -6 -1.87 -8.41 -0.90 -4.05 -4.05 -17.94 -4.29 -18.98 -0.10 -0.46 -0.14 -0.46 -3.59 -0.46 -1.89 0 -3.51 0.08 -3.57 0.16 -0.04 0.08 -1.50 6.30 -3.21 13.79 -1.71 7.52 -3.35 14.67 -3.63 15.91 l-0.54 2.23 -0.66 0 c-0.52 0 -0.68 -0.10 -0.76 -0.44 -0.04 -0.26 -1 -5.12 -2.09 -10.82 -1.12 -5.70 -2.47 -12.70 -3.05 -15.55 l-1.04 -5.18 -4.03 -0.06 c-3.11 -0.04 -4.05 0 -4.05 0.20 0 0.14 1.18 5.54 2.61 12.02 2.93 13.30 6.62 29.98 7.08 32.15 l0.32 1.44 4.33 0 4.35 0 1.04 -4.53z m49.06 -18.40 l0 -22.92 -4.09 0 -4.09 0 0 22.92 0 22.92 4.09 0 4.09 0 0 -22.92z m28.75 3.35 l0.06 -19.60 6.74 -0.06 6.72 -0.04 -0.04 -3.25 -0.06 -3.23 -17.54 0 -17.54 0 -0.06 3.25 -0.04 3.23 6.68 0 6.68 0 0 19.64 0 19.64 4.19 0 4.19 0 0.04 -19.58z m28.71 9.47 l0.06 -10.13 9.63 -0.06 9.61 -0.04 0 10.17 0 10.17 4.19 0 4.19 0 -0.04 -22.86 -0.06 -22.88 -4.13 -0.06 -4.15 -0.04 0 9.57 0 9.57 -9.35 0 c-5.14 0 -9.49 -0.06 -9.67 -0.12 -0.28 -0.10 -0.32 -1.14 -0.32 -9.57 l0 -9.45 -4.09 0 -4.09 0 0 22.92 0 22.92 4.09 0 4.09 0 0.04 -10.11z"/>
  <path d="M400.58 62.81 c-1.46 -0.38 -2.45 -1.20 -2.99 -2.47 -0.28 -0.68 -0.32 -2.73 -0.30 -18.70 l0 -17.92 -4.86 0 c-5.32 0 -6.08 -0.12 -7.16 -1.16 -1.28 -1.22 -1.34 -1.50 -1.34 -7.22 0 -4.78 0.04 -5.26 0.40 -5.96 0.50 -1 1.61 -1.91 2.67 -2.19 0.60 -0.18 6.20 -0.22 20.35 -0.18 17.72 0.06 19.60 0.10 20.13 0.40 0.56 0.30 0.64 0.30 1.20 0 0.54 -0.30 2.17 -0.34 16.92 -0.40 14.11 -0.04 16.47 -0.02 17.36 0.26 0.58 0.16 1.16 0.42 1.28 0.58 0.20 0.24 0.38 0.20 1.18 -0.24 l0.94 -0.54 16.45 0 c12.38 0 16.55 0.06 16.86 0.24 0.32 0.18 0.58 0.18 1.26 -0.06 0.72 -0.24 3.61 -0.28 20.01 -0.24 17.90 0.06 19.22 0.08 19.81 0.42 0.64 0.34 0.70 0.34 1.87 -0.06 1.16 -0.40 1.59 -0.42 6.94 -0.36 5.66 0.06 5.70 0.06 6.60 0.56 0.48 0.28 1.16 0.90 1.50 1.36 l0.60 0.88 0.06 8.05 0.06 8.05 4.47 0 4.49 0 0 -7.77 c0 -6.58 0.04 -7.89 0.30 -8.53 0.40 -0.94 1 -1.55 1.99 -2.09 0.76 -0.42 1.04 -0.44 6.98 -0.44 6 0 6.20 0.02 7 0.44 1.04 0.56 1.79 1.44 2.07 2.41 0.12 0.48 0.20 8.97 0.20 25.16 l0 24.42 -0.48 1.04 c-0.56 1.18 -1.51 1.91 -2.91 2.23 -1.16 0.28 -10.60 0.28 -11.76 0 -1.40 -0.32 -2.35 -1.06 -2.91 -2.23 l-0.48 -1.04 0 -8.51 0 -8.53 -4.49 0 -4.49 0 0 8.53 0 8.53 -0.50 1.02 c-0.62 1.22 -1.59 1.95 -3.03 2.25 -0.66 0.14 -2.95 0.20 -6.38 0.16 -5.88 -0.08 -6.18 -0.12 -7.40 -1.36 -1.30 -1.30 -1.24 -0.26 -1.24 -19.95 l0 -17.92 -5.08 0 -5.08 0 0 17.72 c0 19.36 0.04 18.76 -1.16 20.01 -0.30 0.32 -0.90 0.78 -1.34 1 -0.76 0.42 -1.12 0.44 -6.22 0.50 -6.66 0.08 -7.28 -0.02 -8.63 -1.32 -0.62 -0.60 -1.04 -1.22 -1.18 -1.73 -0.14 -0.56 -0.22 -6.30 -0.22 -18.48 l0 -17.68 -5.22 -0.10 c-2.89 -0.06 -5.46 -0.10 -5.74 -0.10 -0.28 0 -4.51 0.06 -9.41 0.10 l-8.93 0.10 0 0.84 c0 0.46 0.08 0.94 0.16 1.08 0.10 0.18 2.03 0.26 7.22 0.30 7.63 0.06 7.93 0.10 9.15 1.22 1.12 1.04 1.22 1.59 1.22 7.12 0 5.52 -0.10 6.08 -1.22 7.12 -1.12 1.02 -1.44 1.06 -9.13 1.06 -3.95 0 -7.22 0.08 -7.28 0.18 -0.06 0.08 -0.06 0.90 0.02 1.77 l0.12 1.61 9.21 0.06 9.21 0.06 0.98 0.60 c0.62 0.40 1.16 0.94 1.48 1.50 0.50 0.90 0.50 0.92 0.50 6.28 0 4.64 -0.04 5.46 -0.34 5.98 -0.46 0.84 -1.24 1.59 -2.11 2.03 -0.70 0.34 -1.61 0.36 -17.48 0.36 l-16.74 0 -0.96 -0.44 -0.98 -0.46 -0.82 0.46 -0.84 0.44 -16.05 0.06 c-10.86 0.04 -16.37 -0.02 -17.04 -0.16 -1.42 -0.30 -2.39 -1.02 -2.99 -2.19 l-0.50 -0.98 0 -17.96 0 -17.94 -5.16 0 -5.14 0 -0.14 3.17 c-0.08 1.75 -0.12 9.85 -0.10 18 0.02 14.53 0.02 14.85 -0.38 15.63 -0.46 0.90 -1.04 1.48 -2.03 1.99 -0.64 0.34 -1.26 0.38 -6.48 0.42 -3.17 0.02 -6.04 -0.04 -6.38 -0.12z m10.27 -24.64 l0 -19.64 6.88 0 6.88 0 0 -3.29 0 -3.29 -17.78 0.04 -17.80 0.06 -0.06 3.25 -0.04 3.23 6.66 0 6.66 0 0.12 0.46 c0.06 0.24 0.12 9.07 0.12 19.64 l0 19.18 4.19 0 4.19 0 0 -19.64z m50.43 16.25 l0 -3.39 -10.76 0 -10.76 0 0.04 -6.72 0.06 -6.74 8.73 -0.06 8.71 -0.04 0 -3.19 0 -3.19 -8.71 -0.04 -8.73 -0.06 0 -6.18 0 -6.18 10.33 -0.06 10.31 -0.04 0 -3.29 0 -3.29 -14.45 0 -14.45 0 0 22.92 0 22.92 14.85 0 14.85 0 0 -3.39z m36.88 0 l0 -3.39 -10.76 0 -10.76 0 0 -6.78 0 -6.78 8.77 0 8.77 0 0 -3.19 0 -3.19 -8.77 0 -8.77 0 0.04 -6.22 0.06 -6.24 10.13 -0.06 10.11 -0.04 0 -3.29 0 -3.29 -14.35 0 -14.35 0 0 22.92 0 22.92 14.95 0 14.95 0 0 -3.39z m26.35 -16.19 l0.06 -19.60 6.74 -0.06 6.72 -0.04 -0.04 -3.25 -0.06 -3.23 -17.58 -0.06 -17.60 -0.04 0 3.29 0 3.29 6.64 0.04 6.62 0.06 0.06 19.60 0.04 19.58 4.19 0 4.19 0 0.04 -19.58z m28.67 9.41 l0 -10.17 9.63 0.04 9.61 0.06 0.02 3.09 c0.02 1.69 0.04 6.26 0.06 10.13 l0.02 7.02 4.09 0 4.09 0 0 -22.92 0 -22.92 -4.09 0 -4.09 0 -0.02 2.85 c-0.02 1.55 -0.04 5.84 -0.06 9.51 l-0.02 6.68 -9.57 0 -9.57 0 -0.06 -9.53 -0.04 -9.51 -4.09 0 -4.07 0 -0.06 2.65 c-0.04 1.44 -0.04 11.76 0 22.92 l0.04 20.27 4.09 0 4.09 0 0 -10.17z m-90.10 -12.76 l0 -11.16 -9.01 0.04 -9.03 0.06 -0.06 1.06 -0.06 1.04 6.58 0 c7.79 0 8.25 0.06 9.59 1.38 1.32 1.26 1.46 2.01 1.36 7.65 -0.06 4.72 -0.14 5.08 -1.24 6.28 -1.02 1.12 -1.04 1.14 -8.89 1.24 l-7.28 0.10 -0.02 1.75 -0.04 1.73 9.05 0 9.05 0 0 -11.16z"/>
 </g>
 <g fill="#ffffff">
  <path d="M83.92 58.99 c-5.70 -0.96 -10.64 -4.53 -12.56 -9.07 -0.96 -2.31 -1.22 -3.59 -1.40 -7.06 -0.20 -3.79 -0.26 -28.13 -0.06 -30.16 l0.12 -1.34 4.60 0.04 4.60 0.06 0.10 16.65 c0.10 15.11 0.14 16.74 0.46 17.68 0.72 2.15 2.41 3.95 4.47 4.72 1.24 0.46 3.87 0.64 5.22 0.34 2.19 -0.46 4.21 -1.85 5.04 -3.49 1.12 -2.17 1.06 -1.06 1.16 -19.16 l0.10 -16.74 4.68 0 4.68 0 0 16.94 c0 16.90 0 16.94 -0.44 18.64 -2.03 7.67 -8.51 12.22 -17.28 12.14 -1.32 -0.02 -2.91 -0.10 -3.51 -0.20z"/>
  <path d="M28.94 34.94 l0.06 -23.48 8.87 -0.06 c12.26 -0.08 15.01 0.20 18.46 1.87 6 2.93 8.11 11.42 4.27 17.18 -0.74 1.08 -2.09 2.27 -3.61 3.11 l-0.68 0.36 0.96 0.38 c1.12 0.44 1.73 0.82 2.91 1.75 2.43 1.93 3.83 6.46 3.23 10.39 -0.92 5.80 -4.49 9.63 -10.70 11.38 -1.53 0.44 -1.89 0.46 -12.70 0.52 l-11.10 0.08 0.04 -23.48z m19.58 15.39 c2.27 -0.48 3.87 -1.67 4.74 -3.59 0.66 -1.42 0.64 -4.37 0 -5.70 -0.92 -1.87 -2.61 -3.03 -4.96 -3.37 -0.74 -0.10 -3.27 -0.20 -5.58 -0.20 l-4.25 0 0 6.58 0 6.58 4.35 0 c3.01 0 4.74 -0.10 5.70 -0.30z m1.20 -20.01 c2.35 -0.94 3.51 -2.75 3.51 -5.50 0 -2.53 -1.38 -4.41 -3.85 -5.20 -0.82 -0.26 -2.09 -0.36 -5.96 -0.44 l-4.94 -0.08 0 5.92 0 5.92 5.04 -0.08 c4.68 -0.08 5.10 -0.12 6.20 -0.54z"/>
  <path d="M113.47 34.94 l0.06 -23.48 4.64 -0.06 4.62 -0.04 0 23.52 0 23.52 -4.68 0 -4.68 0 0.04 -23.46z"/>
  <path d="M132.46 56.37 c-0.06 -1.14 -0.10 -11.70 -0.06 -23.48 l0.06 -21.43 4.62 -0.06 4.64 -0.04 0.04 19.54 0.06 19.56 9.59 -0.02 c5.28 0 9.75 0.04 9.93 0.12 0.28 0.10 0.32 0.60 0.32 3.99 l0 3.87 -14.53 0 -14.53 0 -0.14 -2.03z"/>
  <path d="M171.43 38.77 l0 -19.64 -6.58 0 -6.58 0 0 -3.89 0 -3.89 18.14 0 18.14 0 -0.04 3.95 -0.06 3.93 -6.72 0.06 -6.74 0.04 0 19.54 0 19.54 -4.78 0 -4.78 0 0 -19.64z"/>
  <path d="M222.78 56.97 c-0.44 -2.05 -3.59 -16.33 -7 -31.72 -1.59 -7.22 -2.89 -13.30 -2.89 -13.52 0 -0.38 0.14 -0.38 4.74 -0.34 l4.72 0.06 1.04 5.18 c0.58 2.85 1.95 9.89 3.05 15.65 1.12 5.76 2.09 10.62 2.17 10.84 0.16 0.42 -0.02 1.20 4.31 -17.82 1.71 -7.50 3.17 -13.71 3.21 -13.79 0.06 -0.08 1.93 -0.16 4.17 -0.16 4.07 0 4.09 0 4.19 0.44 0.24 1.06 3.39 14.95 4.29 19 1.69 7.65 2.81 12.56 2.89 12.62 0.10 0.10 0.26 -0.74 3.49 -16.86 1.63 -8.13 3.03 -14.89 3.09 -14.99 0.08 -0.12 1.93 -0.20 4.70 -0.20 3.85 0 4.56 0.04 4.56 0.28 0 0.16 -0.50 2.53 -1.08 5.24 -1.87 8.51 -4.19 19.10 -6.60 30.16 -1.28 5.86 -2.37 10.82 -2.41 11.02 -0.10 0.32 -0.48 0.34 -5.12 0.30 l-5.02 -0.06 -0.74 -3.19 c-0.42 -1.75 -1.38 -5.92 -2.13 -9.27 -3.53 -15.53 -4.09 -17.94 -4.23 -17.94 -0.22 0 -0.12 -0.36 -2.75 11.06 -1.30 5.70 -2.85 12.40 -3.43 14.91 l-1.04 4.53 -4.94 0 -4.92 0 -0.32 -1.44z"/>
  <path d="M273.70 34.88 l0 -23.52 4.66 0 4.66 0 0.06 0.54 c0.04 0.32 0.06 10.90 0.02 23.54 l-0.04 22.96 -4.68 0 -4.68 0 0 -23.52z"/>
  <path d="M302.20 38.77 l0 -19.64 -6.68 0 -6.68 0 0.04 -3.83 0.06 -3.85 18.14 0 18.14 0 0.06 3.83 0.04 3.85 -6.72 0.04 -6.74 0.06 -0.06 19.60 -0.04 19.58 -4.78 0 -4.78 0 0 -19.64z"/>
  <path d="M331.11 34.88 l0 -23.52 4.68 0 4.68 0 0 9.45 c0 8.43 0.04 9.47 0.32 9.57 0.18 0.06 4.25 0.12 9.07 0.12 l8.75 0 0 -9.57 0 -9.57 4.74 0.04 4.72 0.06 0.06 23.48 0.04 23.46 -4.78 0 -4.78 0 0 -10.17 0 -10.17 -9.01 0.04 -9.03 0.06 -0.06 10.13 -0.04 10.11 -4.68 0 -4.68 0 0 -23.52z"/>
  <path d="M401.87 39.23 c0 -10.57 -0.06 -19.40 -0.12 -19.64 l-0.12 -0.46 -6.66 0 -6.66 0 0.04 -3.83 0.06 -3.85 18.40 -0.06 18.38 -0.04 0 3.89 0 3.89 -6.88 0 -6.88 0 0 19.64 0 19.64 -4.78 0 -4.78 0 0 -19.18z"/>
  <path d="M430.98 34.88 l0 -23.52 15.05 0 15.05 0 0 3.89 0 3.89 -10.31 0.04 -10.33 0.06 0 5.58 0 5.58 8.73 0.06 8.71 0.04 0 3.79 0 3.79 -8.71 0.04 -8.73 0.06 -0.06 6.14 -0.04 6.12 10.76 0 10.76 0 0 3.99 0 3.99 -15.45 0 -15.45 0 0 -23.52z"/>
  <path d="M467.66 34.88 l0 -23.52 14.93 0 14.95 0 0.06 2.35 c0.04 1.28 0.04 3.03 0 3.87 l-0.06 1.55 -10.11 0.04 -10.11 0.06 -0.06 5.62 -0.04 5.64 8.77 0 8.77 0 0 3.79 0 3.79 -8.77 0 -8.77 0 0 6.18 0 6.18 10.76 0 10.76 0 0 3.99 0 3.99 -15.55 0 -15.55 0 0 -23.52z"/>
  <path d="M515.46 38.83 l-0.06 -19.60 -6.62 -0.06 -6.64 -0.04 0 -3.89 0 -3.89 18.20 0.04 18.18 0.06 0.06 3.83 0.04 3.85 -6.72 0.04 -6.74 0.06 -0.06 19.60 -0.04 19.58 -4.78 0 -4.78 0 -0.04 -19.58z"/>
  <path d="M544.40 44.41 c0 -7.71 0 -17.78 -0.02 -22.39 -0.02 -4.60 -0.02 -8.89 0 -9.51 l0.02 -1.16 4.68 0 4.68 0 0.04 9.53 0.06 9.51 8.97 0 8.97 0 0 -6.68 c0 -3.67 0.02 -7.95 0.06 -9.51 l0.04 -2.85 4.68 0 4.68 0 0 23.52 0 23.52 -4.68 0 -4.68 0 0 -3.53 c0 -1.95 -0.02 -6.50 -0.06 -10.13 l-0.06 -6.58 -9.01 -0.06 -9.01 -0.04 0 10.17 0 10.17 -4.68 0 -4.68 0 0 -13.99z"/>
 </g>
</svg>