<?xml version="1.0" encoding="utf-8"?>
<!DOCTYPE svg PUBLIC "-//W3C//DTD SVG 1.0//EN" "http://www.w3.org/TR/2001/REC-SVG-20010904/DTD/svg10.dtd">
<svg version="1.0" xmlns="http://www.w3.org/2000/svg" width="425px" height="170px" viewBox="0 0 425 170" preserveAspectRatio="xMidYMid meet">
 <g fill="#000000">
  <path d="M366.80 156.32 c-3.16 -0.58 -6.48 -2.07 -8.50 -3.77 l-0.80 -0.69 -1.51 0.69 c-2.47 1.17 -3.72 1.33 -7.97 1.17 -4.25 -0.19 -8.47 -0.93 -10.20 -1.81 -0.98 -0.50 -1.22 -0.50 -2.97 -0.21 -3.13 0.53 -9 -0.03 -13.81 -1.33 -1.17 -0.29 -2.84 -0.50 -4.41 -0.50 -4.89 -0.05 -11.55 -0.90 -14.48 -1.83 -1.70 -0.53 -4.57 -1.94 -6.03 -2.95 -1.20 -0.82 -3.37 -3 -3.85 -3.88 -0.27 -0.48 -0.35 -0.45 -1.43 0.48 -4.99 4.28 -16.04 5.42 -24.57 2.55 -2.76 -0.93 -5.37 -2.31 -7.09 -3.77 -1.38 -1.14 -1.30 -1.14 -3.77 -0.13 -2.79 1.17 -5.45 1.59 -9.96 1.59 -6.32 0.03 -11.18 -1.12 -14.95 -3.43 l-1.54 -0.96 -1.65 0.58 c-3.29 1.20 -11.77 0.93 -17.96 -0.53 -6 -1.43 -11.16 -5.34 -13.49 -10.23 -1.57 -3.35 -2.02 -5.55 -2.02 -10.36 0 -2.34 0.08 -4.52 0.19 -4.83 0.16 -0.50 0.03 -0.66 -0.90 -1.14 -2.39 -1.22 -4.20 -3.43 -5.21 -6.38 -0.69 -2.05 -0.72 -8.90 -0.03 -11.40 1.14 -4.17 3.77 -7.70 7.01 -9.38 0.98 -0.53 2.23 -1.04 2.74 -1.14 2.23 -0.43 2.47 -0.77 0.74 -1.01 -1.91 -0.27 -3.72 -0.93 -5.34 -1.89 -1.43 -0.88 -1.62 -0.93 -2.26 -0.58 -2.92 1.51 -7.73 2.23 -11.98 1.78 -5.76 -0.61 -10.20 -2.28 -13.92 -5.29 l-2.10 -1.67 -1.35 0.53 c-0.77 0.29 -1.59 0.58 -1.83 0.66 -0.37 0.11 -0.48 0.43 -0.48 1.41 l0 1.27 1.97 0.61 c4.62 1.43 9.56 5.53 11.77 9.75 2.79 5.34 3.03 8.95 1.43 22.71 -1.43 12.54 -1.54 13.07 -3.37 15.83 -2.63 3.96 -6.93 5.53 -13.47 4.91 -4.44 -0.43 -6.61 -0.93 -8.85 -1.99 -1.86 -0.93 -1.89 -0.93 -3.16 -0.56 -2.42 0.74 -9.46 0.32 -12.64 -0.77 -0.82 -0.29 -2.76 -0.43 -6.75 -0.53 -9.16 -0.21 -14.32 -1.30 -18.04 -3.85 -0.64 -0.45 -1.33 -0.82 -1.51 -0.82 -0.19 0 -1.12 0.32 -2.07 0.72 -1.59 0.66 -2.05 0.72 -5.07 0.69 -1.83 0 -4.94 -0.19 -6.91 -0.43 -1.97 -0.24 -6.56 -0.74 -10.23 -1.12 -9.59 -0.98 -11.69 -1.33 -13.63 -2.15 -0.77 -0.35 -2.13 -0.45 -6.30 -0.48 -4.62 -0.05 -5.58 -0.16 -7.30 -0.66 -1.59 -0.48 -3.03 -0.64 -7.17 -0.82 -7.92 -0.32 -10.78 -1.12 -13.68 -3.77 -1.75 -1.59 -3.16 -4.28 -3.56 -6.85 -0.16 -0.96 -0.77 -7.41 -1.38 -14.34 -1.54 -17.88 -1.38 -20.43 1.35 -24.68 1.86 -2.87 5.26 -4.81 9.19 -5.23 1.94 -0.19 9.77 0.56 11.32 1.12 0.58 0.21 1.75 0.37 2.58 0.37 2.31 0 8.39 0.77 10.07 1.27 1.04 0.32 1.94 0.43 2.84 0.29 1.30 -0.13 5.63 0.11 7.07 0.43 0.69 0.16 0.80 0.05 1.54 -1.54 1.91 -4.01 5.02 -6.93 8.74 -8.21 1.51 -0.50 2.31 -0.61 5.23 -0.61 5.55 0 9.54 1.14 12.80 3.61 1.70 1.27 3.51 3.61 4.17 5.45 0.29 0.72 0.53 1.33 0.58 1.38 0.03 0.05 0.66 -0.32 1.41 -0.85 2.97 -2.05 6.30 -2.68 11.79 -2.23 3.77 0.29 3.90 0.27 3.90 -1.22 0 -0.43 0.37 -3.90 0.80 -7.70 3.98 -34.11 3.83 -32.94 4.54 -35.22 1.49 -4.70 5.15 -7.76 10.20 -8.53 4.17 -0.61 11.53 0.43 14.53 2.07 2.90 1.57 5.10 4.89 5.45 8.23 0.16 1.38 0.16 1.38 1.25 1.57 1.59 0.24 3.51 1.04 4.57 1.83 l0.93 0.72 1.30 -0.56 c2.13 -0.90 5.13 -1.20 8.69 -0.82 3.72 0.37 5.60 0.85 7.46 1.86 1.43 0.77 1.43 0.77 3.08 0.40 0.88 -0.21 2.47 -0.40 3.48 -0.40 1.89 0 8.07 0.82 9.62 1.30 0.85 0.24 0.88 0.24 2.36 -1.91 2.02 -2.87 4.91 -5.71 6.88 -6.75 2.66 -1.38 4.57 -1.75 8.23 -1.59 4.86 0.24 7.89 1.30 10.57 3.67 1.22 1.06 1.35 1.12 2.13 0.82 1.67 -0.58 4.57 -0.90 6.96 -0.72 4.30 0.29 13.92 1.43 15.73 1.86 5.02 1.17 8.45 4.89 8.79 9.51 l0.13 1.86 0.72 -1.43 c1.59 -3.11 4.20 -5.10 7.73 -5.95 3.80 -0.88 11.69 -0.08 15.30 1.59 3.03 1.38 5.45 4.68 5.87 7.94 l0.19 1.59 1.91 0.45 c3.67 0.90 5.90 2.60 7.38 5.63 1.27 2.63 1.62 5.13 1.22 8.95 -0.58 5.68 -2.07 8.77 -5.39 11.26 l-0.98 0.72 1.04 1.49 c1.78 2.52 2.26 4.38 2.26 8.85 0 2.84 -0.13 4.30 -0.48 5.58 -0.66 2.42 -1.81 4.78 -2.95 6.03 -0.53 0.58 -0.96 1.14 -0.96 1.20 0 0.08 0.35 0.29 0.77 0.48 0.72 0.29 0.88 0.24 2.05 -0.69 2.71 -2.07 5.21 -2.66 10.28 -2.42 5.74 0.27 9.03 1.30 11.63 3.61 l1.17 1.01 1.17 -0.90 c1.57 -1.17 4.04 -2.34 5.82 -2.71 1.94 -0.40 6.30 -0.35 9.51 0.11 3.03 0.43 5.74 1.33 7.33 2.42 2.44 1.70 4.12 4.78 4.38 8.13 l0.16 1.75 1.22 0.32 c1.94 0.48 5.37 2.28 7.25 3.83 4.41 3.64 7.36 9.99 7.38 15.80 l0 1.70 0.88 -0.19 c7.07 -1.49 13.10 0.21 17.85 4.99 9.75 9.83 5.10 26.59 -8.34 30.04 -2.39 0.61 -5.63 0.72 -8.02 0.27z m5.26 -13.97 c1.25 -0.80 2.26 -2.39 2.31 -3.67 0.03 -1.41 -1.22 -3.13 -2.87 -3.98 -1.14 -0.58 -1.33 -0.61 -2.36 -0.29 -1.43 0.43 -3.29 2.28 -3.51 3.56 -0.35 1.83 0.96 3.85 3.05 4.78 1.09 0.50 2.13 0.37 3.37 -0.40z m-21.41 -17.72 c0.40 -4.20 0.19 -5.74 -1.14 -7.97 -2.26 -3.75 -7.49 -5.50 -11.05 -3.69 -0.74 0.40 -1.83 1.20 -2.39 1.78 -0.74 0.82 -1.20 1.06 -1.83 1.06 -0.88 0 -0.88 0 -0.85 -1.25 0 -0.72 0.35 -3.96 0.72 -7.25 0.82 -6.75 0.96 -6.22 -1.46 -6.43 -1.12 -0.11 -1.41 -0.05 -1.41 0.27 0 0.40 -3.61 33.44 -3.85 35.28 -0.16 1.09 -0.16 1.09 0.85 1.27 1.67 0.27 2.74 0.19 2.74 -0.19 0 -1.38 1.91 -17.27 2.18 -18.01 0.48 -1.43 1.49 -2.79 2.66 -3.61 1.06 -0.72 1.22 -0.74 4.30 -0.74 3.77 0 4.83 0.37 5.95 2.05 1.38 2.13 1.33 4.30 -0.64 20.98 l-0.19 1.49 1.17 0.16 c0.64 0.08 1.46 0.19 1.83 0.21 l0.66 0.08 0.69 -5.98 c0.40 -3.29 0.88 -7.57 1.06 -9.51z m-33.39 11.05 c0.08 -0.35 0.16 -0.98 0.16 -1.43 l0 -0.82 -3.69 -0.32 c-4.44 -0.37 -5.47 -0.64 -6.43 -1.59 -1.04 -1.06 -1.17 -2.50 -0.64 -7.65 0.66 -6.61 1.38 -12.30 1.57 -12.48 0.16 -0.16 8.42 0.56 10.41 0.88 0.82 0.16 0.82 0.13 0.98 -1.25 0.11 -0.77 0.13 -1.43 0.11 -1.46 -0.08 -0.08 -10.12 -1.17 -10.68 -1.17 -0.32 0 -0.40 -0.37 -0.40 -1.97 0 -1.09 0.13 -2.90 0.29 -4.01 0.16 -1.12 0.24 -2.10 0.16 -2.15 -0.05 -0.05 -0.82 -0.21 -1.73 -0.32 -1.94 -0.27 -1.75 -0.64 -2.20 4.14 l-0.35 3.51 -1.04 0 c-0.58 0 -2.42 -0.13 -4.06 -0.32 -1.67 -0.16 -3.08 -0.24 -3.16 -0.16 -0.08 0.08 -0.21 0.74 -0.29 1.46 l-0.16 1.30 4.04 0.43 c2.20 0.24 4.09 0.50 4.17 0.58 0.08 0.08 -0.24 3.72 -0.72 8.05 -0.48 4.36 -0.88 8.58 -0.88 9.38 0 2.76 1.97 5.63 4.62 6.75 1.20 0.50 5.23 1.06 8.50 1.17 1.09 0.05 1.25 -0.03 1.41 -0.53z m-36.47 -4.38 c1.91 -0.88 3.56 -2.23 4.28 -3.48 l0.48 -0.80 -1.49 -0.19 c-1.46 -0.19 -1.51 -0.16 -2.47 0.77 -1.38 1.35 -2.58 1.75 -5.15 1.75 -3.90 0 -6.48 -1.22 -7.65 -3.61 -0.53 -1.12 -0.61 -1.67 -0.58 -4.30 0 -1.89 0.11 -3.11 0.29 -3.29 0.24 -0.24 2.52 -0.08 9.38 0.69 7.20 0.80 9.14 0.93 9.30 0.66 0.32 -0.53 0.58 -4.62 0.37 -6 -0.90 -6.30 -8.13 -10.57 -14.56 -8.58 -3.24 1.01 -5.76 3.48 -7.01 6.91 -1.27 3.45 -1.83 10.01 -1.06 12.54 1.51 4.89 6.24 8.02 11.87 7.84 1.89 -0.05 2.58 -0.21 4.01 -0.90z m-32.03 -3.51 c1.91 -0.85 3.21 -1.81 4.14 -3.05 l0.80 -1.09 -1.54 -0.16 c-1.46 -0.13 -1.59 -0.11 -2.50 0.72 -1.41 1.22 -2.52 1.51 -5.66 1.38 -2.28 -0.08 -2.92 -0.21 -4.22 -0.82 -1.70 -0.85 -2.66 -1.91 -3.08 -3.51 -0.32 -1.14 -0.40 -5.66 -0.13 -6.35 0.24 -0.58 1.12 -0.56 10.47 0.50 4.44 0.50 8.13 0.88 8.15 0.82 0.05 -0.05 0.21 -1.09 0.35 -2.31 0.32 -2.82 -0.03 -5.07 -1.09 -7.17 -1.46 -2.92 -3.80 -4.68 -7.49 -5.60 -1.94 -0.50 -2.39 -0.53 -3.98 -0.24 -3.67 0.61 -6.80 2.90 -8.26 5.98 -1.46 3.05 -2.42 10.15 -1.75 12.96 0.96 4.14 3.90 7.09 8.31 8.31 2.05 0.58 5.79 0.40 7.49 -0.37z m-26.70 -3.27 c0 -0.48 0.08 -1.12 0.16 -1.43 0.13 -0.53 0 -0.56 -3.40 -0.88 -1.94 -0.16 -4.01 -0.45 -4.57 -0.58 -1.35 -0.37 -2.47 -1.49 -2.71 -2.79 -0.16 -0.85 0.61 -9.56 1.43 -16.31 l0.19 -1.46 1.20 -0.08 c1.01 -0.08 2.92 0.08 10.23 0.82 0.45 0.05 0.56 -0.16 0.66 -1.38 0.11 -0.88 0.05 -1.46 -0.13 -1.51 -0.13 -0.03 -2.18 -0.27 -4.52 -0.50 -2.34 -0.21 -4.81 -0.48 -5.50 -0.58 l-1.27 -0.16 0 -1.22 c0 -0.66 0.13 -2.50 0.32 -4.09 0.16 -1.57 0.24 -2.92 0.13 -3 -0.08 -0.08 -0.85 -0.21 -1.73 -0.29 l-1.57 -0.16 -0.29 2.36 c-0.19 1.30 -0.40 3.13 -0.48 4.06 l-0.19 1.70 -3.08 -0.19 c-1.70 -0.08 -3.56 -0.24 -4.17 -0.32 l-1.09 -0.16 -0.19 1.38 c-0.11 0.77 -0.16 1.43 -0.11 1.46 0.05 0.05 1.86 0.29 4.06 0.53 2.18 0.24 4.04 0.48 4.09 0.56 0.11 0.11 0.05 0.85 -1.14 11.26 -0.74 6.40 -0.66 7.54 0.58 9.56 1.67 2.71 5.39 4.06 11.55 4.22 l1.51 0.03 0 -0.85z m-61.49 -15.80 c1.06 -9.83 1.09 -11 0 -13.28 -1.20 -2.60 -3.51 -4.33 -6.64 -4.99 -2.79 -0.58 -5.31 0.21 -7.25 2.26 -0.74 0.82 -1.20 1.06 -1.83 1.06 -0.88 0 -0.88 -0.03 -0.88 -1.25 0 -0.72 0.29 -3.77 0.66 -6.83 0.35 -3.08 0.61 -5.63 0.56 -5.68 -0.08 -0.05 -0.82 -0.16 -1.70 -0.24 -1.49 -0.13 -1.57 -0.11 -1.73 0.48 -0.24 1.01 -3.98 35.30 -3.88 35.41 0.05 0.05 0.85 0.16 1.75 0.24 l1.65 0.19 0.16 -1.14 c0.08 -0.61 0.56 -4.60 1.04 -8.85 0.98 -8.37 1.27 -9.51 2.90 -11.24 1.35 -1.41 2.63 -1.89 5.26 -1.89 3.85 0 5.98 1.20 6.75 3.83 0.56 1.86 0.50 3.24 -0.50 12.51 -0.50 4.54 -0.85 8.29 -0.80 8.34 0.16 0.19 3.16 0.45 3.32 0.32 0.08 -0.08 0.61 -4.25 1.17 -9.24z m-32.78 4.57 c0.08 -0.72 0.16 -1.35 0.13 -1.38 -0.03 -0.03 -1.89 -0.24 -4.12 -0.48 -6.22 -0.64 -6.83 -1.09 -6.77 -5.05 0.05 -2.10 1.20 -13.44 1.59 -15.73 0.21 -1.06 -0.03 -1.06 6.48 -0.35 5.45 0.61 5.31 0.64 5.31 -1.22 l0 -1.06 -4.57 -0.48 c-7.12 -0.72 -6.59 -0.56 -6.59 -1.86 0.03 -0.58 0.19 -2.39 0.37 -4.01 0.19 -1.59 0.29 -2.97 0.24 -3.05 -0.21 -0.24 -3.13 -0.43 -3.29 -0.21 -0.08 0.13 -0.32 1.86 -0.50 3.80 -0.19 1.94 -0.43 3.69 -0.56 3.88 -0.16 0.27 -0.85 0.27 -3.35 0 -1.73 -0.16 -3.56 -0.37 -4.09 -0.45 l-0.98 -0.13 -0.19 1.35 c-0.11 0.74 -0.13 1.41 -0.08 1.46 0.08 0.08 7.52 0.93 8.07 0.93 0.27 0 0.05 2.87 -0.69 9.16 -0.43 3.77 -0.80 7.41 -0.80 8.10 0 2.87 1.73 5.50 4.44 6.72 1.43 0.64 4.04 1.12 7.38 1.33 2.42 0.19 2.36 0.19 2.55 -1.27z m-28.93 -3.05 c0 -0.58 0.03 -1.22 0.05 -1.38 0.03 -0.24 -0.96 -0.45 -3.29 -0.66 -1.81 -0.19 -3.96 -0.43 -4.78 -0.56 l-1.46 -0.19 0.03 -1.73 c0 -0.96 0.53 -6.24 1.17 -11.77 0.85 -7.28 1.09 -10.09 0.88 -10.23 -0.32 -0.21 -12.03 -1.46 -12.17 -1.33 -0.05 0.05 -0.16 0.64 -0.27 1.30 l-0.19 1.22 1.43 0.16 c0.77 0.08 2.76 0.29 4.41 0.48 l2.97 0.32 0 1.43 c0 1.35 -1.70 17.21 -2.02 18.75 -0.13 0.69 -0.24 0.72 -1.62 0.72 -0.82 0 -3.08 -0.19 -5.05 -0.43 -1.97 -0.24 -3.59 -0.40 -3.64 -0.35 -0.05 0.05 -0.19 0.66 -0.27 1.38 -0.16 1.09 -0.13 1.25 0.29 1.27 0.40 0 22.63 2.50 23.27 2.60 0.11 0 0.21 -0.45 0.24 -1.04z m-35.67 -4.04 c0.50 -1.65 4.49 -14.69 6 -19.68 0.85 -2.76 1.49 -5.05 1.43 -5.07 -0.05 -0.05 -0.72 -0.16 -1.46 -0.24 l-1.35 -0.16 -2.31 8.29 c-1.30 4.57 -2.55 9 -2.79 9.88 -0.45 1.54 -0.48 1.59 -1.43 1.67 -0.64 0.05 -1.04 -0.03 -1.12 -0.27 -0.11 -0.29 -1.22 -10.39 -1.94 -17.69 -0.13 -1.38 -0.37 -2.58 -0.48 -2.71 -0.13 -0.11 -0.82 -0.27 -1.54 -0.32 l-1.27 -0.08 -2.63 8.23 c-1.46 4.54 -2.82 8.87 -3.05 9.64 -0.43 1.41 -0.43 1.41 -1.38 1.33 l-0.98 -0.08 -0.16 -1.75 c-0.11 -0.96 -0.45 -5.50 -0.77 -10.09 -0.32 -4.60 -0.64 -8.39 -0.66 -8.45 -0.05 -0.03 -0.85 -0.16 -1.73 -0.27 l-1.65 -0.21 0.16 2.15 c0.29 3.56 2.31 24.73 2.36 24.76 0.03 0.03 0.96 0.13 2.07 0.24 l2.05 0.19 0.85 -2.76 c0.45 -1.51 1.81 -5.63 2.95 -9.16 l2.13 -6.45 1.01 0 1.04 0 0.19 1.94 c0.29 3.40 1.75 17.29 1.81 17.35 0.05 0.05 3.11 0.50 4.09 0.61 0.16 0 0.43 -0.37 0.58 -0.82z m221.66 -28.79 c0.08 -0.24 0.16 -0.85 0.16 -1.41 l0 -0.98 -3.80 -0.43 c-2.23 -0.24 -4.22 -0.61 -4.78 -0.88 -1.17 -0.56 -1.78 -1.75 -1.78 -3.51 0.03 -1.81 1.73 -17.03 1.94 -17.24 0.11 -0.11 2.68 0.08 5.76 0.43 3.08 0.32 5.68 0.53 5.76 0.43 0.08 -0.08 0.21 -0.72 0.29 -1.43 l0.11 -1.27 -4.60 -0.48 c-2.55 -0.24 -5.13 -0.53 -5.74 -0.61 l-1.14 -0.16 0 -1.49 c0.03 -0.82 0.19 -2.74 0.37 -4.28 0.19 -1.54 0.35 -2.82 0.32 -2.84 -0.03 -0.03 -0.82 -0.13 -1.75 -0.24 l-1.73 -0.16 -0.45 4.06 c-0.27 2.23 -0.58 4.17 -0.72 4.30 -0.13 0.13 -1.83 0.05 -4.28 -0.21 -2.23 -0.24 -4.06 -0.40 -4.12 -0.35 -0.03 0.05 -0.13 0.69 -0.19 1.43 l-0.13 1.38 2.82 0.29 c1.54 0.16 3.45 0.37 4.22 0.45 l1.38 0.16 0 1.01 c0 0.56 -0.37 4.17 -0.82 8.02 -0.90 7.73 -0.90 10.09 -0.03 11.77 1.43 2.82 3.90 3.98 9.48 4.46 2.63 0.24 3.27 0.19 3.43 -0.24z m-193.06 -1.14 c1.12 -0.66 1.73 -1.99 1.38 -2.97 -0.29 -0.88 -1.57 -2.02 -2.47 -2.26 -1.09 -0.27 -2.74 0.88 -3.27 2.31 -0.35 0.88 0.19 2.02 1.35 2.84 1.04 0.72 1.91 0.74 3 0.08z m163.94 -3.03 c0.05 -0.85 -0.03 -1.27 -0.27 -1.35 -0.19 -0.05 -2.02 -0.27 -4.06 -0.48 -4.20 -0.43 -5.42 -0.85 -6.27 -2.26 -0.53 -0.88 -0.56 -1.17 -0.43 -4.68 0.08 -2.07 0.74 -9.14 1.49 -15.70 0.74 -6.59 1.30 -12.01 1.25 -12.06 -0.21 -0.21 -12.91 -1.43 -13.28 -1.30 -0.32 0.13 -0.43 0.53 -0.43 1.46 l0 1.27 4.73 0.48 c2.58 0.24 4.81 0.56 4.94 0.69 0.13 0.13 -0.05 2.68 -0.45 6.16 -1.22 10.36 -2.07 18.35 -2.10 20 -0.05 4.22 2.20 7.20 6.30 8.21 1.97 0.50 5.39 0.90 7.17 0.85 l1.33 -0.03 0.08 -1.27z m-30.63 -3.27 c0.08 -0.66 0.11 -1.27 0.05 -1.33 -0.11 -0.11 -8.50 -1.14 -9.27 -1.17 -0.43 0 -0.19 -3.29 0.96 -13.28 0.66 -5.63 1.14 -10.25 1.09 -10.31 -0.16 -0.16 -12.14 -1.41 -12.27 -1.27 -0.08 0.05 -0.13 0.69 -0.16 1.41 l-0.05 1.27 3.98 0.45 c2.20 0.24 4.06 0.45 4.20 0.45 0.37 0.05 0.16 3.16 -0.74 11.32 -0.50 4.54 -0.93 8.45 -0.93 8.71 0 0.37 -0.27 0.45 -1.65 0.45 -0.93 0 -3.21 -0.19 -5.10 -0.40 -1.91 -0.21 -3.48 -0.35 -3.53 -0.29 -0.05 0.03 -0.16 0.64 -0.24 1.30 -0.13 0.96 -0.11 1.25 0.19 1.27 0.37 0 22.79 2.52 23.11 2.60 0.11 0 0.27 -0.53 0.37 -1.20z m-41.25 -3.05 c4.28 -0.90 7.07 -3.88 8.02 -8.55 0.43 -1.97 2.15 -17.13 1.99 -17.29 -0.05 -0.05 -0.85 -0.16 -1.75 -0.27 -1.57 -0.19 -1.67 -0.16 -1.78 0.43 -0.08 0.35 -0.50 4.09 -0.96 8.31 -0.45 4.25 -0.93 8.37 -1.09 9.16 -0.45 2.23 -1.46 3.90 -2.87 4.73 -1.12 0.64 -1.49 0.72 -3.88 0.72 -2.42 0 -2.79 -0.08 -4.25 -0.80 -2.31 -1.17 -2.79 -2.20 -2.79 -6.08 0.03 -1.62 0.43 -6.35 0.90 -10.52 0.50 -4.17 0.88 -7.60 0.85 -7.62 -0.03 -0.03 -0.82 -0.08 -1.75 -0.13 l-1.70 -0.08 -1.01 8.23 c-1.14 9.77 -1.22 11.50 -0.45 13.55 1.12 2.97 4.09 5.31 7.78 6.11 2.07 0.45 2.97 0.48 4.73 0.11z m-30.31 -3.59 c4.89 -1.43 7.30 -5.45 8.18 -13.65 0.66 -6.11 -1.22 -10.44 -5.47 -12.54 -1.46 -0.72 -2.05 -0.85 -3.64 -0.85 -2.26 -0.03 -3.80 0.61 -5.55 2.20 -0.88 0.82 -1.41 1.09 -2.05 1.09 l-0.88 0 0.19 -1.91 c0.08 -1.06 0.45 -4.09 0.80 -6.72 0.35 -2.63 0.56 -4.86 0.48 -4.94 -0.11 -0.11 -0.90 -0.27 -1.81 -0.35 l-1.62 -0.19 -0.19 1.41 c-0.08 0.77 -1.01 8.87 -2.02 17.98 -1.49 13.12 -1.81 16.63 -1.54 16.81 0.19 0.11 0.85 0.21 1.46 0.21 0.61 0 1.27 0.08 1.51 0.16 0.32 0.13 0.43 0 0.43 -0.50 0 -0.35 0.08 -1.04 0.16 -1.49 0.16 -0.74 0.27 -0.82 1.20 -0.82 0.88 0 1.20 0.19 2.15 1.22 1.30 1.41 3 2.47 4.70 2.92 1.62 0.45 1.81 0.45 3.51 -0.05z m64.31 -26.72 c1.06 -0.61 1.81 -1.65 1.81 -2.47 0 -1.20 -1.67 -2.79 -2.92 -2.79 -1.43 0 -2.92 1.51 -2.92 3 0 0.85 0.93 2.02 1.97 2.47 1.04 0.45 0.85 0.48 2.07 -0.21z"/>
  <path d="M275.45 116.34 c-3.43 -0.43 -6.30 -0.77 -6.35 -0.77 -0.05 -0.03 -0.05 -0.82 0.03 -1.81 0.21 -2.76 1.35 -4.60 3.67 -5.82 0.72 -0.40 1.51 -0.50 3.59 -0.50 3 0 4.25 0.35 5.60 1.54 1.59 1.38 2.05 2.60 2.07 5.50 l0.03 2.52 -1.20 0.05 c-0.66 0 -4.01 -0.32 -7.44 -0.72z"/>
  <path d="M243.18 112.73 c-2.76 -0.32 -5.26 -0.61 -5.55 -0.61 -0.45 -0.03 -0.48 -0.21 -0.37 -1.81 0.21 -2.82 1.54 -4.91 3.80 -5.95 1.57 -0.72 5.68 -0.69 7.30 0.05 2.63 1.20 3.51 2.74 3.67 6.43 l0.11 2.58 -1.94 -0.03 c-1.09 -0.03 -4.22 -0.32 -7.01 -0.66z"/>
  <path d="M147.77 60.59 c-3.37 -0.88 -5.13 -3.45 -5.13 -7.54 0 -1.73 0.72 -7.97 1.06 -9.27 0.48 -1.73 1.86 -3.45 3.45 -4.28 1.38 -0.72 1.62 -0.74 4.14 -0.66 2.44 0.08 2.79 0.16 3.96 0.88 0.93 0.56 1.49 1.20 1.97 2.13 0.66 1.27 0.69 1.51 0.66 5.58 -0.05 7.28 -1.12 10.89 -3.64 12.46 -1.12 0.69 -1.57 0.80 -3.45 0.85 -1.20 0.05 -2.55 -0.03 -3.03 -0.13z"/>
 </g>
 <g fill="#fffffe">
  <path d="M346.27 140.75 c-1.01 -0.13 -1.89 -0.29 -1.94 -0.32 -0.03 -0.05 0.11 -1.51 0.32 -3.27 1.06 -8.77 1.49 -12.99 1.49 -15.49 0 -1.99 -0.08 -2.36 -0.74 -3.43 -1.12 -1.78 -2.31 -2.31 -5.29 -2.31 -2.20 0 -2.50 0.05 -3.51 0.74 -1.17 0.82 -2.18 2.18 -2.68 3.64 -0.16 0.50 -0.74 4.91 -1.27 9.77 l-0.98 8.87 -1.46 -0.16 c-0.82 -0.11 -2.02 -0.24 -2.66 -0.35 l-1.17 -0.16 0.19 -2.02 c0.27 -3.27 3.93 -36.28 4.04 -36.39 0.13 -0.13 4.89 0.40 5.07 0.58 0.08 0.08 -0.24 3.29 -0.69 7.15 -0.45 3.85 -0.82 7.09 -0.82 7.25 0 0.13 0.48 -0.27 1.06 -0.88 0.61 -0.61 1.70 -1.43 2.47 -1.83 1.22 -0.64 1.67 -0.72 3.90 -0.72 3.93 0 6.75 1.38 8.50 4.09 1.86 2.92 1.97 4.73 0.80 15.09 -0.45 3.90 -0.88 7.84 -0.98 8.77 -0.19 1.89 0.03 1.81 -3.64 1.35z"/>
  <path d="M314.37 137.04 c-4.22 -0.40 -6.85 -0.80 -7.81 -1.20 -1.59 -0.66 -3.13 -2.15 -3.93 -3.77 -0.66 -1.38 -0.74 -1.75 -0.69 -4.17 0.03 -1.46 0.40 -5.71 0.82 -9.43 0.43 -3.72 0.74 -6.80 0.72 -6.85 -0.05 -0.05 -1.86 -0.27 -4.04 -0.50 -2.15 -0.21 -4.01 -0.50 -4.14 -0.58 -0.16 -0.16 0.27 -4.28 0.48 -4.49 0.05 -0.05 1.78 0.11 3.85 0.32 2.10 0.24 3.93 0.43 4.12 0.43 0.21 0 0.43 -1.20 0.66 -3.72 0.19 -2.02 0.45 -3.85 0.56 -4.01 0.13 -0.24 0.77 -0.24 2.66 0 1.35 0.19 2.50 0.35 2.55 0.37 0.03 0.03 -0.13 1.33 -0.32 2.84 -0.53 3.96 -0.53 5.31 0.08 5.31 0.24 0 2.60 0.24 5.21 0.53 2.63 0.29 4.91 0.53 5.13 0.53 0.37 0 0.43 1.38 0.13 3.45 -0.16 1.09 -0.27 1.20 -0.85 1.12 -0.37 -0.03 -2.87 -0.29 -5.58 -0.56 -2.68 -0.29 -4.94 -0.48 -4.99 -0.43 -0.13 0.13 -0.69 4.68 -1.38 11.13 -0.58 5.55 -0.50 6.64 0.69 7.57 1.01 0.80 2.13 1.04 6.40 1.41 l3.83 0.32 -0.16 1.33 c-0.40 3.27 -0.40 3.35 -1.01 3.32 -0.32 -0.03 -1.65 -0.13 -2.97 -0.27z"/>
  <path d="M272.13 132.60 c-4.83 -1.43 -7.70 -4.62 -8.37 -9.32 -0.43 -3.11 0.32 -9.56 1.49 -12.54 1.81 -4.60 5.71 -7.15 10.97 -7.15 3.96 0 7.04 1.20 9.35 3.64 1.97 2.07 2.68 3.85 2.84 6.96 0.08 2.18 -0.24 6.24 -0.53 6.53 -0.05 0.05 -4.22 -0.37 -9.24 -0.93 -5.05 -0.56 -9.27 -0.93 -9.38 -0.82 -0.13 0.13 -0.21 1.25 -0.21 2.52 -0.03 1.83 0.11 2.52 0.56 3.51 1.04 2.15 3.77 3.56 6.83 3.56 1.81 0 3.11 -0.53 4.46 -1.86 l1.06 -1.01 2.47 0.29 c2.82 0.32 2.87 0.40 1.62 2.34 -1.09 1.73 -2.39 2.82 -4.49 3.80 -1.57 0.74 -1.99 0.82 -4.78 0.88 -2.31 0.05 -3.45 -0.05 -4.65 -0.40z m11.13 -18.14 c-0.05 -2.05 -0.69 -3.48 -2.07 -4.68 -1.22 -1.09 -2.58 -1.51 -4.81 -1.51 -2.66 0 -4.60 1.12 -5.74 3.35 -0.45 0.88 -0.98 3.11 -0.74 3.16 0.56 0.13 12.70 1.49 12.99 1.46 0.32 -0.03 0.40 -0.43 0.37 -1.78z"/>
  <path d="M242.38 129.33 c-4.28 -0.64 -7.46 -2.63 -9.08 -5.74 -1.25 -2.36 -1.51 -3.93 -1.30 -7.76 0.32 -6.40 1.54 -10.20 3.98 -12.64 3 -2.97 7.33 -3.98 11.93 -2.79 6.35 1.62 9.24 6.38 8.47 13.84 -0.16 1.49 -0.37 2.76 -0.45 2.84 -0.08 0.11 -4.25 -0.29 -9.22 -0.82 -7.30 -0.80 -9.11 -0.93 -9.30 -0.66 -0.29 0.50 -0.27 3.61 0.08 4.86 0.69 2.52 3.05 4.12 6.45 4.33 2.36 0.13 3.59 -0.21 4.97 -1.46 l1.01 -0.90 2.23 0.19 c2.95 0.24 3.03 0.29 2.31 1.67 -1.30 2.60 -4.36 4.57 -7.84 5.07 -2.10 0.29 -2.05 0.29 -4.25 -0.03z m8.85 -18.49 c-0.29 -3.93 -2.68 -6.19 -6.59 -6.19 -3.45 0 -6 2.18 -6.53 5.55 -0.16 0.96 -0.11 1.09 0.32 1.12 0.29 0 2.79 0.29 5.55 0.61 2.79 0.35 5.58 0.64 6.22 0.66 l1.17 0.03 -0.13 -1.78z"/>
  <path d="M219.01 126.15 c-7.09 -0.61 -9.62 -1.73 -11.21 -4.97 -0.69 -1.38 -0.74 -1.73 -0.69 -4.30 0.03 -1.54 0.40 -5.71 0.82 -9.30 0.45 -3.59 0.77 -6.53 0.74 -6.56 -0.03 -0.03 -1.89 -0.24 -4.14 -0.50 -2.26 -0.24 -4.14 -0.45 -4.17 -0.48 -0.05 -0.03 0.50 -4.52 0.56 -4.60 0.03 -0.05 1.49 0.11 3.21 0.32 1.75 0.21 3.59 0.40 4.12 0.40 l0.96 0 0.50 -4.12 c0.29 -2.63 0.58 -4.12 0.77 -4.12 0.56 0 4.81 0.56 4.89 0.64 0.05 0.05 -0.13 1.91 -0.37 4.12 -0.24 2.20 -0.40 4.06 -0.32 4.14 0.05 0.05 2.55 0.37 5.53 0.66 3 0.32 5.60 0.61 5.79 0.69 0.29 0.08 0.32 0.56 0.19 2.18 -0.11 1.12 -0.29 2.15 -0.40 2.26 -0.11 0.13 -2.66 -0.03 -5.68 -0.35 -3 -0.32 -5.63 -0.53 -5.82 -0.45 -0.24 0.08 -0.43 0.74 -0.53 1.70 -0.08 0.85 -0.48 4.41 -0.85 7.89 -0.74 6.96 -0.69 7.65 0.58 8.66 0.96 0.74 2.07 0.98 6.16 1.35 l3.53 0.32 -0.19 2.15 c-0.21 2.42 -0.27 2.58 -0.88 2.52 -0.24 -0.03 -1.65 -0.16 -3.11 -0.27z"/>
  <path d="M156.90 118.73 c-0.85 -0.11 -1.62 -0.27 -1.70 -0.37 -0.11 -0.08 0.29 -4.38 0.85 -9.56 0.88 -8.34 0.96 -9.56 0.66 -10.81 -0.64 -2.68 -2.90 -4.22 -6.08 -4.22 -1.78 0 -3.29 0.64 -4.46 1.89 -1.62 1.73 -1.91 2.87 -2.90 11.10 -0.48 4.17 -0.96 8.23 -1.04 9 -0.13 1.01 -0.27 1.38 -0.53 1.30 -0.19 -0.08 -1.30 -0.24 -2.50 -0.35 -1.20 -0.08 -2.20 -0.27 -2.28 -0.37 -0.13 -0.21 4.01 -37.43 4.17 -37.61 0.19 -0.16 4.75 0.37 4.97 0.56 0.08 0.08 -0.13 2.63 -0.48 5.66 -0.32 3.03 -0.66 6.11 -0.74 6.83 l-0.16 1.33 1.14 -1.17 c2.18 -2.20 5.26 -3.05 8.66 -2.34 3.45 0.74 5.68 2.39 6.96 5.18 1.06 2.36 1.04 4.99 -0.13 15.33 l-1.01 8.77 -0.93 0.03 c-0.50 0.03 -1.62 -0.05 -2.47 -0.16z"/>
  <path d="M124.45 115.36 c-5.58 -0.37 -8.23 -1.22 -9.96 -3.19 -2.13 -2.44 -2.26 -4.20 -1.04 -14.77 0.45 -3.93 0.77 -7.17 0.72 -7.25 -0.08 -0.05 -1.97 -0.29 -4.22 -0.53 -2.26 -0.24 -4.12 -0.45 -4.17 -0.48 -0.08 -0.11 0.50 -4.25 0.64 -4.38 0.05 -0.08 1.94 0.05 4.17 0.29 2.47 0.24 4.09 0.32 4.20 0.16 0.08 -0.13 0.32 -1.86 0.50 -3.80 0.19 -1.94 0.43 -3.69 0.53 -3.85 0.21 -0.35 4.17 -0.11 4.78 0.27 0.29 0.19 0.27 0.98 -0.11 4.14 -0.24 2.15 -0.40 3.96 -0.35 4.01 0.05 0.05 2.55 0.35 5.53 0.66 2.97 0.29 5.53 0.64 5.63 0.74 0.19 0.16 -0.16 4.20 -0.40 4.36 -0.08 0.08 -7.17 -0.64 -10.07 -1.01 -1.22 -0.16 -1.25 -0.16 -1.41 0.69 -0.29 1.67 -1.51 13.36 -1.57 14.95 -0.08 3.05 0.85 3.64 6.75 4.25 2.23 0.24 4.14 0.48 4.20 0.53 0.05 0.05 0 1.04 -0.13 2.18 l-0.24 2.07 -1.33 0.03 c-0.72 0 -1.91 -0.03 -2.66 -0.08z"/>
  <path d="M86.06 110.74 c-6.35 -0.72 -11.69 -1.35 -11.85 -1.41 -0.19 -0.08 -0.21 -0.74 -0.03 -2.18 0.13 -1.17 0.27 -2.13 0.29 -2.15 0.03 -0.05 2.02 0.16 4.44 0.45 5.60 0.69 5.74 0.66 5.90 -0.05 0.27 -1.06 2.15 -18.51 2.02 -18.62 -0.05 -0.08 -2.02 -0.32 -4.36 -0.58 -2.34 -0.24 -4.33 -0.50 -4.41 -0.56 -0.11 -0.05 0.24 -4.12 0.40 -4.28 0.08 -0.11 14 1.46 14.13 1.59 0.08 0.08 -0.40 4.89 -1.06 10.70 -0.66 5.84 -1.25 11.13 -1.27 11.79 l-0.08 1.20 1.20 0.16 c0.66 0.11 2.76 0.35 4.65 0.50 1.91 0.19 3.56 0.43 3.67 0.53 0.13 0.11 0.16 1.12 0.05 2.23 l-0.19 2.02 -0.98 -0.03 c-0.53 -0.03 -6.16 -0.61 -12.51 -1.33z"/>
  <path d="M59.63 107.53 c-1.01 -0.13 -1.89 -0.29 -1.91 -0.32 -0.05 -0.05 -1.51 -13.95 -1.81 -17.35 -0.11 -1.06 -0.29 -1.94 -0.43 -1.94 -0.21 0 -4.65 13.23 -5.71 17.03 -0.45 1.59 -0.48 1.62 -1.27 1.46 -0.45 -0.08 -1.75 -0.21 -2.87 -0.32 -1.14 -0.11 -2.07 -0.29 -2.07 -0.43 0 -0.13 -0.48 -5.37 -1.06 -11.58 -0.58 -6.24 -1.20 -12.54 -1.33 -14 -0.13 -1.43 -0.19 -2.68 -0.13 -2.76 0.13 -0.11 4.89 0.37 5.02 0.53 0.05 0.05 0.29 2.92 0.53 6.35 0.74 10.49 1.01 13.68 1.22 13.89 0.11 0.13 0.40 -0.40 0.64 -1.20 0.24 -0.77 1.62 -5.10 3.05 -9.64 l2.63 -8.23 2.07 0.08 c1.17 0.05 2.20 0.19 2.34 0.32 0.11 0.11 0.32 1.22 0.45 2.44 1.12 11.13 1.91 17.93 2.10 18.12 0.32 0.32 0.32 0.35 1.83 -5.18 0.69 -2.55 1.91 -6.88 2.71 -9.64 l1.41 -4.99 2.28 0.19 c1.25 0.11 2.34 0.27 2.44 0.37 0.11 0.08 -0.45 2.26 -1.22 4.81 -1.97 6.40 -5.98 19.52 -6.45 21.06 -0.37 1.25 -0.37 1.25 -1.49 1.22 -0.61 -0.03 -1.94 -0.16 -2.97 -0.29z"/>
  <path d="M282.09 78.60 c-6.16 -0.64 -7.86 -1.12 -9.51 -2.71 -2.42 -2.31 -2.63 -4.60 -1.38 -15.30 0.45 -3.98 0.80 -7.30 0.74 -7.33 -0.08 -0.11 -7.44 -0.93 -8.10 -0.93 -0.35 0 -0.37 -0.35 -0.21 -2.18 0.11 -1.22 0.24 -2.28 0.29 -2.36 0.03 -0.08 1.94 0.05 4.22 0.29 2.28 0.21 4.22 0.32 4.28 0.21 0.05 -0.08 0.32 -1.94 0.56 -4.12 0.24 -2.15 0.50 -4.01 0.61 -4.12 0.13 -0.19 4.78 0.24 5.02 0.48 0.05 0.05 -0.11 1.94 -0.37 4.22 -0.27 2.26 -0.43 4.17 -0.35 4.25 0.05 0.05 2.60 0.37 5.68 0.69 3.05 0.32 5.63 0.66 5.76 0.77 0.16 0.13 -0.21 4.22 -0.43 4.44 -0.05 0.03 -2.66 -0.21 -5.79 -0.56 -3.13 -0.35 -5.74 -0.53 -5.82 -0.43 -0.08 0.13 -0.53 3.93 -1.01 8.45 -0.85 7.84 -0.88 8.29 -0.45 9.19 0.64 1.35 1.78 1.75 6.32 2.26 l3.93 0.40 -0.16 1.62 c-0.29 2.76 -0.37 3.05 -1.01 3.03 -0.32 -0.03 -1.59 -0.16 -2.84 -0.27z"/>
  <path d="M89.12 77.54 c-1.86 -0.53 -3.08 -2.58 -2.66 -4.46 0.74 -3.48 5.76 -4.04 7.36 -0.82 0.98 1.94 0.29 3.98 -1.65 4.99 -1.25 0.61 -1.78 0.66 -3.05 0.29z"/>
  <path d="M251.41 75.28 c-6.08 -0.66 -8.29 -1.54 -9.88 -3.93 -2.02 -2.97 -1.99 -4.94 0.56 -26.06 0.35 -2.76 0.53 -5.13 0.45 -5.23 -0.08 -0.11 -2.36 -0.40 -5.05 -0.66 l-4.86 -0.45 0.16 -1.20 c0.08 -0.64 0.16 -1.54 0.16 -1.99 0 -1.59 -0.16 -1.57 6.93 -0.82 9.08 0.96 8.47 0.82 8.47 1.81 0 0.48 -0.61 6.24 -1.35 12.80 -0.72 6.59 -1.41 13.28 -1.49 14.90 -0.13 2.74 -0.11 3.05 0.43 3.90 0.85 1.38 2.07 1.83 6.14 2.23 5.29 0.56 4.83 0.35 4.65 2.28 -0.27 2.71 -0.32 2.84 -1.14 2.82 -0.40 -0.03 -2.26 -0.21 -4.17 -0.40z"/>
  <path d="M212.50 70.63 c-6.22 -0.69 -11.48 -1.27 -11.71 -1.27 -0.35 -0.03 -0.40 -0.27 -0.32 -1.41 0.16 -1.81 0.48 -3 0.77 -2.97 1.33 0.21 9.70 0.96 9.77 0.88 0.19 -0.21 2.13 -18.57 1.94 -18.73 -0.08 -0.08 -2.02 -0.37 -4.28 -0.61 -2.26 -0.24 -4.20 -0.50 -4.28 -0.61 -0.11 -0.08 -0.03 -1.14 0.13 -2.31 l0.32 -2.15 0.85 0.13 c0.45 0.08 3.16 0.37 6 0.66 6.99 0.72 7.49 0.80 7.36 1.17 -0.21 0.53 -2.68 22.98 -2.55 23.11 0.08 0.08 1.75 0.32 3.72 0.53 6.40 0.74 5.82 0.56 5.82 1.83 0 0.61 -0.08 1.57 -0.16 2.13 -0.16 0.93 -0.21 0.98 -1.14 0.96 -0.53 -0.03 -6.03 -0.61 -12.25 -1.33z"/>
  <path d="M178.34 67.60 c-2.44 -0.53 -4.49 -1.65 -5.95 -3.24 -1.83 -1.99 -2.44 -3.77 -2.42 -6.99 0.03 -2.36 1.89 -19.23 2.15 -19.50 0.08 -0.05 1.25 0.03 2.60 0.16 2.26 0.27 2.44 0.32 2.44 0.85 0 0.32 -0.43 4.17 -0.93 8.55 -1.12 9.62 -1.17 11.53 -0.32 13.15 1.33 2.55 5.98 3.64 8.71 2.05 1.41 -0.82 2.42 -2.50 2.87 -4.73 0.16 -0.80 0.64 -4.91 1.09 -9.16 0.45 -4.22 0.88 -8 0.96 -8.34 0.13 -0.64 0.16 -0.64 2.58 -0.45 1.35 0.11 2.52 0.27 2.63 0.37 0.24 0.24 -1.49 15.86 -2.05 18.65 -0.21 1.09 -0.74 2.74 -1.20 3.64 -2.13 4.28 -7.33 6.27 -13.18 4.99z"/>
  <path d="M149.25 64.18 c-1.70 -0.45 -3.40 -1.51 -4.70 -2.92 -0.61 -0.66 -1.22 -1.22 -1.35 -1.22 -0.24 0 -0.56 1.27 -0.56 2.31 l0 0.66 -2.05 -0.16 c-3.45 -0.29 -3.51 -0.32 -3.37 -1.30 0.08 -0.48 0.96 -8.37 1.99 -17.58 2.10 -18.86 2.15 -19.42 2.44 -19.36 0.11 0.03 1.22 0.13 2.47 0.24 1.65 0.13 2.31 0.29 2.42 0.58 0.13 0.32 -0.88 9.03 -1.43 12.56 l-0.16 0.93 1.25 -1.14 c2.02 -1.86 3.27 -2.31 6.40 -2.31 2.47 0 2.79 0.05 4.44 0.88 4.44 2.18 6.27 6.69 5.55 13.68 -0.72 7.01 -2.39 10.89 -5.55 12.88 -2.39 1.51 -5.18 1.99 -7.78 1.27z m4.25 -5.13 c2.36 -1.46 3.51 -5.21 3.59 -11.63 0.03 -3.24 -0.03 -3.56 -0.66 -4.78 -0.98 -1.91 -2.63 -2.90 -5.13 -3 -1.67 -0.08 -2.07 0 -3.35 0.66 -1.59 0.82 -2.95 2.52 -3.45 4.28 -0.13 0.53 -0.45 2.71 -0.69 4.83 -0.50 4.62 -0.29 6.27 1.04 8.02 1.97 2.58 5.92 3.29 8.66 1.62z"/>
  <path d="M215 37.61 c-1.83 -0.80 -2.60 -2.82 -1.83 -4.83 1.30 -3.43 6.27 -3.13 7.33 0.45 0.90 2.97 -2.50 5.68 -5.50 4.38z"/>
 </g>
 <g fill="#95ca37">
  <path d="M367.76 143.46 c-1.38 -0.61 -2.71 -2.15 -2.95 -3.35 -0.32 -1.75 0.03 -3.53 0.88 -4.60 2.34 -2.95 6.48 -2.84 8.69 0.19 0.74 1.01 0.82 1.35 0.82 2.95 0 1.59 -0.11 1.97 -0.80 2.95 -1.51 2.15 -4.28 2.95 -6.64 1.86z"/>
  <path d="M355.33 59.23 c-7.44 -1.89 -13.44 -7.84 -15.33 -15.25 -0.72 -2.84 -0.72 -7.01 0 -9.88 0.74 -2.87 2.58 -6.53 4.38 -8.69 2.50 -3 6.61 -5.66 10.36 -6.69 2.55 -0.69 7.60 -0.82 10.12 -0.29 3.98 0.88 8.95 3.80 11.34 6.67 7.20 8.63 6.80 20.64 -0.90 28.48 -2.23 2.26 -4.62 3.83 -7.70 5.05 -2.42 0.96 -2.63 0.98 -6.35 1.06 -3.13 0.05 -4.22 -0.03 -5.92 -0.45z"/>
 </g>
</svg>