<?xml version="1.0" encoding="utf-8"?>
<!DOCTYPE svg PUBLIC "-//W3C//DTD SVG 1.0//EN" "http://www.w3.org/TR/2001/REC-SVG-20010904/DTD/svg10.dtd">
<svg version="1.0" xmlns="http://www.w3.org/2000/svg" width="204px" height="231px" viewBox="0 0 204 231" preserveAspectRatio="xMidYMid meet">
 <g fill="#fffffe">
  <path d="M93.42 208.02 c2.53 -0.47 5.40 -2.08 14.98 -8.50 10.92 -7.29 18.15 -11.28 24.42 -13.47 4.72 -1.64 9.37 -2.68 19.38 -4.36 13.54 -2.27 16.36 -3.57 20.19 -9.22 2.06 -3.10 3.19 -5.61 4.25 -9.54 0.72 -2.70 0.68 -6.74 -0.11 -9.60 -1.15 -4.16 -3.83 -8.90 -6.86 -12.20 -2.95 -3.17 -5.40 -4.70 -10.60 -6.61 -4.95 -1.81 -7.10 -2.72 -10.09 -4.29 -5.86 -3.08 -11.41 -6.23 -19.87 -11.31 -9.01 -5.42 -13.73 -7.50 -19.87 -8.76 -2.30 -0.49 -3 -0.53 -5.10 -0.43 -2.83 0.15 -4.55 0.51 -6.46 1.38 -3.61 1.64 -6.84 4.53 -9.56 8.59 -2.55 3.80 -3.87 6.99 -5.57 13.43 -1.19 4.55 -2.19 7.95 -5.65 19.23 -2.97 9.77 -3.42 11.03 -5.91 17.11 -2.83 6.89 -3.65 10.28 -3.68 15.09 0 2.32 0.11 3.44 0.47 5.10 1.34 6.01 4.46 10.88 8.93 13.90 4.65 3.14 12.47 5.25 16.72 4.46z m-37.63 -43.67 c3.78 -0.89 6.65 -3.27 8.56 -7.10 2.40 -4.80 2.85 -9.60 1.51 -16.26 -1.11 -5.44 -3.02 -8.73 -7.93 -13.60 -5.46 -5.44 -11.94 -9.92 -18.04 -12.52 -3.21 -1.36 -10.22 -3.32 -11.92 -3.32 -0.45 0 -1.78 1.40 -2.93 3.06 -2.38 3.44 -5.29 12.22 -5.31 16.07 -0.02 3.38 3.36 12.26 6.35 16.72 3.87 5.72 9.14 10.54 15 13.71 2.97 1.62 4.63 2.30 7.10 2.93 3.27 0.85 4.99 0.91 7.61 0.30z m106.10 -42.61 c4.23 -1.06 8.24 -4.31 10.26 -8.31 1.70 -3.36 3.10 -8.86 3.91 -15.26 0.55 -4.27 0.19 -7.35 -1.51 -13.03 -2.15 -7.16 -7.08 -16.85 -9.20 -18.08 -1.72 -1 -8.73 -3.34 -12.11 -4.06 -2.34 -0.49 -3.46 -0.43 -4.25 0.23 -1.34 1.13 -3.36 5.23 -5.65 11.56 -1.85 5.08 -2.78 8.24 -3.51 11.90 -1.49 7.42 -1.27 13.75 0.68 19.76 1.72 5.36 5.36 10.31 9.52 13.03 2.66 1.72 4.21 2.30 7.44 2.76 0.85 0.13 2.74 -0.09 4.42 -0.51z m-89.08 -6.86 c3.51 -1.13 6.38 -3.61 8.22 -7.12 2.55 -4.84 3.32 -9.75 2.17 -14.22 -1.98 -7.84 -9.90 -26.86 -12.73 -30.58 -1.25 -1.64 -3.38 -3.61 -5.23 -4.82 -4.40 -2.91 -12.71 -5.93 -18.47 -6.76 l-1.76 -0.23 -0.70 0.83 c-1.70 2 -5.42 8.52 -7.46 13.03 -1.68 3.72 -2.02 4.82 -2.02 6.25 0.04 5.33 4.70 21.59 8.20 28.73 3.70 7.50 6.65 10.05 15.41 13.28 6.35 2.34 10.60 2.81 14.36 1.62z m42.95 -16.41 c2.06 -0.43 3.44 -1.04 5.10 -2.30 3.23 -2.44 5.82 -6.67 7.80 -12.71 2.23 -6.78 2.72 -11.98 1.55 -16.64 -2.13 -8.48 -7.33 -19.78 -12.22 -26.54 l-1.21 -1.68 -2.97 -1.38 c-5.99 -2.74 -12.86 -5.29 -17.30 -6.44 l-1.59 -0.40 -0.83 0.79 c-1.02 1 -3.83 4.70 -4.40 5.80 -0.68 1.36 -1.38 3.34 -2.40 6.91 -1.87 6.50 -2.63 11.07 -2.27 13.75 0.28 2.23 1.38 6.03 3.68 12.71 4.99 14.51 6.06 16.83 9.39 20.36 3.61 3.87 9.03 6.95 13.60 7.80 1.98 0.38 2.21 0.38 4.08 -0.02z"/>
  <path d="M36.44 136.17 c-4.31 -1.49 -7.76 -3.10 -11.09 -5.21 -2.08 -1.32 -2.19 -1.40 -2.19 -2.10 0 -0.40 0.34 -1.68 0.76 -2.81 0.85 -2.30 3.51 -7.95 4.40 -9.33 0.51 -0.83 0.66 -0.91 1.40 -0.91 l0.83 0 4.80 9.54 c3.59 7.12 4.80 9.75 4.80 10.31 l0 0.76 -1.53 -0.02 c-0.85 0 -1.83 -0.11 -2.19 -0.23z"/>
  <path d="M157.68 87.29 c-0.13 -0.51 -1.85 -4.95 -3.83 -9.88 -2.81 -6.99 -3.61 -9.20 -3.61 -9.94 l0 -0.96 1.02 0 c1.87 0 8.41 2 12.01 3.68 l2.06 0.98 0 0.94 c0 1.36 -2.74 8.88 -5.27 14.45 -0.70 1.57 -0.76 1.64 -1.45 1.64 -0.66 0 -0.72 -0.06 -0.94 -0.89z"/>
  <path d="M49.51 78.73 c-2.63 -1.78 -6.10 -4.16 -7.69 -5.25 l-2.91 -1.98 -0.02 -0.89 c0 -0.55 0.28 -1.53 0.74 -2.61 1.15 -2.68 4.89 -9.92 5.99 -11.62 0.98 -1.51 1.02 -1.55 1.89 -1.55 0.66 0 0.91 0.11 1 0.38 0.06 0.19 0.64 1.55 1.27 3.02 3 6.89 6.10 18.36 6.10 22.55 l0 1.25 -0.79 0 c-0.68 0 -1.51 -0.49 -5.59 -3.29z"/>
  <path d="M106.42 58.27 c-3.46 -4.87 -5.89 -9.05 -7.88 -13.66 -1.64 -3.74 -3.34 -8.56 -3.34 -9.44 l0 -0.74 1.04 0 c1.76 0 7.18 2.10 14 5.44 l4.29 2.08 0 0.70 c0 0.89 -4.55 16.98 -5.01 17.72 -0.06 0.11 -0.43 0.19 -0.79 0.19 -0.62 0 -0.83 -0.21 -2.32 -2.30z"/>
 </g>
 <g fill="#4b4b4b">
  <path d="M76.46 197.20 c-2.06 -1.11 -3.80 -4.61 -4.21 -8.54 -0.36 -3.63 0.40 -7.99 2.72 -15.26 1.15 -3.59 3.63 -11.62 7.16 -23.27 3.97 -13.13 4.59 -15.02 5.95 -18.81 3.27 -9.03 6.14 -14.68 8.50 -16.75 1.04 -0.94 2.30 -1.53 3.17 -1.53 0.72 0 0.72 0 1.72 2.38 4.06 9.67 9.10 22.65 16.30 42.03 3.74 10.05 4.63 12.69 4.63 13.58 l0 0.83 -2.38 1.34 c-3.57 1.98 -10.90 6.42 -15.53 9.41 -2.25 1.45 -5.84 3.76 -8.01 5.16 -7.54 4.87 -12.94 8.03 -15.70 9.20 -1.76 0.74 -3.14 0.83 -4.31 0.21z"/>
  <path d="M146.46 110.35 c-0.91 -2 -2 -4.91 -2.83 -7.52 -0.68 -2.19 -0.68 -2.25 -0.66 -6.29 0.02 -6.95 1.08 -12.56 3.97 -21.21 2.25 -6.76 2.68 -7.76 3.34 -7.76 0.47 0 0.81 0.72 4.14 9.10 2.02 4.99 3.76 9.50 3.89 10.03 0.23 0.89 0.28 0.91 0.51 0.47 0.30 -0.57 0.55 -0.40 0.55 0.36 0 0.60 -3.68 8.86 -8.22 18.57 l-2.68 5.67 -0.68 0 c-0.64 0 -0.72 -0.11 -1.34 -1.42z"/>
 </g>
 <g fill="#3f3f3f">
  <path d="M56.42 142.71 c-5.29 -1.53 -11.88 -3.70 -15.22 -4.99 -1.93 -0.74 -2.30 -0.96 -2.38 -1.40 -0.06 -0.40 0 -0.53 0.30 -0.53 0.23 0 0.40 -0.06 0.40 -0.13 0 -0.06 -2.21 -4.51 -4.91 -9.88 -2.70 -5.36 -4.84 -9.84 -4.76 -9.97 0.23 -0.38 1.32 -0.23 3.44 0.45 5.36 1.72 11.71 4.97 16.32 8.37 2.25 1.66 7.16 6.57 8.82 8.82 2.27 3.10 4.04 7.27 4.04 9.58 0 1.04 0 1.04 -0.68 1.04 -0.38 -0.02 -2.81 -0.62 -5.38 -1.36z"/>
  <path d="M153.45 75.12 c-0.38 -0.89 -0.66 -1.66 -0.57 -1.74 0.06 -0.06 0.15 -0.09 0.19 -0.04 0.23 0.28 1.36 3.38 1.25 3.38 -0.09 0 -0.47 -0.72 -0.87 -1.59z"/>
 </g>
 <g fill="#242323">
  <path d="M31.94 150.51 c-2.40 -2.89 -5.06 -7.86 -6.95 -12.98 -1.32 -3.51 -1.83 -5.59 -1.83 -7.29 0 -1.47 0.25 -1.98 0.70 -1.40 0.45 0.57 4.40 2.93 6.84 4.10 2.59 1.23 6.20 2.61 7.27 2.78 0.62 0.11 0.70 0.21 0.70 0.74 0 0.34 -0.81 3.08 -1.78 6.08 -0.98 3 -2 6.25 -2.25 7.22 -0.49 1.72 -0.51 1.74 -1.19 1.74 -0.55 0 -0.83 -0.19 -1.51 -1z"/>
  <path d="M47.11 100.53 c-3.40 -7.08 -6.72 -17.21 -7.88 -24.16 -0.45 -2.61 -0.64 -4.84 -0.47 -5.48 0.15 -0.57 0.76 -0.79 0.76 -0.25 0 0.17 0.13 0.34 0.28 0.40 0.13 0.06 2.21 1.47 4.61 3.12 7.71 5.36 10.63 7.29 10.77 7.14 0.25 -0.25 -0.55 -5.08 -1.42 -8.56 -1.08 -4.29 -3.14 -10.50 -4.61 -13.88 -0.64 -1.47 -1.21 -2.83 -1.27 -3.02 -0.06 -0.21 -0.25 -0.38 -0.40 -0.38 -0.17 0 -0.30 -0.15 -0.30 -0.34 0 -0.57 2.13 -0.25 4.25 0.60 3.17 1.27 8.54 4.93 14.15 9.63 4.84 4.06 4.82 4.04 6.78 8.07 0.98 1.98 2.25 4.84 2.87 6.35 1.57 3.91 3.85 10.86 3.97 12.20 l0.13 1.11 -0.87 0 c-0.55 0 -1.51 -0.30 -2.74 -0.87 -1.02 -0.47 -3.68 -1.68 -5.91 -2.68 -2.21 -1 -6.31 -2.91 -9.10 -4.27 -2.76 -1.34 -5.08 -2.40 -5.10 -2.36 -0.15 0.17 -3.40 11.96 -4.46 16.19 l-1.11 4.40 -0.76 0 -0.76 0 -1.40 -2.95z"/>
  <path d="M166.49 92.16 c-2.46 -1.66 -5.12 -3.48 -5.95 -4.08 -0.81 -0.57 -1.51 -1.06 -1.55 -1.08 -0.04 -0.02 0.09 -0.36 0.28 -0.72 0.62 -1.19 4.27 -10.41 4.91 -12.37 0.53 -1.66 0.66 -1.87 1.11 -1.87 0.43 0 0.62 0.28 1.30 1.76 2.76 5.93 5.31 14.81 5.70 19.70 l0.13 1.70 -0.72 0 c-0.60 0 -1.59 -0.57 -5.18 -3.04z"/>
  <path d="M99.24 88.61 c-1.72 -2.40 -6.63 -15.15 -9.67 -25.08 -0.96 -3.08 -1 -3.38 -0.89 -4.99 0.38 -5.08 2.38 -13.30 4.99 -20.44 0.94 -2.59 0.94 -2.61 1.62 -2.61 0.66 0 0.66 0.02 1.49 2.40 1.21 3.51 3.36 8.41 4.89 11.22 2.27 4.16 6.97 11.07 7.22 10.65 0.23 -0.38 5.01 -16.70 5.01 -17.13 0 -0.06 -0.17 -0.15 -0.36 -0.19 -0.21 -0.06 -0.02 -0.11 0.43 -0.13 0.96 -0.02 1.27 0.28 3.08 2.95 2.46 3.61 5.40 9.27 7.33 14.13 1.23 3.06 2.63 7.74 2.85 9.52 l0.13 1 -0.81 0 c-0.62 0 -2.15 -0.68 -6.57 -2.95 -3.17 -1.62 -6.86 -3.57 -8.20 -4.34 -1.34 -0.76 -2.46 -1.36 -2.51 -1.32 -0.11 0.11 -6.63 22.48 -7.44 25.50 l-0.62 2.34 -0.74 0.06 c-0.64 0.06 -0.83 -0.04 -1.23 -0.60z"/>
 </g>
 <g fill="#000000">
  <path d="M88.40 208.65 c-4.14 -0.49 -9.14 -2.30 -12.35 -4.46 -4.46 -3.02 -7.57 -7.86 -8.93 -13.90 -0.38 -1.72 -0.47 -2.78 -0.47 -5.63 -0.02 -5.33 0.83 -9.05 3.57 -15.62 2.32 -5.55 3.12 -7.84 6.01 -17.32 3.46 -11.26 4.46 -14.68 5.65 -19.23 1.70 -6.44 3.02 -9.63 5.57 -13.43 3.40 -5.04 7.74 -8.41 12.26 -9.54 0.72 -0.17 2.70 -0.36 4.40 -0.45 2.76 -0.11 3.36 -0.04 5.74 0.45 6.14 1.25 10.86 3.34 19.87 8.76 8.46 5.08 14 8.22 19.87 11.31 3 1.57 5.14 2.49 10.09 4.29 5.21 1.91 7.65 3.44 10.60 6.61 3.04 3.27 5.70 8.01 6.86 12.20 0.53 1.93 0.60 2.44 0.57 5.63 0 2.95 -0.06 3.78 -0.47 5.25 -1.06 3.95 -2.19 6.44 -4.25 9.54 -3.83 5.65 -6.65 6.95 -20.19 9.22 -10.01 1.68 -14.66 2.72 -19.38 4.36 -6.27 2.19 -13.49 6.18 -24.42 13.47 -13.05 8.73 -14.26 9.22 -20.63 8.50z m-8.27 -12.30 c2.76 -1.17 8.16 -4.34 15.70 -9.20 2.17 -1.40 5.76 -3.72 8.01 -5.16 4.63 -3 11.96 -7.44 15.53 -9.41 1.30 -0.74 2.38 -1.42 2.38 -1.53 0 -0.62 -9.92 -27.33 -14.45 -38.87 -3.68 -9.39 -7.39 -18.49 -7.57 -18.49 -0.30 0 -1.89 0.96 -2.53 1.53 -2.36 2.06 -5.23 7.71 -8.50 16.75 -1.36 3.78 -1.98 5.67 -5.95 18.81 -3.46 11.41 -5.99 19.64 -7.14 23.27 -2.63 8.22 -3.27 12.43 -2.44 16.02 0.68 2.91 2.34 5.65 3.91 6.50 1.06 0.55 1.32 0.53 3.04 -0.21z"/>
  <path d="M50.62 165.32 c-3.40 -0.47 -6.35 -1.51 -10.18 -3.57 -5.86 -3.17 -11.14 -7.99 -15 -13.71 -2.04 -3.02 -4.65 -8.99 -5.82 -13.28 -1.02 -3.72 -0.68 -7.05 1.34 -13.13 1.04 -3.17 2.27 -5.95 3.29 -7.46 0.79 -1.17 2.25 -2.85 2.72 -3.12 1.08 -0.66 8.82 1.17 13.56 3.19 6.10 2.59 12.58 7.08 18.04 12.52 5.29 5.25 7.22 8.86 8.24 15.41 0.51 3.23 0.62 5.67 0.34 8.03 -0.34 3.19 -0.91 5.18 -2.17 7.69 -2.36 4.72 -6.08 7.18 -11.37 7.52 -0.91 0.04 -2.25 0.02 -3 -0.09z m-14.39 -23.31 c1 -3.06 1.81 -5.72 1.81 -5.91 0 -0.23 0.23 -0.32 0.87 -0.32 0.47 0 0.81 0.09 0.72 0.19 -0.25 0.43 9.24 3.74 17.42 6.08 3.85 1.11 4.70 1.30 4.74 1.02 0.13 -0.51 -1 -3.85 -1.87 -5.59 -0.45 -0.89 -1.40 -2.42 -2.13 -3.40 -1.66 -2.25 -6.57 -7.16 -8.82 -8.82 -4.78 -3.53 -11.94 -7.12 -17.28 -8.69 -1.11 -0.32 -1.15 -0.32 -1.25 0.09 -0.11 0.40 -0.13 0.40 -0.38 0.06 -0.45 -0.60 -0.81 -0.11 -2.63 3.55 -2.25 4.51 -3.44 7.61 -3.57 9.29 -0.30 3.93 4.61 15.36 8.73 20.34 l0.85 1.04 0.49 -1.68 c0.28 -0.94 1.32 -4.19 2.30 -7.25z"/>
  <path d="M156.82 122.91 c-2.49 -0.43 -3.25 -0.62 -4.36 -1.08 -5.38 -2.25 -10.37 -7.99 -12.52 -14.41 -2.53 -7.52 -2.32 -17.32 0.62 -27.01 1.78 -5.86 4.76 -13.35 6.40 -16.07 1.42 -2.34 2.59 -2.78 5.84 -2.19 3.59 0.68 10.88 3.02 13.05 4.21 2.23 1.23 7.10 10.71 9.33 18.15 2.17 7.25 2.32 11.50 0.64 19.72 -1.25 6.16 -2.49 9.46 -4.61 12.37 -1.91 2.59 -5.50 4.97 -8.73 5.80 -1.59 0.40 -4.65 0.68 -5.65 0.51z m-5.74 -18.68 c1.36 -2.91 3.72 -8.03 5.21 -11.37 1.49 -3.34 2.83 -6.18 2.97 -6.35 0.23 -0.23 0.47 -0.13 1.49 0.62 3.04 2.25 10.84 7.44 10.90 7.25 0.15 -0.43 -0.87 -5.65 -1.66 -8.59 -1.34 -4.95 -4.36 -12.79 -5.01 -13.05 -0.17 -0.06 -0.30 -0.30 -0.30 -0.53 0 -0.76 -5.61 -3.06 -11.05 -4.53 -2.59 -0.68 -2.85 -0.68 -2.72 0 0.09 0.36 0.02 0.53 -0.19 0.53 -0.43 0 -1.15 1.76 -3.14 7.76 -2.81 8.37 -3.93 14.22 -3.95 20.51 -0.02 3.38 0 3.61 0.66 5.72 0.79 2.59 1.89 5.50 2.81 7.52 l0.68 1.47 0.40 -0.83 c0.23 -0.45 1.55 -3.19 2.91 -6.12z"/>
  <path d="M65.13 115.94 c-7.05 -1.34 -14.56 -4.65 -17.81 -7.84 -4.08 -4.02 -7.74 -12.49 -11.31 -26.18 -1.81 -6.93 -2.27 -11.41 -1.45 -13.71 1.78 -4.87 6.80 -14.17 9.10 -16.87 0.66 -0.79 0.76 -0.85 1.74 -0.81 5.50 0.28 15.43 3.65 20.46 6.97 1.85 1.21 3.97 3.19 5.23 4.82 2.83 3.72 10.75 22.74 12.73 30.58 0.91 3.53 0.66 8.29 -0.62 12.03 -0.81 2.34 -2.42 5.23 -3.74 6.67 -1.53 1.70 -3.87 3.21 -6.03 3.91 -2.10 0.68 -5.95 0.87 -8.31 0.43z m-14.62 -17.49 c0.62 -2.44 1.89 -7.14 2.83 -10.48 0.94 -3.34 1.66 -6.18 1.59 -6.33 -0.06 -0.17 -0.04 -0.25 0.04 -0.21 0.11 0.04 2.27 1.13 4.84 2.42 2.57 1.27 6.06 2.95 7.76 3.74 8.52 3.87 10.86 4.91 10.97 4.80 0.15 -0.15 -1.64 -5.80 -2.93 -9.27 -1.38 -3.72 -2.87 -7.16 -4.46 -10.28 -1.38 -2.72 -1.72 -3.10 -6.20 -6.86 -7.31 -6.10 -13.58 -10.01 -16.77 -10.43 l-0.89 -0.13 -1.02 1.57 c-1.11 1.70 -4.80 8.88 -6.01 11.69 -0.68 1.51 -0.79 1.98 -0.76 3.36 0 4.27 2.42 13.47 5.86 22.40 1.04 2.68 3.72 8.41 3.93 8.41 0.06 0 0.64 -1.98 1.23 -4.40z"/>
  <path d="M111.03 99.13 c-4.57 -0.85 -9.99 -3.93 -13.60 -7.80 -3.36 -3.55 -4.42 -5.89 -9.50 -20.68 -2.36 -6.91 -3.48 -10.92 -3.68 -13.28 -0.25 -2.91 0.57 -7.84 2.38 -14.13 1.62 -5.61 2.10 -6.74 4.12 -9.48 2.13 -2.85 3.32 -4.02 4.12 -4.02 2.34 0 12.01 3.38 19.55 6.84 l2.97 1.38 1.21 1.68 c3.83 5.29 8.56 14.81 10.88 21.87 1.66 5.06 1.93 6.63 1.93 10.63 -0.02 3.14 -0.11 3.97 -0.62 6.38 -1.85 8.59 -5.21 15.17 -9.33 18.30 -1.66 1.25 -3.04 1.87 -5.10 2.30 -1.91 0.40 -3.32 0.40 -5.36 0.02z m-9.88 -12.75 c0.47 -1.81 2.30 -8.20 5.72 -19.87 0.85 -2.87 1.59 -5.53 1.68 -5.91 l0.15 -0.68 3.08 1.72 c3.04 1.70 14.47 7.63 14.73 7.63 0.15 0 -1.13 -4.89 -1.72 -6.59 -2.32 -6.61 -7.44 -16.26 -10.31 -19.38 -1.15 -1.25 -9.41 -5.18 -15.51 -7.42 -1.98 -0.70 -3.12 -1 -3.12 -0.76 0 0.02 0.09 0.38 0.21 0.76 0.15 0.57 0.15 0.68 -0.04 0.49 -0.53 -0.53 -0.79 -0.17 -1.70 2.34 -2.02 5.53 -3.53 11.09 -4.40 16.11 -0.81 4.76 -0.81 4.46 0.30 8.10 3.70 12.05 9.50 26.46 10.31 25.54 0.09 -0.09 0.36 -1.02 0.64 -2.08z"/>
 </g>
</svg>