<?xml version="1.0" encoding="utf-8"?>
<!DOCTYPE svg PUBLIC "-//W3C//DTD SVG 1.0//EN" "http://www.w3.org/TR/2001/REC-SVG-20010904/DTD/svg10.dtd">
<svg version="1.0" xmlns="http://www.w3.org/2000/svg" width="294px" height="294px" viewBox="0 0 294 294" preserveAspectRatio="xMidYMid meet">
 <g fill="#fffffe">
  <path d="M100.06 285.70 c-14.10 -2.50 -27.65 -11.11 -34.74 -22.11 -8.61 -13.35 -9.42 -35.54 -1.87 -51.91 0.63 -1.35 1.15 -2.56 1.15 -2.64 0 -0.11 -1.21 -0.43 -2.64 -0.69 -9.93 -1.89 -20.16 -7.78 -29.14 -16.80 -14.21 -14.27 -19.41 -29.80 -18.98 -56.73 0.14 -7.35 0.17 -7.95 0.92 -10.65 2.04 -7.52 6.69 -15.13 13.78 -22.48 6.29 -6.52 10.65 -9.10 16.97 -10.13 2.90 -0.46 8.53 -0.17 11.34 0.57 1.18 0.32 2.18 0.55 2.24 0.49 0.03 -0.06 -0.06 -1.44 -0.23 -3.04 -0.86 -8.44 0.09 -27.62 1.87 -38.33 1.35 -8.01 3.73 -12.58 10.65 -20.50 11.94 -13.67 18.66 -18.55 27.02 -19.55 5.80 -0.72 12.75 0.98 18.29 4.42 6.14 3.85 15.07 12.09 23.86 22.11 l1.75 1.98 2.07 -3.67 c7.06 -12.43 14.90 -22.42 21.45 -27.36 2.58 -1.95 7.69 -4.48 10.62 -5.25 3.50 -0.92 8.81 -0.86 12.60 0.11 3.36 0.89 8.47 3.30 11.92 5.60 3.27 2.15 9.10 6.86 13.92 11.20 7.90 7.12 11.11 11.86 13.41 19.78 1.75 6.03 3.82 17.05 5.28 28.08 0.43 3.16 0.80 5.77 0.83 5.83 0.06 0.03 1.03 -0.37 2.21 -0.92 3.73 -1.69 5.54 -2.04 11.02 -2.04 5.28 0 6.37 0.20 10.68 1.84 6.40 2.50 15.07 8.81 19.87 14.56 5 6 7.35 11.80 8.90 21.94 2.04 13.47 2.24 24.72 0.57 32.82 -1.38 6.86 -5.94 17.92 -10.57 25.67 -5.71 9.59 -13.87 17.20 -22.91 21.36 -1.15 0.55 -2.10 1.06 -2.10 1.21 0 0.11 0.66 1.52 1.46 3.10 9.04 18.03 10.19 35.77 3.22 49.78 -2.73 5.48 -6.89 10.97 -12.17 16.11 -7.03 6.80 -14.24 11.02 -22.31 13.06 -6.32 1.61 -11.40 1.49 -28.19 -0.66 -8.35 -1.09 -9.93 -1.21 -15.07 -1.18 -6.20 0.03 -11.14 0.52 -17.05 1.69 -6.29 1.23 -9.53 2.15 -25.06 7.03 -11.31 3.56 -18.66 5.57 -22.85 6.29 -4.16 0.72 -9.96 0.72 -13.98 0.03z m12.20 -15.39 c3.33 -0.83 8.87 -2.50 19.67 -5.94 9.16 -2.90 18.89 -5.71 23.11 -6.66 7.52 -1.67 15.45 -2.47 24.43 -2.47 7.06 0 10.25 0.23 23.23 1.61 14.07 1.49 15.65 1.41 20.67 -1.21 6.43 -3.33 15.99 -13.24 19.49 -20.13 1.78 -3.59 2.18 -5.66 2.15 -11.43 -0.03 -5.77 -0.63 -10.02 -2.01 -14.07 -2.76 -8.24 -7.55 -13.49 -27.96 -30.72 -9.36 -7.92 -13.81 -12 -25.98 -23.97 -12.14 -11.92 -15.85 -15.25 -20.18 -18.09 -3.19 -2.12 -5.66 -3.24 -9.70 -4.48 -2.18 -0.66 -3.07 -0.78 -6.14 -0.80 -3.16 0 -3.88 0.09 -5.97 0.78 -6.23 2.10 -10.36 4.74 -15.73 10.08 -4.48 4.48 -5.94 6.40 -12.09 15.68 -11.40 17.23 -23.83 35.31 -31.50 45.74 -9.53 12.98 -11.48 16.68 -13.09 24.58 -2.01 10.02 -0.95 18.98 2.93 25.04 4.54 7.03 14.87 13.95 24.75 16.51 3.50 0.89 6.12 0.89 9.93 -0.03z m-39.79 -77.81 c4.16 -0.89 7.49 -3.10 10.62 -7.06 4.13 -5.23 6.40 -11.11 8.07 -21.02 1.84 -10.97 0.06 -17.89 -7.64 -29.34 -3.30 -4.88 -5.68 -7.84 -9.88 -12.17 -7.72 -7.98 -15.62 -13.81 -21.25 -15.68 -5.51 -1.87 -8.18 0.06 -18.09 12.92 -3.47 4.51 -4.85 7.12 -5.31 10.02 -0.46 2.87 0.29 17.31 1.18 23 1.38 8.93 5.46 17.28 12.12 24.98 7.06 8.13 14.59 12.83 22.94 14.36 2.81 0.52 4.85 0.52 7.24 0z m169.71 -16.42 c8.87 -1.95 16.22 -8.15 22.37 -18.86 6.26 -10.82 9.07 -19.87 8.67 -27.73 -0.14 -3.39 -1.67 -17.46 -2.21 -20.53 -0.66 -3.85 -1.84 -6.72 -3.88 -9.36 -3.10 -4.05 -13.47 -12.06 -16.88 -13.03 -1.29 -0.37 -1.81 -0.40 -2.81 -0.14 -5 1.35 -10.19 6.17 -18.38 17.08 -5.83 7.78 -9.13 13.70 -12.32 22.22 -3.13 8.30 -4.48 15.50 -3.93 20.99 0.46 4.88 2.73 12 5.23 16.48 2.87 5.11 7.09 9.53 10.91 11.37 4.54 2.21 8.21 2.61 13.24 1.52z m-125.18 -46.45 c4.22 -1.23 7.06 -2.99 10.62 -6.60 5.48 -5.54 9.68 -13.44 11.40 -21.48 1.32 -6.17 0.69 -13.52 -2.64 -31.35 -2.76 -14.76 -3.19 -15.85 -8.87 -22.83 -2.35 -2.87 -7.75 -8.61 -11.86 -12.58 -4.79 -4.62 -10.08 -8.10 -12.98 -8.53 -2.78 -0.43 -5.63 1.23 -10.51 6.14 -4.16 4.19 -10.77 11.48 -12.52 13.87 -1.78 2.38 -3.19 5.37 -3.70 7.84 -0.98 4.74 -2.01 22.37 -1.78 30.61 0.14 6 0.69 9.07 2.35 13.75 4.19 11.71 13.61 23.03 23.37 28.08 3.39 1.75 5.43 2.50 8.79 3.22 3.56 0.75 5.37 0.72 8.33 -0.14z m73.50 -7.03 c2.50 -0.78 6.23 -2.73 8.38 -4.39 5.66 -4.36 11.74 -12.63 15.62 -21.19 3.56 -7.90 4.71 -12.17 4.68 -17.63 -0.03 -4.08 -0.06 -4.36 -2.87 -18.81 -3.53 -18.15 -4.45 -20.73 -9.02 -25.06 -2.58 -2.47 -15.36 -12.75 -18.38 -14.79 -2.56 -1.72 -4.77 -2.64 -6.32 -2.64 -3.07 0 -7.72 3.16 -12.03 8.15 -5.48 6.40 -13.98 19.93 -15.68 24.95 -1.29 3.85 -1.35 5.43 -1 20.70 0.32 14.21 0.52 17.46 1.32 21.39 2.07 10.13 9.68 21.42 17.77 26.39 5.60 3.45 12.26 4.54 17.51 2.93z"/>
 </g>
 <g fill="#abf11c">
  <path d="M102.50 264.89 c-5.46 -1.52 -13.75 -6.23 -17.17 -9.76 -1.38 -1.41 -1.52 -1.67 -1.44 -2.64 l0.09 -1.09 6.89 -2.21 c5.83 -1.89 18.63 -5.91 54.12 -17.11 3.24 -1 7.38 -2.33 9.19 -2.87 1.81 -0.57 3.39 -1.12 3.50 -1.21 0.11 -0.11 0.09 -1.35 -0.06 -2.76 -0.17 -1.44 -0.49 -4.51 -0.72 -6.89 -0.23 -2.35 -0.80 -7.92 -1.29 -12.35 -1.52 -14.47 -1.72 -16.28 -2.47 -23.40 -0.37 -3.88 -1.09 -10.59 -1.58 -14.93 -0.49 -4.34 -1.38 -12.60 -2.01 -18.38 -0.63 -5.77 -1.23 -10.97 -1.32 -11.54 l-0.14 -1.03 1.35 -0.23 c2.56 -0.37 7.55 0.06 10.08 0.86 5.80 1.87 10.48 5.66 28.19 22.91 9.02 8.79 14.81 14.10 22.31 20.47 13.09 11.17 15.65 13.41 18.60 16.48 5.25 5.46 8.41 10.28 9.50 14.59 1.21 4.65 1.92 13.95 1.35 17.60 -0.66 4.31 -3.13 8.30 -8.35 13.49 -3.88 3.88 -7.61 6.78 -10.62 8.24 -3.19 1.55 -5.31 1.58 -18.32 0.11 -13.64 -1.52 -18.95 -1.87 -26.18 -1.64 -13.92 0.40 -21.13 1.95 -46.51 9.93 -2.93 0.92 -7.41 2.33 -9.96 3.16 -7.49 2.35 -8.64 2.58 -12.40 2.56 -1.84 0 -3.90 -0.17 -4.62 -0.37z"/>
  <path d="M63.16 186.76 c-8.61 -1.92 -17.37 -9.22 -22.94 -19.06 -4.48 -7.95 -5.68 -14.61 -5.83 -32.21 l-0.06 -6.52 0.92 -1.81 c1.38 -2.78 10.05 -13.21 11.94 -14.36 1.29 -0.78 4.16 -0.72 6.20 0.11 7.01 2.90 20.41 15.56 27.13 25.67 5.17 7.72 6.66 13.15 5.94 21.39 -0.37 4.51 -1.38 9.59 -2.64 13.58 -2.35 7.35 -5.14 11.14 -9.39 12.81 -2.15 0.83 -8.38 1.06 -11.28 0.40z"/>
  <path d="M232.79 170.94 c-2.12 -0.49 -3.47 -1.21 -5.43 -2.78 -3.96 -3.24 -7.24 -9.59 -8.44 -16.39 -0.55 -3.24 -0.57 -10.31 0 -14.01 1.26 -8.44 4.97 -17.77 10.39 -26.21 3.70 -5.74 11.02 -14.76 14.18 -17.43 2.12 -1.81 3.10 -2.24 5 -2.24 2.04 0 3.16 0.55 7.24 3.62 4.11 3.13 7.87 6.78 8.67 8.47 0.63 1.35 1.95 9.70 3.04 19.21 0.69 5.97 0.49 13.15 -0.52 17.08 -1.52 6.03 -3.90 11.31 -7.69 17.08 -6.92 10.59 -12.26 14.10 -21.33 14.04 -1.92 0 -4.22 -0.20 -5.11 -0.43z"/>
  <path d="M107.67 124.63 c-5.86 -1.61 -10.91 -4.85 -16.28 -10.48 -5.60 -5.86 -9.16 -12.72 -11.14 -21.42 -0.75 -3.24 -0.89 -15.02 -0.32 -23.11 1.03 -14.01 1.55 -17 3.39 -19.81 0.92 -1.38 1 -1.44 2.24 -1.44 l1.26 0 3.76 6.89 c4.42 8.10 8.24 15.16 8.87 16.37 0.26 0.49 0.46 0.66 0.46 0.43 0 -0.23 0.37 -4.57 0.83 -9.62 0.46 -5.05 1 -11.37 1.18 -14.07 0.17 -2.67 0.43 -6.49 0.57 -8.47 0.17 -1.98 0.29 -4.39 0.29 -5.37 l0 -1.81 1.67 0 c1.61 0 1.69 0.03 4.22 2.07 5.20 4.16 13.47 12.78 16.85 17.60 3.01 4.25 3.47 5.68 6.09 18.95 2.84 14.53 3.65 21.76 3.04 27.51 -0.86 8.38 -3.82 14.61 -9.73 20.59 -4.74 4.79 -6.80 5.77 -12.14 5.71 -2.12 0 -3.88 -0.20 -5.11 -0.52z"/>
  <path d="M181.45 117.80 c-4.39 -0.72 -9.93 -4.22 -13.38 -8.38 -5.63 -6.83 -8.41 -15.13 -8.99 -26.96 -0.29 -5.94 0.11 -27.56 0.55 -29.34 1.41 -5.74 8.01 -16.71 14.15 -23.51 0.92 -1 1.26 -1.21 2.61 -1.35 l1.55 -0.17 0.29 0.95 c0.17 0.55 0.72 2.53 1.21 4.42 2.30 8.87 6.46 22.88 8.70 29.26 l0.60 1.67 0.63 -1.23 c1.18 -2.35 10.51 -23.69 10.88 -24.86 0.32 -1.09 1.92 -0.89 3.50 0.40 3.19 2.61 4.36 5.80 6.95 19.04 2.35 11.94 2.96 15.79 3.10 20.18 0.20 5 -0.11 7.41 -1.55 11.69 -1.21 3.62 -5.51 12.49 -7.52 15.53 -5.74 8.64 -12.46 12.98 -19.95 12.86 -1.44 -0.03 -2.93 -0.11 -3.33 -0.17z"/>
 </g>
 <g fill="#000000">
  <path d="M101.46 271.20 c-8.21 -2.12 -17.69 -7.84 -22.51 -13.52 -2.99 -3.50 -4.51 -6.66 -5.43 -11.23 -1.15 -5.66 -1.03 -12 0.26 -18.52 1.61 -7.90 3.56 -11.60 13.09 -24.58 7.67 -10.42 20.10 -28.51 31.50 -45.74 6.14 -9.27 7.61 -11.20 12.09 -15.68 5.37 -5.34 9.47 -7.95 15.73 -10.08 2.21 -0.72 2.73 -0.78 6.83 -0.78 4.02 0 4.71 0.09 7.01 0.80 4.08 1.23 6.55 2.38 9.70 4.48 4.34 2.84 8.04 6.17 20.18 18.09 12.17 11.97 16.62 16.05 25.98 23.97 23.34 19.67 27.16 24.43 29.34 36.32 0.49 2.61 0.60 4.54 0.63 9.33 0.03 5.46 -0.03 6.23 -0.63 8.27 -1.52 5.28 -5.23 10.59 -11.86 17.05 -4.94 4.79 -9.24 7.67 -13.32 8.87 -2.56 0.75 -7.09 0.60 -18.23 -0.57 -13.01 -1.38 -16.14 -1.61 -22.37 -1.61 -8.10 0 -16.31 0.86 -23.57 2.47 -4.22 0.95 -13.95 3.76 -23.11 6.66 -18.49 5.91 -21.39 6.66 -25.70 6.63 -2.18 0 -3.73 -0.17 -5.63 -0.66z m10.34 -7.35 c1.21 -0.29 4.31 -1.21 6.86 -2.01 2.56 -0.83 7.03 -2.24 9.96 -3.16 25.84 -8.13 32.73 -9.56 47.37 -9.96 8.18 -0.20 13.24 0.11 27.05 1.67 12.29 1.38 13.55 1.38 16.65 -0.14 2.96 -1.44 6.72 -4.36 10.57 -8.21 5.14 -5.11 7.67 -9.16 8.35 -13.35 0.49 -3.19 -0.20 -11.60 -1.35 -16.02 -1.09 -4.31 -4.25 -9.13 -9.50 -14.59 -2.96 -3.07 -5.51 -5.31 -18.60 -16.48 -7.49 -6.37 -13.29 -11.69 -22.31 -20.47 -17.74 -17.28 -22.42 -21.07 -28.19 -22.91 -2.53 -0.78 -6.20 -1.18 -8.27 -0.86 -1.18 0.17 -1.29 0.26 -1.15 0.89 0.09 0.57 0 0.72 -0.46 0.72 -0.72 0 -4.36 1.89 -6.60 3.42 -5.80 3.96 -8.96 7.87 -19.15 23.57 -11.69 18.03 -19.04 28.71 -29 42.21 -8.15 11.02 -9.82 14.01 -11.63 20.79 -2.56 9.56 -2.07 15.91 1.72 21.45 0.80 1.18 1 1.72 0.78 1.95 -0.40 0.40 2.18 3.04 4.82 4.88 4.13 2.87 9.96 5.77 13.64 6.80 2.01 0.55 5.91 0.49 8.44 -0.17z"/>
  <path d="M64.37 193.37 c-8.35 -1.52 -15.88 -6.23 -22.94 -14.36 -7.21 -8.33 -11.20 -17.05 -12.40 -27.13 -0.34 -2.96 -0.80 -9.70 -1.03 -15.93 -0.32 -7.92 0.37 -10.05 5.46 -16.65 6.26 -8.13 9.42 -11.48 11.89 -12.72 2.35 -1.15 4.94 -1.21 7.92 -0.20 5.63 1.87 13.52 7.69 21.25 15.68 4.19 4.34 6.57 7.29 9.88 12.17 7.81 11.66 9.65 19.12 7.64 31.07 -1.67 9.91 -3.93 15.79 -8.07 21.02 -4.97 6.29 -11.25 8.56 -19.58 7.06z m9.22 -7.87 c5.23 -2.04 8.76 -8.13 11 -19.09 2.35 -11.63 1.26 -17.71 -4.91 -26.96 -7.98 -12 -24.12 -26.30 -29.72 -26.33 -0.55 0 -1.41 0.26 -1.89 0.55 -1.87 1.12 -10.54 11.54 -11.92 14.27 l-0.89 1.78 0.03 5.83 c0.06 9.59 0.66 16.91 1.78 21.45 2.99 12.06 13.24 24.09 23.80 28.02 3.96 1.46 9.56 1.69 12.72 0.49z"/>
  <path d="M235.14 177.52 c-4.54 -0.60 -8.41 -2.33 -11.48 -5.17 -4.94 -4.57 -8.58 -11.05 -10.62 -18.92 -2.30 -8.81 -1.46 -17.08 2.84 -28.57 3.85 -10.22 8.07 -17.26 16.94 -28.11 7.41 -9.07 13.12 -12.55 18.23 -11.08 3.47 1 13.81 8.99 16.94 13.06 2.04 2.64 3.22 5.51 3.88 9.36 0.60 3.42 2.07 17.31 2.24 21.02 0.40 9.02 -2.21 17.71 -8.70 28.97 -7.15 12.43 -16.11 18.92 -26.84 19.47 -1.32 0.06 -2.87 0.06 -3.42 -0.03z m7.64 -7.55 c2.99 -0.78 4.88 -1.72 7.38 -3.73 5.05 -4.05 11.60 -13.98 14.41 -21.82 2.33 -6.52 2.93 -12.60 2.01 -20.38 -1.09 -9.56 -2.41 -17.86 -3.04 -19.21 -0.80 -1.69 -4.57 -5.34 -8.67 -8.47 -5.89 -4.42 -6.75 -4.54 -10.51 -1.38 -3.16 2.67 -10.48 11.69 -14.18 17.43 -9.88 15.36 -13.21 31.29 -9.07 43.64 2.04 6.06 5.74 11.02 9.79 13.09 2.87 1.46 7.98 1.81 11.89 0.83z"/>
  <path d="M107.81 130.63 c-6.83 -1.44 -13.06 -4.97 -18.83 -10.68 -7.44 -7.38 -12.52 -16.19 -14.81 -25.78 -0.63 -2.61 -0.75 -3.85 -0.86 -9.47 -0.14 -6.63 0.20 -15.53 0.95 -24.40 0.86 -10.28 1.69 -12.03 9.82 -21.05 8.47 -9.42 12.32 -12.83 15.39 -13.70 3.47 -0.98 7.58 0.49 12.46 4.39 5.94 4.77 16.19 15.59 19.84 20.96 2.41 3.53 3.22 6.29 5.48 18.43 2.50 13.38 3.24 19.04 3.24 24.98 0.03 4.28 -0.09 5.66 -0.60 8.10 -1.75 8.07 -5.91 15.93 -11.40 21.48 -6.20 6.29 -12.72 8.41 -20.67 6.75z m9.10 -6.92 c2.41 -0.80 3.93 -1.89 7.15 -5.14 5.91 -5.97 8.90 -12.26 9.73 -20.53 0.52 -5.11 -0.29 -11.92 -3.16 -26.44 -2.50 -12.66 -2.99 -14.15 -5.97 -18.35 -5 -7.09 -17.86 -19.52 -20.16 -19.52 -0.46 0 -0.86 0.09 -0.86 0.20 0 0.11 -0.37 0.14 -0.80 0.06 -1.06 -0.20 -2.47 0.40 -4.02 1.75 -1.64 1.41 -7.09 7.35 -10.11 11 -1.87 2.24 -2.50 2.81 -2.78 2.58 -0.52 -0.40 -1.03 0.06 -2.07 1.89 -1.61 2.84 -2.07 5.63 -3.04 19.12 -0.60 8.04 -0.46 18.23 0.29 21.53 0.80 3.59 2.44 8.33 3.79 11.02 4.22 8.47 12.37 16.48 19.95 19.61 4.57 1.87 8.81 2.30 12.06 1.21z"/>
  <path d="M180.30 123.77 c-7.58 -1.67 -14.04 -6.52 -19.49 -14.73 -4.16 -6.23 -6.37 -12.29 -7.18 -19.64 -0.37 -3.39 -1 -30.66 -0.78 -33.42 0.43 -4.94 1.92 -8.47 7.21 -16.94 5.97 -9.59 10.31 -15.10 14.53 -18.49 2.99 -2.38 5.28 -3.33 8.01 -3.33 3.73 0 5.57 1.09 16.37 9.73 12.32 9.88 13.35 11.17 15.48 19.72 0.75 2.99 3.62 17.37 5.08 25.38 0.72 3.93 0.72 11.14 0 14.21 -1.18 5.02 -4.45 13.01 -7.35 17.86 -3.65 6.09 -8.41 11.86 -12.43 14.93 -2.15 1.67 -5.86 3.62 -8.38 4.39 -2.87 0.89 -7.78 1.03 -11.05 0.32z m8.44 -7.21 c5.46 -1.38 10.71 -5.68 15.13 -12.32 2.01 -3.04 6.32 -11.92 7.52 -15.53 2.44 -7.29 2.24 -10.82 -1.55 -30.15 -2.61 -13.29 -3.76 -16.42 -7.01 -19.09 -1 -0.80 -1.41 -1 -1.58 -0.72 -0.26 0.40 0.11 0.69 -8.18 -6.12 -2.84 -2.35 -6.14 -4.91 -7.29 -5.71 -1.89 -1.23 -2.27 -1.41 -3.16 -1.23 -1.41 0.26 -2.27 0.75 -3.93 2.21 -0.78 0.69 -1.75 1.29 -2.21 1.32 -2.50 0.29 -12.86 15.50 -15.27 22.42 -1.06 3.01 -1.26 6.17 -1.32 19.44 -0.03 12.40 0.14 15.07 1.21 20.36 2.21 10.94 8.07 19.70 15.73 23.51 4.42 2.21 7.81 2.67 11.92 1.61z"/>
 </g>
 <g fill="#c2fd34">
  <path d="M84.61 252.91 c-4.94 -5.46 -6 -13.35 -3.22 -24.23 1.87 -7.26 3.42 -10.11 11.77 -21.39 9.96 -13.49 17.31 -24.17 29 -42.21 8.61 -13.26 11.69 -17.37 15.65 -20.84 3.30 -2.87 8.27 -5.83 10.54 -6.29 1.12 -0.23 0.92 -1.26 2.24 11.48 0.55 5.37 1.38 13.26 1.87 17.51 0.46 4.28 1.18 10.91 1.55 14.79 0.75 7.18 0.98 9.39 2.47 23.40 0.49 4.42 1.06 10.05 1.32 12.49 0.23 2.44 0.60 5.94 0.80 7.75 0.20 1.81 0.34 3.33 0.32 3.39 -0.03 0.03 -1.67 0.57 -3.62 1.18 -14.73 4.65 -52.80 16.65 -61.56 19.44 -4.74 1.52 -8.73 2.87 -8.90 3.01 -0.17 0.17 0.06 0.57 0.66 1.15 0.86 0.80 1.09 1.12 0.80 1.12 -0.06 0 -0.83 -0.78 -1.69 -1.75z"/>
  <path d="M98.79 72.90 c-0.66 -1.29 -1.95 -3.70 -2.87 -5.40 -0.92 -1.67 -3.45 -6.35 -5.63 -10.36 -2.18 -4.02 -4.19 -7.52 -4.45 -7.78 -0.49 -0.43 -0.40 -0.57 1.49 -2.87 5.63 -6.80 11.05 -12.37 12.75 -13.06 1.49 -0.63 4.71 -0.46 4.71 0.23 0 0.17 -0.26 0.23 -0.57 0.14 -0.52 -0.14 -0.57 0 -0.57 1.61 0 0.98 -0.11 3.47 -0.29 5.51 -0.14 2.07 -0.40 5.80 -0.57 8.33 -0.17 2.53 -0.69 8.87 -1.18 14.07 -0.46 5.23 -0.89 10.02 -0.92 10.68 -0.03 0.72 -0.20 1.23 -0.40 1.23 -0.17 0 -0.86 -1.03 -1.49 -2.33z"/>
  <path d="M187.54 64.40 c-2.84 -8.38 -6.57 -20.87 -8.96 -30.09 -1.38 -5.37 -1.32 -5.25 -2.24 -5.11 -0.69 0.11 -0.57 -0.06 1 -1.61 2.24 -2.15 3.19 -2.64 5.40 -2.81 1.69 -0.14 1.78 -0.11 3.82 1.23 2.47 1.67 13.06 10.28 15.13 12.29 0.78 0.78 1.06 1.12 0.63 0.75 -0.69 -0.60 -0.83 -0.63 -1.06 -0.29 -0.14 0.23 -0.29 0.55 -0.29 0.66 0 0.26 -2.07 5.05 -6.89 15.99 -3.82 8.67 -5.17 11.48 -5.46 11.48 -0.11 0 -0.60 -1.12 -1.09 -2.50z"/>
 </g>
</svg>